<svg xmlns="http://www.w3.org/2000/svg" xmlns:xlink="http://www.w3.org/1999/xlink" id="Layer_1" x="0px" y="0px" viewBox="0 0 50 50" style="enable-background:new 0 0 50 50;" xml:space="preserve"> <style type="text/css"> .st0{fill:url(#SVGID_1_);} .st1{fill:url(#SVGID_2_);} .st2{fill:url(#SVGID_3_);} .st3{fill:url(#SVGID_4_);} </style> <g> <linearGradient id="SVGID_1_" gradientUnits="userSpaceOnUse" x1="8.1659" y1="23.0834" x2="33.046" y2="23.0834" gradientTransform="matrix(1 0 0 -1 0 50)"> <stop offset="0" style="stop-color:#506DB4"></stop> <stop offset="1" style="stop-color:#6D57A5"></stop> </linearGradient> <path class="st0" d="M23.1,17.4c-0.1,0-0.3,0-0.1,0.2c0.2,0,0.5,0.1,0.7,0.1c0.4,0.1,5.3,0.6,7.4,0c0.9-0.3,1.7,0.2,1.9,1 c0.2,0.8-0.3,1.5-1.3,1.7c-1.3,0.3-2.5,0.5-3.8,0.8c-0.5,0.1-1.1,0.1-1.6,0c-1.3-0.3-2.6-0.6-3.9-0.9c-0.2,0-0.4-0.1-0.7,0 c-0.1,0,0,0.1,0,0c0,0,0,0,0.1,0c0.2,0,0.3,0,0.4,0.2c1.5,0.7,3.1,1.4,4.8,2.1c-0.7,0.2-1.3,0.4-1.9,0.7c-0.3,0.1-0.6,0.2-0.8,0.4 c-0.8,0.5-0.8,0.5-1.4-0.3C23,23.3,23,23.2,22.8,23c-0.5,0.9-1,1.7-1.5,2.6c-0.2,0.3,0.2,0.3,0.3,0.4c1.2,0.8,2.4,1.6,3.7,2.3 c0.8,0.5,1.2,1.1,1.2,2.1c0,1.7,0.1,3.4,0.1,5c0,1.2-0.7,2-1.7,1.9c-1,0-1.6-0.8-1.7-1.9c0-1.3-0.1-2.5,0-3.8 c0-0.5-0.2-0.8-0.6-1.1c-1.4-0.8-2.8-1.7-4.2-2.6c-0.4-0.2-0.6-0.3-0.8,0.2c-1,2.8-2.8,5.1-5,7.1c-0.5,0.5-1,1-1.5,1.5 c-0.7,0.7-1.7,0.7-2.4,0.1c-0.6-0.6-0.6-1.6,0-2.4c0.1-0.1,0.2-0.3,0.3-0.4c2.8-2.6,5-5.7,6.7-9.2c1.1-2.3,2.4-4.5,3.6-6.7 c1-1.9,2.1-2.2,4-1.1l0.3,0.2l0.9,0.6l-0.1,0.5l-1.6-0.2l0-0.5l0.3-0.4h0.3L23.1,17.4z"></path> <linearGradient id="SVGID_2_" gradientUnits="userSpaceOnUse" x1="28.987" y1="22.1939" x2="41.1208" y2="22.1939" gradientTransform="matrix(1 0 0 -1 0 50)"> <stop offset="0" style="stop-color:#506DB4"></stop> <stop offset="1" style="stop-color:#6D57A5"></stop> </linearGradient> <path class="st1" d="M35.1,28.2c-0.8,0.4-1.5,0.8-2.2,1.1c-0.3,0.2-0.3,0.4-0.3,0.7c-0.1,1.8-0.2,3.7-0.3,5.5 c-0.1,1.1-0.8,1.8-1.7,1.8c-1,0-1.7-0.8-1.6-1.9c0.1-2.3,0.2-4.5,0.3-6.8c0-1,0.5-1.6,1.5-1.9c0.8-0.2,1.6-0.5,2.4-0.8 c1.2-0.4,1.6-1.2,1.4-2.5c-0.1-0.5-0.3-1.1-0.4-1.6c-0.2-0.7-0.4-1.5,0-2.2c0.2-0.4,0-0.9,0-1.3c0.3-0.1,0.4,0.1,0.5,0.3 c1.4,1.4,2.8,2.9,4.2,4.3c0.5,0.6,0.7,1.1,0.5,1.9c-0.3,1.3-0.6,2.6-0.9,3.8c-0.1,0.4,0,0.7,0.1,1c0.8,1.7,1.6,3.4,2.4,5.2 c0.3,0.7,0.3,1.4-0.3,2c-0.5,0.5-1.1,0.6-1.7,0.4c-0.5-0.2-0.8-0.5-1-1c-0.9-2.1-1.9-4.1-2.8-6.2C34.8,29.5,34.9,29,35.1,28.2z"></path> <linearGradient id="SVGID_3_" gradientUnits="userSpaceOnUse" x1="21.1869" y1="36.3377" x2="30.9792" y2="36.3377" gradientTransform="matrix(1 0 0 -1 0 50)"> <stop offset="0" style="stop-color:#506DB4"></stop> <stop offset="1" style="stop-color:#6D57A5"></stop> </linearGradient> <path class="st2" d="M25.8,14.8c-1.2,1-2.3,1.2-3.3,0.6c-1-0.6-1.5-1.7-1.2-2.7c0.3-1.1,1.1-1.9,2.3-2.1c1.2-0.2,2.1,0.5,2.8,2 c0.7-0.7,1.5-1.1,2.5-0.9c0.7,0.1,1.3,0.5,1.7,1.2c0.8,1.3,0.3,2.9-1,3.6C28.1,17.3,26.6,16.6,25.8,14.8z"></path> <linearGradient id="SVGID_4_" gradientUnits="userSpaceOnUse" x1="24.4248" y1="25.9582" x2="33.385" y2="25.9582" gradientTransform="matrix(1 0 0 -1 0 50)"> <stop offset="0" style="stop-color:#506DB4"></stop> <stop offset="1" style="stop-color:#6D57A5"></stop> </linearGradient> <path class="st3" d="M33.4,20.9c0,1,0,1.8,0,2.7c0,0.7-0.3,1.3-1,1.5c-2,0.7-4,1.4-6,2.1c-0.8,0.3-1.6-0.1-1.8-0.9 c-0.3-0.7,0.1-1.5,0.9-1.8c1.5-0.6,3.1-1.1,4.6-1.6c0.3-0.1,0.6-0.2,0.5-0.6c-0.1-0.4,0.3-0.4,0.5-0.5 C31.9,21.6,32.7,21.5,33.4,20.9z"></path> </g> </svg>