<svg xmlns="http://www.w3.org/2000/svg" xmlns:xlink="http://www.w3.org/1999/xlink" id="Layer_1" x="0px" y="0px" viewBox="0 0 50 50" style="enable-background:new 0 0 50 50;" xml:space="preserve"> <style type="text/css"> .st0{fill:url(#SVGID_1_);} .st1{fill:url(#SVGID_2_);} .st2{fill:url(#SVGID_3_);} .st3{fill:url(#SVGID_4_);} </style> <g> <linearGradient id="SVGID_1_" gradientUnits="userSpaceOnUse" x1="20.5171" y1="35.0414" x2="26.0216" y2="35.0414" gradientTransform="matrix(1 0 0 -1 0 50)"> <stop offset="0" style="stop-color:#506DB4"></stop> <stop offset="1" style="stop-color:#6D57A5"></stop> </linearGradient> <path class="st0" d="M20.5,14.9c0-1.5,1.2-2.7,2.7-2.8c1.5,0,2.8,1.2,2.8,2.8c0,1.5-1.2,2.7-2.7,2.8C21.8,17.7,20.5,16.5,20.5,14.9 z"></path> <linearGradient id="SVGID_2_" gradientUnits="userSpaceOnUse" x1="21.7165" y1="29.8796" x2="24.8221" y2="29.8796" gradientTransform="matrix(1 0 0 -1 0 50)"> <stop offset="0" style="stop-color:#506DB4"></stop> <stop offset="1" style="stop-color:#6D57A5"></stop> </linearGradient> <path class="st1" d="M21.7,18.3c1.1,0,2,0,3.1,0c-0.4,1.2-0.8,2.3-1.2,3.4c-0.1,0.2-0.2,0.3-0.4,0.3c-0.2,0-0.3-0.1-0.3-0.3 C22.5,20.5,22.1,19.4,21.7,18.3z"></path> <linearGradient id="SVGID_3_" gradientUnits="userSpaceOnUse" x1="19.7573" y1="17.9049" x2="20.0559" y2="17.9049" gradientTransform="matrix(1 0 0 -1 0 50)"> <stop offset="0" style="stop-color:#506DB4"></stop> <stop offset="1" style="stop-color:#6D57A5"></stop> </linearGradient> <path class="st2" d="M19.8,24.7c0-0.1,0.1-0.2,0.2-0.1c0.1,0.1,0.1,0.3,0.1,0.4c0,4.9,0,9.7,0,14.6c-0.2-0.3-0.1-0.6-0.1-1 c0-4.3,0-8.7,0-13C19.9,25.3,20,25,19.8,24.7z"></path> <linearGradient id="SVGID_4_" gradientUnits="userSpaceOnUse" x1="15.7398" y1="26.2377" x2="34.7591" y2="26.2377" gradientTransform="matrix(1 0 0 -1 0 50)"> <stop offset="0" style="stop-color:#506DB4"></stop> <stop offset="1" style="stop-color:#6D57A5"></stop> </linearGradient> <path class="st3" d="M19.8,24.7c-0.6,1.3-1.1,2.5-1.7,3.8c-0.3,0.7-1,1-1.7,0.7c-0.6-0.3-0.8-1-0.5-1.7c1.3-2.8,2.6-5.6,3.8-8.4 c0.2-0.3,0.4-0.7,0.8-0.7c0.3,0,0.3,0.5,0.4,0.8c0.3,0.7,0.5,1.5,0.8,2.2c0.2,0.6,0.4,1.1,0,1.7c-0.4,0.7,0,1.4,0.6,1.8 c0.6,0.4,1.3,0.4,1.9,0c0.6-0.5,0.9-1.1,0.6-1.9c-0.3-0.6-0.2-1,0-1.6c0.1-0.3,0.3-0.6,0.3-1c0.4-1.8,1.3-3.2,3.2-3.6 c0.3-0.1,0.5-0.3,0.6-0.5c0.5-0.7,1-1.4,1.5-2c0.1-0.2,0.4-0.4,0.2-0.5c-0.2-0.2-0.5-0.3-0.8-0.1c-1.2,0.5-2.7-0.1-3.3-1.3 c-0.2-0.4-0.1-0.8,0.3-1.1c-0.3-0.2-0.7,0.1-0.7-0.3c0-0.3,0.3-0.4,0.4-0.5c1.5-1,3-2,4.4-3.1c0.2-0.1,0.4-0.4,0.7-0.2 c0.3,0.2,0,0.4,0,0.8c0.8-0.3,1.3,0,1.5,0.8c0.1,0.4,0.3,0.7,0.4,1.1c0.2,0.6,0.1,1.2-0.4,1.6c-0.6,0.6-0.7,1.3-0.2,2 c0.2,0.2,0.3,0.4,0.3,0.7c0,0.5,0.2,0.8,0.8,0.9c0.3,0,0.6,0.1,0.7,0.4c0.1,0.3-0.3,0.3-0.5,0.5c-0.2,0.2-0.4,0.3-0.7,0.5 c-0.3,0.1-0.5,0.5-0.8,0.4c-0.4-0.2-0.1-0.6-0.3-1.1c-0.5,0.6-0.9,1.2-1.3,1.8c-0.5,0.9-1.3,1.5-2.3,1.9c-0.8,0.3-1.8,0.5-2.2,1.1 c-0.3,0.6-0.1,1.6-0.1,2.4c0,5.2,0,10.4,0,15.6c0,0.2,0,0.4,0,0.7c-0.1,0.9-0.7,1.4-1.5,1.4c-0.8,0-1.3-0.6-1.4-1.4 c0-1.9,0-3.8,0-5.7c0-0.7,0-1.4,0-2.1c0-0.4-0.1-0.6-0.5-0.6c-0.5,0-0.5,0.3-0.5,0.6c0,2.6,0,5.1,0,7.7c0,0.8-0.4,1.4-1.1,1.5 c-0.7,0.1-1.3-0.2-1.6-0.9c-0.1-0.9,0-1.8,0-2.7c0-3.8,0-7.6,0-11.4C20,25.2,20.2,24.9,19.8,24.7z M32.4,8.5c-0.1,0-0.2,0-0.2,0 c-0.1,0.1-0.1,0.2,0,0.3c0.4,0.6,0.4,1.3,0.7,2.1C33.1,10.3,32.8,8.8,32.4,8.5z M27.4,11.9c-0.1,0.1-0.1,0.2-0.2,0.2 c0.6,0.4,0.9,1.3,2.1,1.1C28.6,12.8,28,12.4,27.4,11.9z"></path> </g> </svg>