<svg xmlns="http://www.w3.org/2000/svg" xmlns:xlink="http://www.w3.org/1999/xlink" id="Layer_1" x="0px" y="0px" viewBox="0 0 50 50" style="enable-background:new 0 0 50 50;" xml:space="preserve"> <style type="text/css"> .st0{fill:url(#SVGID_1_);} .st1{fill:url(#SVGID_2_);} </style> <g> <linearGradient id="SVGID_1_" gradientUnits="userSpaceOnUse" x1="20.5742" y1="36.219" x2="30.3263" y2="36.219" gradientTransform="matrix(1 0 0 -1 0 50)"> <stop offset="0" style="stop-color:#506DB4"></stop> <stop offset="1" style="stop-color:#6D57A5"></stop> </linearGradient> <path class="st0" d="M20.6,13.7c-0.1-2.5,2.3-4.9,5-4.8c2.7,0.1,4.8,2.2,4.8,5c0,2.6-2.2,4.8-4.9,4.8 C22.7,18.7,20.6,16.5,20.6,13.7z"></path> <linearGradient id="SVGID_2_" gradientUnits="userSpaceOnUse" x1="11.4416" y1="19.0124" x2="39.4294" y2="19.0124" gradientTransform="matrix(1 0 0 -1 0 50)"> <stop offset="0" style="stop-color:#506DB4"></stop> <stop offset="1" style="stop-color:#6D57A5"></stop> </linearGradient> <path class="st1" d="M31.5,37.7c0,0.7,0,1.3,0,1.8c0,0.7-0.3,0.9-0.9,0.9c-3.3,0-6.7,0-10,0c-0.9,0-1.3-0.3-1.2-1.2 c0-0.1,0-0.3,0-0.4c0-1.1,0-1.1-1-0.5c-0.7,0.4-1.6,0.4-2.3-0.3c-1.3-1.3-2.6-2.6-3.8-3.9c-0.9-1-1.1-2.2-0.5-3.4 c1.4-2.6,3-5.1,4.8-7.5c0.6-0.7,1.4-1.2,2.3-1.5c1.5-0.6,2.1-0.3,2.8,1.2c0.8,1.8,1.6,3.6,2.4,5.4c0.2,0.5,0.3,1,0.1,1.5 c-0.3,0.7-0.5,1.3-0.7,2c-0.2,0.5-0.2,0.7,0.4,0.9c0.6,0.2,1.2,0.4,1.8,0.6c0.4,0.2,0.6,0.1,0.7-0.3c0.4-1,0.8-2,1.2-3 c0.2-0.5,0.1-0.8-0.4-0.9c-0.5-0.2-0.6-0.4-0.3-0.9c0.9-2,1.8-4,2.6-6c0.2-0.5,0.5-0.6,1-0.7c1.8,0,3.1,0.7,4.2,2.1 c1.6,2.1,2.9,4.3,4.2,6.5c1,1.8,0.8,2.9-0.6,4.4c-0.9,1-1.9,1.9-2.9,2.9C33.8,39,33.4,39,31.5,37.7z M25.5,28.1 c0.9-2.1,1.7-4.1,2.6-6.1c0.2-0.4,0.1-0.5-0.3-0.5c-1.6,0-3.2,0-5,0C23.6,23.8,24.5,25.9,25.5,28.1z M31.9,36 c1.1-1.2,2.2-2.3,3.3-3.4c0.4-0.4,0.4-0.7,0.1-1.1c-0.8-1.1-1.6-2.1-2.4-3.2c-0.1-0.2-0.2-0.4-0.5-0.3c-0.3,0.1-0.2,0.3-0.2,0.5 c0,0.5-0.1,1-0.1,1.4c-0.2,2-0.3,4-0.5,6C31.7,35.9,31.8,35.9,31.9,36z M18.2,27.9c-0.9,1.2-1.8,2.4-2.6,3.6 c-0.2,0.3-0.1,0.6,0.2,0.9c1,1,2,2.1,3,3.1c0.1,0.1,0.2,0.3,0.5,0.1c-0.2-2.6-0.5-5.2-0.7-7.9C18.3,27.9,18.2,27.9,18.2,27.9z"></path> </g> </svg>