<svg xmlns="http://www.w3.org/2000/svg" xmlns:xlink="http://www.w3.org/1999/xlink" id="Layer_1" x="0px" y="0px" viewBox="0 0 50 50" style="enable-background:new 0 0 50 50;" xml:space="preserve"> <style type="text/css"> .st0{fill:url(#SVGID_1_);} .st1{fill:url(#SVGID_2_);} .st2{fill:url(#SVGID_3_);} .st3{fill:url(#SVGID_4_);} .st4{fill:url(#SVGID_5_);} .st5{fill:url(#SVGID_6_);} .st6{fill:url(#SVGID_7_);} .st7{fill:url(#SVGID_8_);} .st8{fill:url(#SVGID_9_);} .st9{fill:url(#SVGID_10_);} .st10{fill:url(#SVGID_11_);} .st11{fill:url(#SVGID_12_);} </style> <g> <linearGradient id="SVGID_1_" gradientUnits="userSpaceOnUse" x1="9.9642" y1="26.7844" x2="20.5957" y2="26.7844" gradientTransform="matrix(1 0 0 -1 0 50)"> <stop offset="0" style="stop-color:#506DB4"></stop> <stop offset="1" style="stop-color:#6D57A5"></stop> </linearGradient> <path class="st0" d="M13.1,34.1c-0.6-0.3-0.7-0.8-0.6-1.4c0.2-1.7,0.3-3.4,0.5-5.1c0.2-1.7-0.2-3.3-0.3-5c0-1.2-0.2-2.3-0.3-3.5 c0-0.3-0.1-0.6-0.4-0.9c-1.6-1.3-2-3.2-2.1-5.1c0-0.5,0.2-0.8,0.7-0.9c0.5,0,0.7,0.3,0.7,0.8c0.1,1.1,0.3,2.2,0.9,3.2 c0.2,0.3,0.3,0.7,0.8,0.4c0.3-0.2,0.3,0.1,0.4,0.3c0.4,0.7,0.7,1.5,1.1,2.2c0.2,0.3,0,0.5,0,0.7c-0.2,0.4-0.1,0.8,0.3,1.1 c0.4,0.2,0.7,0.2,1.1-0.1c0.4-0.3,0.5-0.7,0.2-1.1c-0.2-0.3-0.1-0.5,0-0.8c0.2-0.5,0.4-1,0.7-1.4c0.2-0.3,0.2-1,0.9-0.8 c0.1,0,0.3-0.2,0.3-0.4c0.6-0.8,0.8-1.7,0.9-2.7c0-0.3,0-0.5,0.1-0.8c0.1-0.4,0.3-0.8,0.8-0.7c0.5,0.1,0.7,0.4,0.7,0.9 c-0.1,1.9-0.5,3.7-2.1,5.1c-0.1,0.1-0.2,0.2-0.2,0.4c-0.2,2.9-0.6,5.9-0.6,8.8c0,1.7,0.3,3.4,0.6,5.1c0.1,0.6,0,1.1-0.6,1.5 c-0.2,0.2-0.4,0.2-0.7,0.1c-0.8-0.3-0.9-1-1-1.7c-0.2-1.7-0.4-3.3-0.5-5c0-0.2,0-0.4-0.3-0.7c-0.1,0.8-0.1,1.5-0.2,2.2 c-0.2,1.4-0.2,2.8-0.5,4.1c-0.1,0.6-0.3,1-1,1.2C13.4,34.2,13.2,34.2,13.1,34.1z"></path> <linearGradient id="SVGID_2_" gradientUnits="userSpaceOnUse" x1="20.9026" y1="29.9135" x2="31.3863" y2="29.9135" gradientTransform="matrix(1 0 0 -1 0 50)"> <stop offset="0" style="stop-color:#506DB4"></stop> <stop offset="1" style="stop-color:#6D57A5"></stop> </linearGradient> <path class="st1" d="M23.9,31.6c-0.5-0.3-0.6-0.7-0.6-1.2c0-0.9,0-1.8,0-2.8c0-1.9,0-3.7-0.2-5.6c-0.1-0.5,0-0.6,0.5-0.5 c0.3,0.1,0.7,0.1,1-0.1c0.5-0.2,0.8-0.6,0.7-1.2c0-0.6-0.3-0.9-0.8-1.1c-0.1-0.1-0.3-0.1-0.5-0.1c-1.2-0.2-1.2-0.2-1.3-1.4 c0-0.1-0.1-0.1-0.1-0.2c-0.8,1.3-0.5,2,0.9,2.1c0.2,0,0.3,0,0.5,0c0.5,0,0.7,0.3,0.7,0.8c0,0.4-0.3,0.7-0.7,0.7 c-2.4,0-3.8-1.2-2.9-3.7c0.4-1.2,1-2.3,2.1-3c0.3-0.2,0.5-0.2,0.6,0.2c0.3,0.7,0.7,1.4,1,2.1c0.1,0.2,0.1,0.4,0,0.6 c-0.3,0.5-0.1,0.9,0.3,1.2c0.4,0.3,0.8,0.2,1.1-0.1c0.3-0.3,0.5-0.7,0.2-1.1c-0.2-0.3-0.1-0.5,0-0.8c0.2-0.4,0.5-0.9,0.6-1.3 c0.2-0.6,0.8-0.7,1.1-1.1c1-1.3,1.6-2.8,1.7-4.5c0-0.2,0-0.3,0-0.5c0.1-0.4,0.3-0.7,0.8-0.6c0.5,0.1,0.7,0.4,0.7,0.8 c-0.1,0.9-0.3,1.9-0.6,2.7c-0.5,1.3-1.1,2.4-1.9,3.5c-0.2,0.3-0.4,0.6-0.4,1c-0.3,4.5-0.8,9.1-0.6,13.6c0,0.6,0,1.1-0.6,1.4 c-0.2,0.2-0.4,0.2-0.7,0.2c-0.7-0.2-0.9-0.8-1-1.4c0-1.8,0-3.7,0-5.5c0,1.7,0,3.4,0,5.1c0,0.7-0.1,1.4-0.8,1.7 C24.5,31.8,24.2,31.8,23.9,31.6z"></path> <linearGradient id="SVGID_3_" gradientUnits="userSpaceOnUse" x1="31.062" y1="24.7753" x2="41.9011" y2="24.7753" gradientTransform="matrix(1 0 0 -1 0 50)"> <stop offset="0" style="stop-color:#506DB4"></stop> <stop offset="1" style="stop-color:#6D57A5"></stop> </linearGradient> <path class="st2" d="M36.1,27.2c-0.1-0.1-0.2-0.1-0.3,0c-0.2,1.3,0,2.5-0.1,3.8c-0.1,1.1,0.1,2.2-0.1,3.3c-0.3,0.4-0.7,0.8-1.2,0.6 c-0.5-0.2-0.7-0.6-0.7-1.2c0-1.2,0-2.3,0-3.5c0.1-2.5-0.3-4.9-0.5-7.3c0-0.1,0-0.2-0.3-0.2c-0.1,0.5-0.3,0.9-0.4,1.4 c-0.1,0.5-0.4,1-1,0.8c-0.6-0.2-0.6-0.6-0.4-1.2c0.5-1.7,1-3.4,1.5-5c0.1-0.2,0.1-0.4,0.2-0.5c0.2-0.3,0.6-0.6,0.9-0.6 c0.2,0,0.3,0.4,0.4,0.7c0.3,0.6,0.5,1.1,0.8,1.7c0.2,0.4,0.4,0.7,0.1,1.1c-0.2,0.4,0,0.7,0.3,1c0.3,0.3,0.7,0.3,1.1,0 c0.3-0.2,0.5-0.6,0.3-0.9c-0.4-0.6,0-1,0.2-1.5c0.1-0.1,0.1-0.3,0.2-0.4c0.4-0.9,0.8-1.8,2-2.1c0.5-0.1,1-0.5,1.4-1 c0.3-0.4,0.7-0.5,1.1-0.3c0.5,0.3,0.3,0.8,0,1.2c-0.6,0.8-1.3,1.3-2.2,1.6c-0.5,0.2-0.7,0.6-0.7,1.1c-0.1,2.1-0.2,4.3-0.5,6.4 c-0.3,2.5-0.1,5-0.2,7.4c0,0.6-0.1,1-0.7,1.3c-0.6,0.2-0.9-0.1-1.2-0.5c-0.1-2.1,0-4.1-0.1-6.2C36.1,27.7,36.2,27.4,36.1,27.2z"></path> <linearGradient id="SVGID_4_" gradientUnits="userSpaceOnUse" x1="20.7702" y1="14.48" x2="30.4669" y2="14.48" gradientTransform="matrix(1 0 0 -1 0 50)"> <stop offset="0" style="stop-color:#506DB4"></stop> <stop offset="1" style="stop-color:#6D57A5"></stop> </linearGradient> <path class="st3" d="M30.4,31.8c0.1,2.4,0,4.8,0.1,7.1c0,0.3-0.1,0.4-0.4,0.4c-3,0-5.9,0-8.9,0c-0.4,0-0.4-0.2-0.4-0.5 c0-2.4,0-4.7,0-7.1c1.1-0.2,2.2,0,3.3-0.1C26.2,31.5,28.3,31.8,30.4,31.8z"></path> <linearGradient id="SVGID_5_" gradientUnits="userSpaceOnUse" x1="10.4533" y1="13.2434" x2="20.2061" y2="13.2434" gradientTransform="matrix(1 0 0 -1 0 50)"> <stop offset="0" style="stop-color:#506DB4"></stop> <stop offset="1" style="stop-color:#6D57A5"></stop> </linearGradient> <path class="st4" d="M20.2,34.3c0,1.4,0,2.9,0,4.3c0,0.6-0.2,0.7-0.7,0.7c-2.8,0-5.6,0-8.3,0c-0.5,0-0.7-0.1-0.7-0.7 c0-1.4,0-2.8,0-4.2c0,0,0.1-0.1,0.1-0.1C13.8,34.2,17,34.1,20.2,34.3z"></path> <linearGradient id="SVGID_6_" gradientUnits="userSpaceOnUse" x1="31.0135" y1="12.8047" x2="40.7465" y2="12.8047" gradientTransform="matrix(1 0 0 -1 0 50)"> <stop offset="0" style="stop-color:#506DB4"></stop> <stop offset="1" style="stop-color:#6D57A5"></stop> </linearGradient> <path class="st5" d="M36,35c1.4,0,2.8,0,4.2,0c0.4,0,0.6,0.1,0.6,0.5c0,1.1,0,2.3,0,3.4c0,0.4-0.1,0.5-0.5,0.5c-2.9,0-5.9,0-8.8,0 c-0.3,0-0.5-0.1-0.5-0.4c0-1.1,0-2.3,0-3.4c0-0.4,0.1-0.6,0.6-0.6C33,35,34.5,35,36,35z"></path> <linearGradient id="SVGID_7_" gradientUnits="userSpaceOnUse" x1="13.4323" y1="36.2868" x2="17.2979" y2="36.2868" gradientTransform="matrix(1 0 0 -1 0 50)"> <stop offset="0" style="stop-color:#506DB4"></stop> <stop offset="1" style="stop-color:#6D57A5"></stop> </linearGradient> <path class="st6" d="M17.3,13.8c0,1-0.9,1.9-2,1.9c-1,0-2-1-1.9-2c0-1.1,1-1.9,2-1.9C16.5,11.9,17.3,12.7,17.3,13.8z"></path> <linearGradient id="SVGID_8_" gradientUnits="userSpaceOnUse" x1="33.9946" y1="35.6304" x2="37.8071" y2="35.6304" gradientTransform="matrix(1 0 0 -1 0 50)"> <stop offset="0" style="stop-color:#506DB4"></stop> <stop offset="1" style="stop-color:#6D57A5"></stop> </linearGradient> <path class="st7" d="M37.8,14.4c0,1.1-0.9,2-1.9,1.9c-1,0-1.9-0.9-1.9-1.9c0-1.1,0.8-1.9,1.9-1.9C37,12.5,37.8,13.3,37.8,14.4z"></path> <linearGradient id="SVGID_9_" gradientUnits="userSpaceOnUse" x1="23.7245" y1="38.7461" x2="27.568" y2="38.7461" gradientTransform="matrix(1 0 0 -1 0 50)"> <stop offset="0" style="stop-color:#506DB4"></stop> <stop offset="1" style="stop-color:#6D57A5"></stop> </linearGradient> <path class="st8" d="M25.7,13.2c-1.1,0-1.9-0.8-1.9-1.9c0-1.1,0.8-2,1.9-2c1.1,0,2,0.9,1.9,1.9C27.5,12.3,26.7,13.2,25.7,13.2z"></path> <linearGradient id="SVGID_10_" gradientUnits="userSpaceOnUse" x1="34.378" y1="31.4752" x2="37.331" y2="31.4752" gradientTransform="matrix(1 0 0 -1 0 50)"> <stop offset="0" style="stop-color:#506DB4"></stop> <stop offset="1" style="stop-color:#6D57A5"></stop> </linearGradient> <path class="st9" d="M35.7,16.8c1.8,0,1.9,0.2,1.2,1.7c-0.2,0.5-0.5,0.9-0.7,1.4c-0.1,0.1-0.1,0.3-0.3,0.3c-0.2,0-0.3-0.2-0.3-0.4 c-0.4-0.7-0.7-1.5-1.1-2.3c-0.2-0.4-0.1-0.6,0.3-0.7C35.2,16.9,35.5,16.8,35.7,16.8z"></path> <linearGradient id="SVGID_11_" gradientUnits="userSpaceOnUse" x1="13.9189" y1="32.2026" x2="16.7495" y2="32.2026" gradientTransform="matrix(1 0 0 -1 0 50)"> <stop offset="0" style="stop-color:#506DB4"></stop> <stop offset="1" style="stop-color:#6D57A5"></stop> </linearGradient> <path class="st10" d="M15.3,19.5c-0.5-1.1-0.9-2-1.4-2.8c-0.2-0.3,0-0.3,0.2-0.4c0.8-0.2,1.5-0.1,2.2,0c0.2,0,0.4,0.1,0.3,0.4 C16.3,17.6,15.9,18.4,15.3,19.5z"></path> <linearGradient id="SVGID_12_" gradientUnits="userSpaceOnUse" x1="24.2668" y1="34.7918" x2="27.0879" y2="34.7918" gradientTransform="matrix(1 0 0 -1 0 50)"> <stop offset="0" style="stop-color:#506DB4"></stop> <stop offset="1" style="stop-color:#6D57A5"></stop> </linearGradient> <path class="st11" d="M27.1,14c-0.4,0.8-0.8,1.7-1.2,2.5c-0.2,0.4-0.3,0.4-0.5,0c-0.3-0.7-0.7-1.5-1.1-2.2 c-0.2-0.3-0.1-0.5,0.3-0.5C25.4,13.6,26.3,13.6,27.1,14z"></path> </g> </svg>