<svg xmlns="http://www.w3.org/2000/svg" xmlns:xlink="http://www.w3.org/1999/xlink" id="Layer_1" x="0px" y="0px" viewBox="0 0 400 200" style="enable-background:new 0 0 400 200;" xml:space="preserve"> <style type="text/css"> .st0{fill-rule:evenodd;clip-rule:evenodd;fill:#FFFFFF;} .st1{fill-rule:evenodd;clip-rule:evenodd;fill:#00B2E3;} .st2{fill-rule:evenodd;clip-rule:evenodd;fill:#F5333F;} .st3{fill-rule:evenodd;clip-rule:evenodd;fill:#001546;} .st4{fill-rule:evenodd;clip-rule:evenodd;fill:#4C9C2E;} .st5{fill-rule:evenodd;clip-rule:evenodd;fill:#000003;} .st6{fill:#001546;} </style> <g> <ellipse transform="matrix(0.1549 -0.9879 0.9879 0.1549 -38.2218 161.4914)" class="st0" cx="75.29" cy="103.09" rx="61.9" ry="61.9"></ellipse> <g> <path class="st1" d="M93.06,118.63c1.61,1.44,0.87,0.81,1.95,2.04c0.66,0.76,0.85,1.7,1.21,2.71c0.15,0.42,0.38,1.07,0.96,1.06 c0.57-0.02,0.88-0.54,1.22-0.74c1.46-0.86,4.7-0.42,6.69-1.21c0.93-0.37,1.98-1.01,3.08-0.33c0.73,0.45,1.22,1.48,1.45,2.54 c0.29,1.35,1.88,3.77,0.06,6.17c-0.43,0.57-1.45,1.47-2.19,1.73c-0.41,0.14-1.42-0.03-1.75-0.18c-0.58-0.26-0.65-0.64-0.61-1.35 c0.03-0.53,0.31-2.9-0.7-3.08c-1.06-0.18-0.84,0.25-1.47,0.77c-0.09,0.07-0.07,0.06-0.15,0.11l-0.86,0.59 c-0.25,0.14-0.43,0.22-0.68,0.34c-0.5,0.23-0.59,0.72-1.81,1.1c-1.02,0.32-0.29-0.01-1.51,0.52c-1.32,0.56-3.44,1.25-4.88,0.74 l-0.01,18.82c1.22-0.29,5.91-2.58,6.93-3.17c4.33-2.54,8.17-5.23,11.56-8.74c5.22-5.42,9.02-11.1,11.8-18.67 c1.87-5.09,3.01-11.14,3.01-17.27c-0.01-14.89-5.97-26.89-14.74-35.94c-0.82-0.85-1.63-1.58-2.6-2.46 c-0.93-0.85-1.84-1.54-2.82-2.3c-3.09-2.44-7.44-4.93-11.26-6.51c-0.49-0.2-1.35-0.6-1.88-0.71L93.06,118.63z"></path> <path class="st2" d="M57.34,55.21c0.16-0.03,0.13-0.07,0.12,0.52l0,30.66c0,3.45,0.1,7.03,0.01,10.46 c0.03-0.08,0.04-0.06,0.13-0.16l0.5-0.78c1.07-1.64,0.56-1.27,2.07-2.86l2.33-2.6c0.13-0.15,0.03-0.04,0.2-0.17l0.71-0.62 c1.74-1.4,2.67-1.69,4.9-1.69c2.18,0,4.47-0.06,6.64,0.01l2.74-3.07c0.21-0.22,0.25-0.32,0.57-0.38c0.32-0.06,0.56-0.08,0.86-0.14 c2.5-0.5,4.18,0.73,5.06,2.45c0.43,0.84,1.13,3.64,1.07,4.75c-0.07,1.28-1.54,1.28-2.89,1.98c-0.91,0.47-0.1,0.27-1.43,0.53 c-0.3,0.06-0.51,0.12-0.78,0.22c-0.37,0.13-1.17,0.35-1.25,0.68c0.17,0.08,0.3,0.04,0.51,0.15c0.95,0.47,2.16,1.95,1.82,3.22 c-0.11,0.41-0.33,0.67-0.52,0.93c-0.26,0.36-0.28,0.81-0.06,1.13c1.16,1.7,6.91,1.11,8.65,2.98c0.18,0.2,0.47,0.64,0.34,1.02 c-0.13,0.39-0.5,0.41-0.96,0.5c-0.08,0.89,0.48,1.59,0.81,2.27c0.37,0.76,0.26,1.88-0.31,2.33c-0.94,0.75-2.63,0.12-3.52-0.58 c-0.23-0.18-0.61-0.62-0.88-0.67c-0.08,0.51,0.34,1.2,0.58,1.74c0.32,0.74,0.2,1.09,0.8,1.54c0.2,0.16,0.49,0.29,0.7,0.44 c0.23,0.16,0.44,0.39,0.68,0.53c0.53,0.31,0.89,0.6,1.29,1.05c0.88,0.99,1.49,2.52,1.81,2.87c0.18,0.19,0.69,0.54,1.24,1.1 c0.21,0.21,0.43,0.38,0.6,0.53c0.21,0.18,0.41,0.4,0.62,0.57l0.03-63.42c-0.98-0.64-6.76-2.06-8.23-2.32 c-9.01-1.59-16.94-1.09-25.57,1.66C58.68,54.74,57.92,54.97,57.34,55.21z"></path> <g> <path class="st3" d="M74.09,166.41h2.56c0.32-0.1,3.05-0.15,3.7-0.21c3.54-0.29,6.74-0.81,10.18-1.65 c6.33-1.53,11.24-3.7,16.76-6.82c2.79-1.58,7.85-5.18,10.22-7.48l1.03-0.93c0.18-0.16,0.33-0.28,0.5-0.45l5.21-5.66 c3.7-4.64,6.47-8.81,9.01-14.64c5.47-12.58,6.88-26.4,3.62-40.24c-1.42-6.04-3.7-11.52-6.71-16.87c-1.52-2.69-4.41-6.85-6.5-9.24 c-1.98-2.27-3.61-4.08-5.82-6.01l-1.54-1.37c-11.23-9.58-25.66-15.13-41.13-15.1c-4.91,0.01-9.6,0.59-14.16,1.61 c-6.76,1.52-13.62,4.39-19.42,8.08c-1.57,1-3.2,2.11-4.67,3.24c-0.73,0.57-1.51,1.15-2.19,1.74c-0.19,0.17-0.31,0.27-0.51,0.44 c-0.11,0.09-0.17,0.12-0.28,0.23l-2.31,2.11c-0.36,0.33-0.7,0.63-1.04,0.98l-3.28,3.54l-2.22,2.71c-0.56,0.73-1.16,1.5-1.69,2.29 c-0.52,0.78-1.07,1.53-1.57,2.35c-1.88,3.09-2.41,4-4.17,7.65c-3.7,7.68-5.62,17.12-5.72,25.82 c-0.17,14.22,4.57,27.72,12.65,38.5c0.9,1.21,2.88,3.66,3.98,4.81c0.2,0.21,0.32,0.31,0.49,0.51c0.57,0.65,2.51,2.55,2.98,2.97 l2.06,1.86c3.96,3.45,9.75,7.16,14.37,9.27c5.85,2.66,11.72,4.47,18.28,5.36c1.16,0.16,2.35,0.28,3.54,0.37 C71.01,166.26,73.7,166.3,74.09,166.41L74.09,166.41z M72.83,41.91c9.14-0.47,18.51,1.5,25.95,4.63 c1.85,0.78,3.44,1.58,5.19,2.45c2.66,1.33,7.86,4.75,10.34,6.92l6.33,6.06c0.16,0.2,0.31,0.3,0.46,0.49l1.77,2.09 c1.72,2.08,3.27,4.39,4.73,6.71c5.17,8.21,8.41,18.83,8.86,29.38c0.4,9.31-1.46,18.38-4.63,25.95c-1.54,3.67-3.31,6.99-5.3,9.99 c-1.66,2.51-2.31,3.3-4.07,5.53l-2.22,2.53c-0.15,0.19-0.28,0.34-0.45,0.49c-0.64,0.56-2.06,2.16-2.89,2.86l-1,0.9 c-1.53,1.48-4.66,3.79-6.48,5.02c-2.2,1.49-4.82,3.03-7.25,4.19c-7.24,3.45-15.25,5.81-24.45,6.15 c-9.55,0.35-18.08-1.4-25.91-4.62c-4.53-1.86-9.49-4.68-13.38-7.67c-0.36-0.28-0.7-0.55-1.06-0.83c-1.2-0.94-2.12-1.81-3.13-2.63 l-5.66-5.84c-3.04-3.46-6.21-8.46-8.3-12.68C12.62,114.6,12,95.45,18.72,79.6c1.54-3.64,3.33-7.03,5.3-10l2.38-3.37l4.37-5.17 c0.83-0.93,2.38-2.44,3.39-3.31c0.84-0.73,1.69-1.57,2.58-2.23l2.14-1.65c1.39-1.07,3-2.11,4.56-3.08 C52,45.47,61.88,42.47,72.83,41.91z"></path> <path class="st4" d="M57.45,150.8l-0.01-30.28c-0.23,0.01-1.16,0.23-1.35,0.3c-1.2,0.51-0.11,2.09,0.32,3.29 c0.71,1.95-1.42,2.9-3.23,1.46c-0.92-0.74-0.79-0.5-1.48-1.67c-0.53-0.89-0.54-1.21-1.36-1.81c-1.43-1.04-3.61,0.28-4.54,1.02 c-1.24,0.98-2.42,1.81-2.48,3.91c-0.02,0.68,0.09,1.41,0.48,1.93c0.52,0.68,1.37,2.31,0.16,2.51c-0.42,0.07-2.59,0-2.91-0.14 c-0.31-0.14-0.66-0.44-0.88-0.69c-1.14-1.3-0.92-2.11-1.8-2.94c-0.86-0.8-2.2-1.72-1.98-2.8c0.14-0.7,0.61-0.71,0.82-0.77 c1.6-0.41,4.83-3.83,5.91-5.15c2.16-2.62,5.02-2.83,7-4.07c4.41-2.76,2.25-3.77,3.2-6.35c0.27-0.73,0.8-0.79,1.1-2.06 c0.64-2.7-0.66-3.42,1.82-7.66l1.24-2c0.09-3.43-0.01-7.01-0.01-10.46l0-30.66c0-0.59,0.04-0.55-0.12-0.52 c-1.55,0.45-5.55,2.45-6.9,3.21c-1.78,1.01-3.02,1.8-4.64,2.95c-0.29,0.2-0.49,0.33-0.74,0.53c-0.28,0.21-0.45,0.36-0.72,0.55 c-0.95,0.68-1.89,1.52-2.77,2.29c-2.5,2.18-5.29,5.21-7.25,7.92c-6.37,8.79-10,18.92-9.99,30.43c0.01,6.03,1.13,12.21,3,17.19 c0.94,2.5,1.93,4.76,3.12,6.99c1.36,2.55,3.22,5.34,5.01,7.57c1.47,1.84,3.14,3.69,4.85,5.27c0.94,0.87,1.66,1.54,2.69,2.37 c0.49,0.4,0.93,0.75,1.41,1.12c1.83,1.4,3.91,2.8,6.1,4.01C51.64,148.23,56.14,150.5,57.45,150.8z"></path> <path class="st5" d="M57.46,96.84l-1.24,2c-2.48,4.25-1.18,4.97-1.82,7.66c-0.3,1.27-0.84,1.33-1.1,2.06 c-0.94,2.58,1.22,3.58-3.2,6.35c-1.98,1.24-4.83,1.44-7,4.07c-1.08,1.31-4.32,4.74-5.91,5.15c-0.21,0.05-0.68,0.07-0.82,0.77 c-0.22,1.08,1.12,2,1.98,2.8c0.89,0.83,0.67,1.63,1.8,2.94c0.22,0.25,0.58,0.56,0.88,0.69c0.32,0.14,2.5,0.21,2.91,0.14 c1.21-0.21,0.36-1.83-0.16-2.51c-0.39-0.52-0.5-1.24-0.48-1.93c0.06-2.1,1.24-2.93,2.48-3.91c0.93-0.74,3.11-2.06,4.54-1.02 c0.82,0.59,0.83,0.91,1.36,1.81c0.69,1.18,0.56,0.94,1.48,1.67c1.81,1.44,3.94,0.5,3.23-1.46c-0.44-1.19-1.52-2.78-0.32-3.29 c0.19-0.08,1.12-0.3,1.35-0.3c1.34-0.24,2.68-0.79,3.31-1.62c0.41-0.53,0.42-0.78,1.55-0.9c0.78-0.08,2.06-0.06,2.72-0.39 c0.71-0.36-0.08-0.1,1.33-0.57c0.97-0.33,1.83-0.59,2.56-1.17c0.97-0.77,1.87-0.39,2.76,0.19c2.21,1.43,1.72,0.87,3.82,1.12 c2.01,0.24,1.23,1.31,0.43,1.59c-1.5,0.51-2.84,1.38-3.92,2.34c-1.76,1.56-3,3.94-3.79,6.13c-0.14,0.4-0.21,0.46-0.26,0.94 c-0.05,0.4-0.06,0.83-0.05,1.24c0.04,1.67,0.71,2.4,2.28,2.74c0.55,0.12,1.76,0.23,2.35,0.15c0.31-0.04,0.62-0.17,0.96-0.24 c1.59-0.31,1.23-0.19,2.96-0.84c0.95-0.36,2.78-1.11,4-0.81c0.45,0.11,1.16,0.65,1.51,0.95c0.41,0.36,1.05,0.79,1.9,0.63 c0.63-0.12,0.92-0.76,1.19-1.28c1.27-2.43,0.96-1.82,0.78-3.85c-0.06-0.66-0.18-1.64,0.18-2.19c0.57-0.14,0.92,0.32,1.16,0.59 c1.14,1.28,2.18,2.75,2.94,4.33l0.8,1.03c0.55,0.73,1.13,1.18,2.2,1.5c1.44,0.51,3.56-0.17,4.88-0.74 c1.22-0.52,0.48-0.2,1.51-0.52c1.22-0.38,1.31-0.87,1.81-1.1c0.25-0.11,0.43-0.2,0.68-0.34l0.86-0.59 c0.07-0.06,0.06-0.04,0.15-0.11c0.63-0.52,0.41-0.95,1.47-0.77c1.01,0.17,0.74,2.54,0.7,3.08c-0.05,0.72,0.03,1.09,0.61,1.35 c0.33,0.15,1.35,0.32,1.75,0.18c0.74-0.26,1.75-1.16,2.19-1.73c1.82-2.4,0.23-4.83-0.06-6.17c-0.23-1.06-0.72-2.09-1.45-2.54 c-1.11-0.68-2.15-0.04-3.08,0.33c-2,0.78-5.23,0.35-6.69,1.21c-0.34,0.2-0.66,0.73-1.22,0.74c-0.58,0.02-0.81-0.64-0.96-1.06 c-0.37-1.02-0.55-1.96-1.21-2.71c-1.08-1.24-0.34-0.6-1.95-2.04c-0.21-0.17-0.41-0.39-0.62-0.57c-0.17-0.15-0.39-0.32-0.6-0.53 c-0.55-0.56-1.05-0.91-1.24-1.1c-0.32-0.34-0.93-1.87-1.81-2.87c-0.4-0.45-0.76-0.74-1.29-1.05c-0.24-0.14-0.45-0.36-0.68-0.53 c-0.21-0.15-0.49-0.29-0.7-0.44c-0.6-0.45-0.48-0.8-0.8-1.54c-0.23-0.53-0.66-1.23-0.58-1.74c0.28,0.05,0.66,0.49,0.88,0.67 c0.89,0.7,2.58,1.33,3.52,0.58c0.57-0.46,0.69-1.57,0.31-2.33c-0.33-0.68-0.89-1.38-0.81-2.27c0.47-0.09,0.83-0.11,0.96-0.5 c0.13-0.38-0.16-0.82-0.34-1.02c-1.74-1.87-7.49-1.27-8.65-2.98c-0.22-0.32-0.2-0.77,0.06-1.13c0.19-0.26,0.41-0.53,0.52-0.93 c0.35-1.27-0.87-2.75-1.82-3.22c-0.21-0.11-0.34-0.07-0.51-0.15c0.08-0.33,0.88-0.54,1.25-0.68c0.27-0.1,0.48-0.17,0.78-0.22 c1.33-0.26,0.52-0.06,1.43-0.53c1.36-0.71,2.83-0.71,2.89-1.98c0.06-1.12-0.64-3.91-1.07-4.75c-0.88-1.72-2.56-2.95-5.06-2.45 c-0.3,0.06-0.55,0.08-0.86,0.14c-0.32,0.06-0.36,0.16-0.57,0.38l-2.74,3.07c-2.17-0.07-4.46-0.01-6.64-0.01 c-2.23,0-3.15,0.3-4.9,1.69l-0.71,0.62c-0.16,0.13-0.07,0.03-0.2,0.17l-2.33,2.6c-1.51,1.59-1,1.22-2.07,2.86l-0.5,0.78 C57.51,96.78,57.49,96.77,57.46,96.84z"></path> <path class="st2" d="M57.44,120.53l0.01,30.28c0.12,0.3,0.01,0.19,0.78,0.45l3.02,0.96c7.46,2.2,15.91,2.49,23.57,1.07 c3.01-0.56,5.6-1.37,8.26-2.31l0.01-18.82c-1.07-0.32-1.65-0.76-2.2-1.5l-0.8-1.03c-0.76-1.58-1.8-3.05-2.94-4.33 c-0.24-0.27-0.59-0.72-1.16-0.59c-0.37,0.55-0.24,1.53-0.18,2.19c0.18,2.03,0.5,1.42-0.78,3.85c-0.27,0.52-0.57,1.16-1.19,1.28 c-0.85,0.16-1.49-0.27-1.9-0.63c-0.35-0.31-1.06-0.84-1.51-0.95c-1.22-0.3-3.04,0.45-4,0.81c-1.73,0.65-1.38,0.52-2.96,0.84 c-0.34,0.07-0.65,0.19-0.96,0.24c-0.58,0.08-1.8-0.04-2.35-0.15c-1.57-0.34-2.24-1.07-2.28-2.74c-0.01-0.41,0.01-0.83,0.05-1.24 c0.06-0.49,0.12-0.54,0.26-0.94c0.79-2.2,2.03-4.57,3.79-6.13c1.08-0.96,2.42-1.83,3.92-2.34c0.81-0.27,1.59-1.35-0.43-1.59 c-2.1-0.25-1.62,0.31-3.82-1.12c-0.89-0.58-1.79-0.96-2.76-0.19c-0.73,0.58-1.59,0.85-2.56,1.17c-1.41,0.47-0.61,0.21-1.33,0.57 c-0.65,0.33-1.94,0.3-2.72,0.39c-1.14,0.12-1.15,0.37-1.55,0.9C60.12,119.73,58.78,120.28,57.44,120.53z"></path> <path class="st0" d="M75.86,102.74c0.16,0.7,1.12,1.51,1.11,2.05c-0.3,0.11-0.71,0.15-1.09,0.12c-0.82-0.06-1.24-1.74-1.27-2.46 c-2.34-0.1-0.09,1.95-0.4,2.93c-0.14,0.43-0.67,0.43-1.07,0.58c-0.21,0.73,0.42,1.56,0.77,2.13c0.23,0.38,0.67,1.05,0.75,1.52 c0.04,0.22,0.02,0.28-0.08,0.44c-0.01,0.02-0.05,0.07-0.06,0.08l-0.06,0.08c0.15,1.49,1.89,1.73,3.45,1.7 c2.71-0.05,3.34-1.13,4.33-0.65c0.53,0.25,0.84,0.97,0.76,1.77c-0.04,0.37-0.15,0.66-0.31,0.95c-0.28,0.52-0.4,0.42-0.58,0.75 c-0.22,0.39-0.05,0.75-0.29,0.98c-0.23,0.21-0.67,0.21-0.97,0.36c-0.81,0.39-1.9,1.66-0.51,1.78c0.53,0.05,0.99-0.51,2.89-0.28 c0.09,0.24,0.07,0.34,0.19,0.55c0.52,0.06,0.75-0.18,1.19-0.16c0.66,0.03,0.37,0.45,0.71,0.66c0.49,0.29,1.98-0.46,1.93,0.7 c-0.02,0.55-0.66,1.38,0.75,3.07c0.16,0.19,0.5,0.54,0.63,0.82c1.43,2.95,1.68,3.8,3.58,6.22c0.19,0.24,0.48,0.51,0.94,0.51 c0.19-0.24,0.12-0.47,0.4-0.79c0.33-0.05,0.71-0.03,0.93,0.17c0.07,0.48-0.39,0.73-0.41,1.33c0.22,0.2,0.93,0.52,1.27,0.48 c0.11-0.34-0.06-0.82-0.04-1.22c0.63,0.03,1.94,0.41,2.14-0.27c-0.16-0.37-0.65-0.2-1-0.57c-0.1-0.77,1.19-0.89,1.84-1.01 c1.03-0.2,2.48-0.41,3.34-1.02c0.16-0.11,0.26-0.23,0.36-0.33c0.14-0.16,0.2-0.3,0.34-0.42c0.45-0.41,1.85-0.27,2.44-0.07 c0.01-0.01,0.03-0.05,0.03-0.04c0,0.01,0.02-0.03,0.03-0.04c0.12-0.2,0.08-0.22,0.22-0.35c0.38-0.36,1.31-0.36,1.81-0.36 c-0.01,2.1-0.47,4.09-0.46,6.17c2.46-0.07,3.05-2.41,2.63-3.6c-0.49-1.4-0.23-4.37-1.65-4.93c-1.28-0.51-1.6,0.56-3.16,0.95 c-2.39,0.6-4.43-0.27-6.24,1.34c-2.34,2.08-2.6-0.52-3.38-2.66c-0.68-1.85-2.46-3.59-4.06-4.66c-0.55-0.37-0.91-0.36-1.16-1.05 c-0.25-0.7-0.12-1.54-0.81-2.41c-0.16-0.19-0.5-0.26-0.78-0.36c-1.22-0.43-2.27-1.43-3.11-2.32c-0.74-0.78-0.12-0.73-0.93-2.36 c-0.53-1.08-1.6-1.92-1.94-2.42c-1.29-1.87-2.14-2.06-3.12-3.39c-0.47-0.64-0.51-0.77-0.51-1.73c1.08,0.03,1.81,0.44,1.85,1.53 c0.81,0.06,1.54-0.05,2.28,0.25c0.27,0.11,0.94,0.58,1.15,0.75c0.6,0.47,0.97,1.41,1.42,1.81c0.25,0.23,0.55,0.31,0.95,0.29 c0.48-0.03,0.77-0.07,0.84-0.48c-0.18-0.29-0.4-0.29-0.74-0.41c-0.42-0.15-0.36-0.22-0.57-0.57c-0.32-0.52-1.35-1.61-0.29-1.49 c0.4,0.04,0.99,0.29,1.27,0.33c0.28,0.04,0.66-0.03,0.93-0.08c0.19-0.03,0.25-0.04,0.45-0.06c0.36-0.02,0.32-0.01,0.44-0.12 c-0.79-0.74-5.63-0.89-6.89-1.58c-0.17-0.1-0.36-0.31-0.56-0.45c-0.59-0.43-1.57-1.05-2.37-0.76c-0.49,0.18-0.39,0.47-0.73,0.6 c-0.02,0.01-0.17,0.04-0.2,0.05c-0.58,0.17-0.19,0.68-0.64,1.01C76.52,102.73,76.18,102.73,75.86,102.74z"></path> <path class="st0" d="M61.96,96.62c-0.01,1.46-0.3,1.3-1.5,1.65c-0.32,0.58-0.09,1.02-0.83,1.19c-0.43,0.1-1.31,0.11-1.83,0.19 c-0.01,0.7-0.05,1.86,0.14,2.46c0.2,0.63,0.88,0.26,0.87,0.89c-0.01,0.49-1.43,1.8-0.12,2.34c0.18-0.32,0.23-0.46,0.76-0.47 c0.36-0.01,0.77,0.13,0.89,0.35c0.32,0.58-0.78,0.79-0.99,1.3c-0.23,0.54,0.35,0.72,0.72,0.99c0.16,0.11,0.18,0.15,0.37,0.26 c2.19,1.32,2.49,4.11,4.57,5.04c0.24,0.11,0.69,0.16,0.87,0.33c0.27,0.26,0.04,0.68,0.11,1.04c0.84,0.21,0.54-0.39,1.05-0.7 c0.29-0.06,0.67,0.58,0.88,0.78c0.16,0.15,0.15,0.16,0.38,0.18c1.54-1.45-0.9-4.88-1.72-6.23c-0.81-1.33-0.4-1.31-2.12-2.36 c-1.71-1.04-1.66-1-2.06-2.49c-2.02-0.12-1.2-3.5-1.2-3.51c0.4-0.34,1.08-0.42,1.57-0.66c0.82-0.4,0.9-0.81,1.49-0.72 c0.08,0.62-0.43,1.01-0.41,1.41c0.47,0.26,1.05,0.12,1.48,0.48c0.21,0.18,0.26,0.4,0.19,0.75c-0.03,0.13-0.73,1.22,0.73,0.55 c0.41-0.19,0.46-0.17,0.51-0.67c0.09-0.89,0.63-0.77,1.79-0.71l0.19,0.53c0.4-0.16,0.33-0.6,0.26-0.97 c-0.33-1.56-2.04-1.84-3.46-2c-0.6-0.06-0.28-0.12-0.72-0.65c-0.54-0.64-1.58-0.34-2-0.7c0.02-0.97,4.63-1.12,4.99-2.39 c-1.05-0.03-2.56-0.17-3.21-0.77c-0.01-1.1,1.1-0.61,1.79-0.47c-0.21-0.36-2.61-1.47-3.15-0.99l-0.7,0.82 c-0.54,0.66-1.56,2.09-1.26,3.1C61.4,96.24,61.69,96.35,61.96,96.62z"></path> <path class="st0" d="M67.39,71.34c-0.31-1.58-0.48-2.55-0.09-4.22c1.42-6.2,9.8-8.77,14.41-3.18c0.64,0.77,1.27,1.96,1.56,3.18 c0.17,0.73,0.24,1.4,0.22,2.2c-0.03,1.14-0.28,1.62-0.31,2.05c0.29-0.65,0.52-0.69,0.99-2.05c1.97-5.75-2.3-12.21-8.85-12.22 c-5.43-0.01-9.44,4.4-9.38,9.44C65.95,68.3,66.57,70.25,67.39,71.34z"></path> <path class="st0" d="M66.3,90.87c0.48,1.15,2.85-0.13,3.38,0.83c0.5,0.9,1.3,1.7,2.41,2.02c1.53,0.43,1.15-1.16,2.07-0.62 c0.24,0.14,0.54,0.63,0.21,1c-0.19,0.21-0.41,0.19-0.57,0.89c-0.12,0.53-0.06,1.44,0.28,1.81c0.14,0.15,0.31,0.15,0.57,0.19 c5.2,0.81,0.53-2.74,2.72-2.87c-0.51-1.81,1.73-1.5,2.14-2.02c0.57-0.73,1.29-0.5,1.37-0.12c0.12,0.56-0.75,0.77-0.9,1.25 c0.62,0.4,0.69-0.11,1.58-0.4c0.65-0.22,0.5-1.28,0.32-1.59c-0.78-1.33-0.99-0.6-2.4-0.88c-0.46-0.09-0.64,0.1-1.03,0.02 c-0.07-0.15-0.11-0.33-0.14-0.54c-0.35,0.11-0.52,0.31-0.76,0.5c-0.44,0.35-0.35,0.23-0.89,0.43c-0.06,0.72,0.72,2.33-0.31,2.43 c-0.21-0.06-0.35-0.7-0.42-0.87c-0.19-0.51-0.5-0.23-0.57-0.69c-0.06-0.45,0.78-0.82,0.98-1.49c-0.98-0.16-0.74-0.41-1.15-1.06 c-0.33-0.06-1.01-0.01-1.42-0.04c-1.2-0.09-3.13-0.43-4.05-0.04l-0.02,1.26c-1.49,0.1-0.5-1.06-1.14-1.43 c-0.78-0.45-3.32,0.45-3.81,1.2c-0.24,0.37-0.04,0.72,0.26,0.82C65.31,90.94,65.92,90.87,66.3,90.87z"></path> <path class="st0" d="M81.05,148.82c0.02-0.88-0.02-1.78,0.01-2.64c0.05-1.24,0.65-0.93,1.47-1.26l0.03-0.4l-5.99,0l-0.01,0.42 c1.96,0.26,1.77,0.36,1.77,2.39c0,1.23,0.1,2.11-2.18,1.94c-2.42-0.18-3.03-2.79-3.06-5.29c-0.03-2.54,0.4-5.29,2.52-5.84 c1.78-0.46,3.29,0.85,4.08,2.09c0.28,0.43,0.66,1.29,0.74,1.39l0.39,0.01l0.01-4.09l-0.46-0.01c-0.24,0.75-0.55,0.93-1.39,0.62 c-0.56-0.2-1.08-0.42-1.71-0.56c-3.44-0.74-7.27,1.65-7.28,6.12c-0.01,2.87,1.55,4.71,3.53,5.59 C75.63,150.24,79.22,149.88,81.05,148.82z"></path> <path class="st0" d="M39,126.3c0.04-0.05,0.06-0.1,0.09-0.15c0.13-0.2-0.03-0.06,0.16-0.17c0.42-0.24,0.83,0.08,1.05,0.66 c0.69,1.81-0.18,2.74,1.36,3.7c0.32,0.2,1.53,0.88,1.78,0.23c-0.52-0.4-1.34,0.39-1.45-3.04c-0.02-0.61,0.03-1.52-0.5-1.76 c-1-0.45-0.18-1.03,0.13-1.14c0.99-0.37,1.12,0.5,1.37-0.89c0.12-0.67,1.96-1.33,1.73-2.72c-0.35-2.21,1.78-1.18,2.84-1.24 c1.47-0.09,2.12-2.02,3-0.99c1.95,2.31,1.24,6.09,4.9,6.48c-0.22-0.64-0.64-1.31-0.89-2.02c-0.32-0.93-0.3-1.48-0.47-2.46 c-0.07-0.39-0.43-0.43-0.48-0.96c-0.06-0.67,0.81-1.65,0.93-1.97c0.34-0.84-0.46-1.54-0.84-0.59c-0.17,0.42-0.18,0.38-0.48,0.59 c-0.23,0.15-0.42,0.28-0.63,0.44c-0.21,0.15-0.4,0.29-0.71,0.03c-0.06-0.51,0.61-0.79,0.66-1.29c0.06-0.6,0.05-1.39-0.19-1.83 c-0.47-0.02-0.22,0.09-1.02,0.62c-2.17,1.44-4.31,0.61-6.62,3.43l-1.2,1.33c-0.14,0.15-0.29,0.25-0.42,0.4 c-0.14,0.15-0.23,0.3-0.38,0.45c-1.05,1.11-1.72,2.01-3.19,2.7c-0.37,0.17-2.16,0.49-1.59,1.57C38.1,126,38.52,126.36,39,126.3z"></path> <path class="st0" d="M77.85,122.94l0.88-0.01c0.2-0.43,0.07-0.48,0.55-0.67c0.36-0.14,0.56-0.15,0.85-0.33 c-0.04-0.6-0.94-0.72-1.25-1.25c-0.36-0.62-0.2-1.28-1.06-1.4c-0.55-0.08-0.67-0.09-0.98,0.18c-1.16,1-2.39,1.37-3.71,2.48 c-0.39,0.33-0.83,0.49-1.31,1.15c-0.71,0.97-1.15,2.08-1.71,3.29c-0.11,0.24-1.92,2.06,0.14,3.18c1.14,0.62,2.63,0.33,3.4-0.91 c0.65-1.05,1-2.45,1.98-2.95c0.75-0.39,0.13,0.44,1.19-1.28C77.11,123.94,77.51,123.31,77.85,122.94z"></path> <path class="st0" d="M57.9,149.11l-0.01,0.39l3.67,0.02l0.01-0.41c-0.83-0.15-1.68,0.05-1.48-1.08c0.1-0.61,0.45-1.33,0.65-1.94 l3.81-0.02c1.6,3.37,0.69,2.77-0.59,3.04l0,0.39l5.58,0.02l0.02-0.43c-0.77-0.07-0.98-0.33-1.26-0.88 c-0.46-0.92-2.66-6.38-3.14-7.61l-1.26-3.1l-0.47,0c-0.25,0.36-1,2.46-1.22,3.03c-0.39,1.03-0.81,2.06-1.22,3.08 c-0.37,0.92-1.49,3.89-1.84,4.61C58.76,148.98,58.69,148.85,57.9,149.11z"></path> <path class="st0" d="M83.17,138.14c1.27,0.31,1.48-0.05,1.48,1.97l0,6.95c0,2.1-0.14,1.71-1.47,2.04l-0.01,0.39l5.64,0.01 l0.01-0.41c-1.3-0.26-1.46-0.02-1.46-1.91c0-1.05-0.07-2.39,0.01-3.41c2.41-0.08,2.28,1.91,2.54,2.64l0.43,0.03l0-5.83 l-0.44-0.02c-0.21,1.61-0.74,2.66-2.54,2.58c-0.01-1.04,0-2.09,0-3.13c0-1.58-0.15-1.76,1.48-1.73c2.53,0.04,3.01,0.91,3.44,2.91 l0.38,0l0.02-3.48l-9.49-0.01L83.17,138.14z"></path> <path class="st0" d="M54.89,112.36c0.54,1.56,1.24,3.02,1.71,4.49c0.14,0.43,0.3,1.28,0.46,1.62c0.56,0.01,1.5,0.18,1.94-0.11 c-0.03-0.15-1.08-2.31-0.49-3.21c0.46-0.7,1.46,0.65,3.08,0.55c0.61-0.04,1.12-0.24,1.37-0.59c1.32-1.8-1.62-2.44-3.12-2.1 c-0.6,0.13-0.95,0.32-1.11,0.85c-0.17,0.58-0.6,1.05-0.96,0.34c-0.41-0.82-0.59-2.32-0.72-3.32c-0.04-0.35-0.12-1.54-0.2-1.76 c-0.1-0.29-0.72-0.63-1.2,0.21c-0.36,0.63-0.36,0.81-0.23,1.61c0.15,0.92,0.1,1.12-0.41,1.35L54.89,112.36z"></path> <path class="st0" d="M77.99,97.4c-0.37,0.11-0.63,0.27-1.15,0.37c-1.1,0.2-3.33,0.38-4.23-0.09c-0.12-1.36,0.64-2.08-0.66-2.16 c-0.29-0.02-0.65-0.03-0.94-0.02c-0.43,0.01-0.61,0.33-0.97,0.85c-0.23,0.32-0.54,0.8-0.53,1.29c0.01,0.5,0.46,0.88,0.94,0.94 c0-0.39-0.03-0.75,0.16-1.05c0.79-0.14,0.55,0.82,1.09,1.46c0.6,0.71,2.59,1.46,3.61,1.58c1.61,0.18,0.92-0.48,1.33-1.24 c0.32-0.59,1.42-0.32,2.17-0.31c0.95,0.02,1.42-0.21,1.51-1.06c0.12-1.15-0.72-1.66-1.57-2.35c-0.34-0.28-0.31-0.32-0.87-0.42 C77.9,95.94,78.01,96.6,77.99,97.4z"></path> <path class="st3" d="M74.55,45.11l-1.88-0.78l0.77,1.84l-1.85,0.77l1.84,0.76l-0.77,1.86l1.83-0.76c0.22,0.23,0.58,1.46,0.8,1.85 l0.73-1.84l1.86,0.76L77.1,47.7l1.88-0.73c-0.48-0.24-1.52-0.53-1.84-0.79l0.76-1.82l-1.83,0.76l-0.13-0.21 c-0.04-0.09-0.05-0.13-0.09-0.23l-0.55-1.41C75.11,43.49,74.65,44.75,74.55,45.11z"></path> <path class="st3" d="M74.55,158.01l-1.87-0.78l0.76,1.84c-0.52,0.31-1.41,0.5-1.84,0.78l1.83,0.74l-0.77,1.85l1.82-0.75 c0.19,0.2,0.63,1.48,0.79,1.85c0.17-0.36,0.62-1.67,0.79-1.85l1.81,0.77c-0.07-0.49-0.69-1.37-0.73-1.87l1.81-0.73 c-0.47-0.28-1.43-0.5-1.82-0.78l0.76-1.83l-1.83,0.76c-0.24-0.28-0.61-1.42-0.77-1.85C75.13,156.36,74.65,157.68,74.55,158.01z"></path> <path class="st0" d="M74.96,71.74c-0.51-0.08-1.06-0.53-1.56-0.66l0.16,1.65c-0.45,0.25-1.27,0.38-1.59,0.63 c0.2,0.23,0.96,0.75,1.24,0.96l-0.78,1.55l1.69-0.25l0.46,1.59c0.21-0.19,0.93-1.13,1.04-1.34c0.52,0.09,1.03,0.53,1.55,0.66 l-0.14-1.68l1.62-0.56c-0.29-0.28-1.08-0.75-1.26-1.04l0.77-1.5l-1.69,0.25l-0.46-1.59C75.76,70.63,75.1,71.47,74.96,71.74z"></path> <path class="st0" d="M77.84,86.07c0.08,1.25,1.39,0.89,2.03,1.82c0.36,0.52,0.8,0.34,1.04,1.29c1.08,0.12,0.82,0.19,1.26,0.45 c0.11,0.06,0.28,0.11,0.4,0.17c0.74,0.39,0.35,1.76,1.15,1.68c0.32-0.03,0.26-0.97,0.26-1.43c0-0.92-0.06-3.21-1.02-3.61 c-0.58-0.24-1.43-1.24-3.47-1.03c-0.32,0.03-0.64,0.1-0.91,0.21C78.11,85.82,78.12,85.89,77.84,86.07z"></path> <path class="st0" d="M67.22,105.19c0.35,0.02,0.62-0.09,0.9,0.07c0.33,0.26,0.01,0.47,0.09,0.93c0.09,0.53,0.1,0.58,0.1,1.15 c0.89-0.24,1.64-1.04,1.9-1.91c0.38-1.27-0.22-2.19-1.46-2.21c-0.05,0.78-0.08,1.33-1,0.96c-0.3-0.12-0.72-0.28-0.73,0.15 C67.03,104.38,67.19,105.12,67.22,105.19z"></path> <path class="st2" d="M61.03,145.39l3.26,0.02c-0.11-0.43-1.51-3.9-1.67-4.1L61.03,145.39z"></path> <path class="st5" d="M82.58,109.08c-0.26-0.2-0.66-0.16-1.01-0.18c-0.45-0.02-0.71-0.15-1.14-0.15c-0.31,0-0.83,0.03-1.09,0.12 c-0.22,0.08-0.57,0.44-0.4,0.79c0.23,0.45,1.55,0.41,2.11,0.36c0.25-0.02,0.82-0.08,1.03-0.18 C82.29,109.76,82.62,109.4,82.58,109.08z"></path> <path class="st0" d="M72.73,111.69c-0.08-0.36-0.21-0.66-0.42-0.88c-0.37-0.41-0.31-0.1-0.71-0.62 c-0.25-0.32-0.88-1.27-1.32-1.26c-0.37,0.39-0.12,1.37,0.44,1.95C71.15,111.32,71.95,111.6,72.73,111.69z"></path> <path class="st0" d="M82.64,130.7c0.38,0.21,0.61,0.32,1.01,0c0.19-0.15,0.46-0.58,0.6-0.85c0.5-0.96,0.49-1.15,0.13-2.22 c-0.06,0.36-0.1,0.68-0.25,0.97C83.62,129.59,82.47,128.57,82.64,130.7z"></path> <path class="st0" d="M75.31,129.31c0.65,0.26,1.66-0.55,2.15-0.95c0.26-0.21,0.46-0.23,0.44-0.71c-0.66-0.07-1.71,0.64-2.25,0.99 C75.36,128.83,75.14,128.88,75.31,129.31z"></path> <path class="st0" d="M79.95,123.67c-0.2,0.07-0.33,0.15-0.46,0.26c-0.36,0.32-0.99,1.17-0.19,1.21 C80.19,125.19,80.58,123.45,79.95,123.67z"></path> <g> <path class="st3" d="M49.12,149.72l0.88,0.42l-0.09,1.08l1.61,0.78l0.77-0.76l0.86,0.41l-3.5,3.28l-0.86-0.41L49.12,149.72 L49.12,149.72z M49.84,152.03l-0.16,1.76l1.26-1.23L49.84,152.03L49.84,152.03z M49.03,149.61l-3.11-1.88l-0.39,0.65l2.17,1.31 l-3.65,1.31l-0.36,0.6l2.8,1.69l0.39-0.65l-1.78-1.08l3.51-1.27L49.03,149.61L49.03,149.61z M45.46,147.46l-2.49,3.71 l-2.74-1.84l0.42-0.63l1.99,1.34l0.55-0.82l-1.85-1.24l0.42-0.63l1.85,1.24l0.67-1l-2.07-1.39l0.42-0.63L45.46,147.46 L45.46,147.46z M42.03,145.03l-0.7-0.57l-1.18,1.44l-0.14-0.12c-0.16-0.13-0.27-0.24-0.32-0.33c-0.05-0.09-0.08-0.19-0.09-0.32 c-0.01-0.12,0.01-0.39,0.05-0.81l0.12-1.16l-0.83-0.68l-0.13,1.02c-0.05,0.4-0.08,0.7-0.06,0.89c0.01,0.19,0.06,0.38,0.13,0.59 c-0.34-0.2-0.65-0.28-0.94-0.24c-0.29,0.04-0.54,0.2-0.75,0.46c-0.17,0.2-0.26,0.43-0.3,0.67c-0.03,0.24,0.01,0.46,0.13,0.66 c0.12,0.2,0.36,0.45,0.73,0.75l1.47,1.2L42.03,145.03L42.03,145.03z M39.7,146.45l-0.72,0.88l-0.54-0.45 c-0.28-0.23-0.45-0.37-0.5-0.43c-0.1-0.11-0.15-0.23-0.15-0.35c0-0.12,0.04-0.24,0.14-0.36c0.08-0.1,0.18-0.17,0.28-0.2 c0.1-0.03,0.21-0.03,0.32,0.01c0.11,0.04,0.33,0.2,0.66,0.47L39.7,146.45L39.7,146.45z M35.43,145.32l-1.27-1.26 c-0.25-0.25-0.43-0.45-0.53-0.59c-0.1-0.14-0.17-0.3-0.2-0.46c-0.03-0.16-0.03-0.33,0.02-0.51c0.04-0.17,0.13-0.33,0.27-0.47 c0.15-0.15,0.32-0.24,0.52-0.29c0.2-0.04,0.4-0.03,0.6,0.04c-0.14-0.25-0.19-0.49-0.16-0.73c0.03-0.24,0.14-0.45,0.32-0.63 c0.14-0.14,0.32-0.25,0.52-0.32c0.2-0.07,0.4-0.09,0.6-0.05c0.2,0.03,0.39,0.13,0.58,0.28c0.12,0.09,0.38,0.34,0.79,0.74 l1.08,1.07L35.43,145.32L35.43,145.32z M35.31,144.16l0.73-0.73l-0.42-0.42c-0.25-0.25-0.41-0.4-0.47-0.45 c-0.12-0.1-0.25-0.14-0.37-0.14c-0.12,0-0.24,0.05-0.34,0.15c-0.1,0.1-0.15,0.2-0.16,0.32c-0.01,0.11,0.04,0.23,0.13,0.35 c0.06,0.07,0.23,0.25,0.53,0.55L35.31,144.16L35.31,144.16z M36.56,142.9l-0.52-0.51c-0.29-0.29-0.47-0.49-0.52-0.61 c-0.06-0.12-0.08-0.23-0.06-0.34c0.02-0.11,0.08-0.22,0.17-0.31c0.11-0.11,0.23-0.17,0.36-0.18c0.13-0.01,0.25,0.03,0.36,0.1 c0.07,0.05,0.23,0.19,0.46,0.42l0.59,0.59L36.56,142.9L36.56,142.9z M32.78,135.91l-2.29,4.23l0.61,0.74l4.54-1.52l-0.61-0.74 l-1.02,0.36l-1.14-1.38l0.54-0.95L32.78,135.91L32.78,135.91z M32.47,138.32l0.78,0.94l-1.66,0.59L32.47,138.32L32.47,138.32z M32.52,135.54l-3.57,2.68l-0.54-0.72l3.57-2.68L32.52,135.54L32.52,135.54z M26.86,135.31l2.39-1.62c0.3-0.2,0.52-0.3,0.66-0.3 c0.14,0,0.27,0.09,0.38,0.25c0.11,0.16,0.13,0.33,0.05,0.5c-0.05,0.11-0.18,0.24-0.38,0.39l0.56,0.65 c0.39-0.27,0.63-0.57,0.7-0.91c0.07-0.33-0.02-0.68-0.26-1.05c-0.21-0.31-0.45-0.52-0.7-0.62c-0.26-0.1-0.52-0.11-0.79-0.04 c-0.2,0.06-0.46,0.19-0.76,0.4l-2.34,1.59L26.86,135.31L26.86,135.31z M27.44,127.84l0.51,0.83l-0.67,0.86l0.93,1.53l1.06-0.21 l0.5,0.82l-4.72,0.84l-0.5-0.82L27.44,127.84L27.44,127.84z M26.78,130.17l-1.09,1.39l1.72-0.34L26.78,130.17L26.78,130.17z M27.28,127.33l-0.36-0.75l-2.64,1.27l1.86-2.9l-0.39-0.81l-4.02,1.94l0.36,0.75l2.7-1.3l-1.9,2.95l0.38,0.79L27.28,127.33 L27.28,127.33z M24.58,121.06l-3.96,2.32l-0.27-0.89l2.74-1.54l-3.17,0.13l-0.32-1.03l2.75-1.66l-3.18,0.27l-0.27-0.87 l4.58-0.29l0.28,0.92l-2.93,1.83l3.45-0.14L24.58,121.06L24.58,121.06z M23,116.02l-4.38,0.88l-0.37-1.86 c-0.09-0.47-0.12-0.82-0.09-1.04c0.04-0.23,0.14-0.43,0.32-0.59c0.18-0.17,0.39-0.28,0.65-0.33c0.33-0.07,0.62-0.02,0.87,0.12 c0.25,0.15,0.45,0.41,0.58,0.78c0.07-0.21,0.16-0.39,0.27-0.54c0.11-0.15,0.31-0.37,0.61-0.64l0.75-0.71l0.21,1.06l-0.83,0.83 c-0.29,0.3-0.48,0.49-0.55,0.6c-0.07,0.1-0.11,0.2-0.13,0.3c-0.01,0.1,0,0.25,0.04,0.46L21,115.5l1.83-0.37L23,116.02L23,116.02 z M20.3,115.64l-0.13-0.65c-0.09-0.42-0.16-0.68-0.21-0.78c-0.06-0.1-0.14-0.17-0.24-0.21c-0.1-0.04-0.22-0.05-0.35-0.02 c-0.15,0.03-0.26,0.09-0.33,0.19c-0.08,0.1-0.11,0.22-0.1,0.37c0,0.07,0.04,0.29,0.11,0.65l0.14,0.69L20.3,115.64L20.3,115.64z M22.18,111.59l-0.5-3.36l-0.75,0.11l0.37,2.46l-1.2,0.18l-0.33-2.21l-0.75,0.11l0.33,2.21l-0.98,0.15l-0.35-2.37l-0.75,0.11 l0.49,3.27L22.18,111.59L22.18,111.59z M20.21,107.82l-0.13-0.87c0.29-0.07,0.5-0.18,0.63-0.35c0.13-0.17,0.19-0.39,0.18-0.66 c-0.01-0.29-0.09-0.5-0.21-0.64c-0.13-0.14-0.28-0.21-0.44-0.2c-0.11,0-0.19,0.04-0.27,0.11c-0.07,0.06-0.13,0.18-0.18,0.33 c-0.03,0.11-0.09,0.35-0.16,0.73c-0.1,0.49-0.23,0.83-0.4,1.03c-0.23,0.28-0.53,0.43-0.88,0.45c-0.23,0.01-0.44-0.04-0.65-0.16 c-0.2-0.12-0.36-0.3-0.48-0.53c-0.12-0.24-0.18-0.53-0.2-0.87c-0.03-0.56,0.08-0.98,0.31-1.28c0.23-0.29,0.56-0.46,0.97-0.49 l0.07,0.9c-0.23,0.05-0.39,0.14-0.48,0.27c-0.09,0.13-0.14,0.32-0.13,0.57c0.01,0.26,0.08,0.46,0.19,0.6 c0.07,0.09,0.17,0.13,0.29,0.13c0.11,0,0.19-0.05,0.26-0.15c0.09-0.12,0.18-0.4,0.26-0.84c0.08-0.44,0.18-0.77,0.28-0.98 c0.1-0.21,0.24-0.39,0.43-0.51c0.19-0.13,0.42-0.2,0.7-0.21c0.26-0.01,0.5,0.05,0.73,0.18c0.23,0.13,0.41,0.32,0.53,0.58 c0.12,0.25,0.19,0.58,0.21,0.96c0.03,0.56-0.08,1-0.33,1.32C21.07,107.54,20.7,107.74,20.21,107.82L20.21,107.82z M21.51,102.32 l-3.71-0.01l-0.01,1.32l-0.75,0l0.01-3.54l0.75,0l-0.01,1.32l3.71,0.01L21.51,102.32L21.51,102.32z M21.6,99.52l-4.4-0.46 l0.09-0.9l3.65,0.38l0.23-2.23l0.75,0.08L21.6,99.52L21.6,99.52z M22.03,95.76l-4.41-0.69l0.14-0.89l4.41,0.69L22.03,95.76 L22.03,95.76z M22.27,94.01l-4.37-0.9l0.18-0.86l3.3-1.19l-2.93-0.61l0.17-0.82l4.37,0.9l-0.18,0.88l-3.24,1.18l2.87,0.59 L22.27,94.01L22.27,94.01z M22.28,87.17l-0.72-0.22l0.58-1.85l1.7,0.53c0.12,0.23,0.19,0.54,0.22,0.93 c0.03,0.38-0.01,0.75-0.12,1.1c-0.14,0.45-0.35,0.8-0.64,1.08c-0.29,0.27-0.64,0.44-1.04,0.5c-0.4,0.06-0.81,0.02-1.22-0.1 c-0.44-0.14-0.81-0.35-1.1-0.65c-0.29-0.29-0.47-0.65-0.54-1.06c-0.06-0.32-0.02-0.68,0.11-1.09c0.16-0.53,0.4-0.91,0.72-1.14 c0.32-0.23,0.68-0.32,1.1-0.29l-0.11,0.91c-0.23-0.01-0.43,0.06-0.6,0.18c-0.17,0.13-0.3,0.31-0.37,0.56 c-0.12,0.38-0.09,0.71,0.08,1.01c0.17,0.3,0.49,0.52,0.96,0.66c0.51,0.16,0.92,0.16,1.25,0.02c0.32-0.15,0.54-0.4,0.66-0.76 c0.06-0.18,0.08-0.37,0.06-0.57c-0.01-0.2-0.05-0.39-0.11-0.55l-0.54-0.17L22.28,87.17L22.28,87.17z M25.37,83.42l-4.11-1.74 l1.19-2.83l0.7,0.29l-0.84,1.99l0.98,0.41L24,79.84l0.7,0.29l-0.73,1.72l1.75,0.74L25.37,83.42L25.37,83.42z M26.93,79.93 l1.61-2.98l-0.66-0.36l-1.18,2.19l-1.06-0.58l1.06-1.96l-0.66-0.36l-1.06,1.96l-0.87-0.47l1.14-2.11l-0.66-0.36L23,77.8 L26.93,79.93L26.93,79.93z M25.17,73.77l0.92-1.37c0.21-0.31,0.39-0.53,0.54-0.66c0.21-0.17,0.45-0.28,0.72-0.33 c0.27-0.05,0.55-0.03,0.84,0.05c0.29,0.08,0.61,0.23,0.96,0.47c0.31,0.21,0.54,0.42,0.71,0.64c0.21,0.27,0.34,0.55,0.39,0.84 c0.04,0.21,0.02,0.46-0.06,0.72c-0.06,0.2-0.18,0.44-0.37,0.71l-0.94,1.41L25.17,73.77L25.17,73.77z M26.3,73.44l0.22-0.33 c0.2-0.3,0.35-0.5,0.45-0.59c0.12-0.12,0.26-0.19,0.41-0.23c0.15-0.03,0.31-0.02,0.5,0.03c0.19,0.05,0.42,0.17,0.71,0.37 c0.29,0.19,0.5,0.37,0.63,0.53c0.13,0.16,0.21,0.31,0.23,0.43c0.02,0.13,0,0.26-0.05,0.4c-0.04,0.11-0.13,0.27-0.27,0.47 l-0.37,0.56L26.3,73.44L26.3,73.44z M31.4,72.5l2.02-2.72l-0.61-0.45l-1.48,2l-0.97-0.72l1.33-1.79l-0.61-0.45l-1.33,1.79 l-0.8-0.59l1.43-1.93l-0.61-0.45l-1.97,2.65L31.4,72.5L31.4,72.5z M33.96,69.2l-3.31-2.99l1.27-1.41 c0.32-0.35,0.58-0.58,0.79-0.69c0.2-0.11,0.43-0.14,0.67-0.1c0.24,0.04,0.46,0.15,0.65,0.33c0.25,0.22,0.39,0.48,0.42,0.77 c0.03,0.29-0.06,0.6-0.28,0.93c0.21-0.07,0.41-0.1,0.6-0.11c0.19,0,0.48,0.03,0.88,0.11l1.01,0.18l-0.72,0.8l-1.16-0.17 c-0.41-0.06-0.68-0.09-0.81-0.08c-0.12,0-0.23,0.03-0.32,0.08c-0.09,0.05-0.2,0.15-0.34,0.31l-0.12,0.14l1.38,1.25L33.96,69.2 L33.96,69.2z M32.65,66.81l0.45-0.5c0.29-0.32,0.46-0.53,0.5-0.64c0.04-0.1,0.05-0.21,0.03-0.31c-0.03-0.11-0.09-0.2-0.19-0.29 c-0.11-0.1-0.23-0.15-0.35-0.15c-0.12,0-0.24,0.04-0.36,0.13c-0.06,0.05-0.21,0.21-0.45,0.48l-0.47,0.52L32.65,66.81 L32.65,66.81z M39.94,63.14l-4.33-2.09l-0.7,0.64l1.73,4.47l0.71-0.65l-0.41-1l1.32-1.21l0.97,0.49L39.94,63.14L39.94,63.14z M37.53,62.94l-0.9,0.83l-0.67-1.63L37.53,62.94L37.53,62.94z M40.75,62.53l-2.37-2.86l-1.02,0.84l-0.48-0.58l2.73-2.26 l0.48,0.58l-1.01,0.84l2.37,2.86L40.75,62.53L40.75,62.53z M42.94,60.83l0.72-0.54l-2.68-3.57l-0.72,0.54L42.94,60.83 L42.94,60.83z M43.04,57.95c-0.24-0.39-0.38-0.75-0.42-1.09c-0.03-0.25-0.02-0.49,0.04-0.74c0.06-0.25,0.15-0.46,0.28-0.64 c0.18-0.25,0.42-0.46,0.73-0.65c0.56-0.34,1.12-0.44,1.67-0.3c0.55,0.14,1.01,0.53,1.39,1.15c0.38,0.62,0.5,1.2,0.38,1.75 c-0.12,0.55-0.46,1-1.02,1.34c-0.57,0.35-1.12,0.45-1.67,0.3C43.87,58.94,43.42,58.56,43.04,57.95L43.04,57.95z M43.82,57.44 c-0.27-0.44-0.37-0.83-0.31-1.16c0.06-0.34,0.25-0.6,0.57-0.79c0.32-0.19,0.64-0.24,0.96-0.14c0.32,0.1,0.62,0.37,0.88,0.8 c0.27,0.44,0.37,0.83,0.31,1.18c-0.06,0.34-0.25,0.61-0.56,0.79c-0.31,0.19-0.63,0.23-0.96,0.13 C44.39,58.14,44.09,57.88,43.82,57.44L43.82,57.44z M48.5,57.24l0.73-0.4l-1.4-2.58l2.99,1.71l0.79-0.43l-2.13-3.92l-0.73,0.4 l1.43,2.63l-3.04-1.75l-0.77,0.42L48.5,57.24z"></path> <path class="st3" d="M105.83,59.2l-0.84-0.49l0.17-1.07l-1.55-0.89l-0.83,0.7l-0.83-0.48l3.73-3.01l0.83,0.48L105.83,59.2 L105.83,59.2z M105.28,56.84l0.29-1.74l-1.35,1.13L105.28,56.84L105.28,56.84z M105.88,59.25l2.96,2.1l0.44-0.62l-2.07-1.47 l3.74-1.04l0.4-0.57l-2.66-1.89l-0.44,0.62l1.7,1.21l-3.6,1L105.88,59.25L105.88,59.25z M113.7,62.53 c-0.61,0.71-1.29,1.01-2.04,0.89c-0.35-0.05-0.68-0.22-0.99-0.49c-0.35-0.31-0.56-0.65-0.63-1.03c-0.12-0.71,0.09-1.37,0.63-2 c0.06-0.07,0.15-0.16,0.28-0.28l2.28,1.98c0.19-0.28,0.29-0.55,0.3-0.82c0-0.3-0.12-0.56-0.36-0.77 c-0.37-0.32-0.77-0.34-1.2-0.07l-0.54-0.74c0.36-0.26,0.74-0.37,1.15-0.32c0.38,0.05,0.74,0.22,1.09,0.52 c0.5,0.44,0.75,0.95,0.73,1.53C114.38,61.48,114.14,62.01,113.7,62.53L113.7,62.53z M112.74,62.17 c-0.31,0.27-0.59,0.42-0.85,0.43c-0.26,0.02-0.5-0.07-0.72-0.26c-0.19-0.17-0.3-0.39-0.32-0.65c-0.02-0.27,0.08-0.57,0.3-0.9 L112.74,62.17L112.74,62.17z M112.75,64.64l0.65,0.62l1.29-1.35l0.13,0.13c0.15,0.14,0.25,0.26,0.3,0.35 c0.05,0.09,0.07,0.2,0.07,0.32c0,0.13-0.04,0.39-0.11,0.8l-0.2,1.15l0.78,0.74l0.21-1.01c0.08-0.4,0.13-0.69,0.13-0.88 c0-0.19-0.03-0.39-0.09-0.6c0.32,0.23,0.63,0.33,0.92,0.31c0.29-0.02,0.55-0.16,0.79-0.4c0.18-0.19,0.3-0.41,0.34-0.64 c0.05-0.24,0.02-0.46-0.08-0.67c-0.1-0.21-0.32-0.48-0.67-0.81l-1.37-1.31L112.75,64.64L112.75,64.64z M115.18,63.4l0.78-0.82 l0.51,0.49c0.26,0.25,0.42,0.41,0.47,0.47c0.09,0.12,0.13,0.24,0.12,0.36c-0.01,0.12-0.06,0.24-0.16,0.35 c-0.09,0.1-0.19,0.16-0.3,0.18c-0.11,0.02-0.21,0.01-0.31-0.04c-0.1-0.05-0.31-0.22-0.62-0.52L115.18,63.4L115.18,63.4z M119.35,64.92l1.17,1.35c0.23,0.27,0.39,0.48,0.48,0.63c0.09,0.15,0.15,0.31,0.17,0.47c0.02,0.17,0,0.33-0.06,0.5 c-0.06,0.17-0.16,0.32-0.3,0.45c-0.16,0.14-0.34,0.22-0.54,0.25c-0.21,0.03-0.4,0-0.6-0.09c0.12,0.26,0.15,0.5,0.1,0.74 c-0.05,0.24-0.17,0.44-0.37,0.61c-0.15,0.13-0.33,0.23-0.54,0.28c-0.21,0.05-0.41,0.06-0.6,0.01c-0.19-0.05-0.38-0.15-0.56-0.32 c-0.11-0.1-0.36-0.37-0.73-0.8l-1-1.15L119.35,64.92L119.35,64.92z M119.38,66.09l-0.78,0.67l0.39,0.45 c0.23,0.26,0.38,0.43,0.44,0.48c0.11,0.1,0.23,0.16,0.36,0.17c0.12,0.01,0.24-0.03,0.35-0.13c0.1-0.09,0.16-0.19,0.18-0.31 c0.02-0.11-0.02-0.23-0.1-0.36c-0.05-0.07-0.21-0.27-0.49-0.59L119.38,66.09L119.38,66.09z M118.04,67.25l0.48,0.55 c0.27,0.31,0.43,0.53,0.48,0.65c0.05,0.12,0.06,0.24,0.03,0.35c-0.03,0.11-0.09,0.21-0.19,0.3c-0.12,0.1-0.24,0.15-0.37,0.15 c-0.13,0-0.24-0.05-0.35-0.13c-0.07-0.05-0.21-0.2-0.43-0.45l-0.55-0.63L118.04,67.25L118.04,67.25z M121.22,74.52l2.6-4.05 l-0.55-0.78l-4.64,1.17l0.55,0.78l1.04-0.29l1.04,1.46l-0.61,0.9L121.22,74.52L121.22,74.52z M121.7,72.15l-0.71-1l1.7-0.47 L121.7,72.15L121.7,72.15z M121.81,75.42l1.58-1.01l1.29-2.77l0.57,0.89l-0.92,1.84l2.04-0.09l0.56,0.87l-3.07,0.02l-1.58,1.01 L121.81,75.42L121.81,75.42z M126.07,79.8l0.16,0.9c-0.5,0.1-0.93,0.07-1.28-0.1c-0.35-0.17-0.64-0.47-0.86-0.89 c-0.27-0.53-0.31-1.05-0.13-1.58c0.19-0.52,0.59-0.95,1.22-1.27c0.66-0.34,1.26-0.43,1.8-0.28c0.54,0.15,0.95,0.51,1.24,1.07 c0.25,0.49,0.31,0.96,0.17,1.41c-0.08,0.27-0.25,0.53-0.53,0.78l-0.6-0.7c0.18-0.15,0.29-0.33,0.34-0.54 c0.04-0.21,0.01-0.42-0.1-0.64c-0.15-0.3-0.38-0.48-0.68-0.56c-0.31-0.08-0.69,0.01-1.17,0.25c-0.5,0.26-0.81,0.53-0.93,0.82 c-0.12,0.29-0.11,0.58,0.04,0.87c0.11,0.21,0.27,0.36,0.49,0.45C125.48,79.89,125.75,79.89,126.07,79.8L126.07,79.8z M126.81,85.76l-0.36-0.91l0.8-0.73l-0.66-1.67l-1.08,0.03l-0.35-0.89l4.79-0.02l0.35,0.89L126.81,85.76L126.81,85.76z M127.85,83.58l1.31-1.18l-1.76,0.05L127.85,83.58L127.85,83.58z M127.05,86.22l0.23,0.8l2.82-0.8l-2.33,2.54l0.25,0.87 l4.3-1.22l-0.23-0.8l-2.88,0.82l2.38-2.59L131.35,85L127.05,86.22L127.05,86.22z M130.67,93.97l0.74-0.13l0.34,1.91L130,96.06 c-0.21-0.15-0.42-0.39-0.62-0.72c-0.2-0.33-0.33-0.67-0.4-1.03c-0.08-0.46-0.06-0.88,0.07-1.25c0.13-0.38,0.36-0.68,0.69-0.92 c0.33-0.24,0.71-0.39,1.13-0.47c0.46-0.08,0.88-0.06,1.27,0.07c0.39,0.13,0.71,0.36,0.97,0.7c0.2,0.26,0.33,0.59,0.41,1.01 c0.1,0.55,0.06,0.99-0.12,1.34c-0.18,0.35-0.46,0.6-0.85,0.76l-0.32-0.85c0.21-0.1,0.35-0.25,0.45-0.44 c0.09-0.19,0.12-0.42,0.07-0.67c-0.07-0.39-0.25-0.67-0.53-0.86c-0.29-0.18-0.67-0.23-1.16-0.15c-0.52,0.09-0.89,0.28-1.11,0.56 c-0.22,0.28-0.3,0.61-0.23,0.98c0.03,0.19,0.1,0.36,0.21,0.54c0.11,0.17,0.22,0.32,0.35,0.43l0.56-0.1L130.67,93.97 L130.67,93.97z M133.96,96.68l0.07,0.9l-2.41,0.18c-0.38,0.03-0.63,0.06-0.74,0.09c-0.18,0.05-0.32,0.15-0.42,0.3 c-0.1,0.15-0.14,0.35-0.12,0.6c0.02,0.25,0.09,0.44,0.2,0.56c0.11,0.12,0.25,0.19,0.4,0.2c0.15,0.01,0.41,0.01,0.76-0.02 l2.46-0.19l0.07,0.9l-2.34,0.18c-0.53,0.04-0.91,0.05-1.14,0.01c-0.22-0.03-0.42-0.11-0.58-0.23c-0.16-0.12-0.3-0.28-0.4-0.49 c-0.11-0.21-0.17-0.49-0.2-0.84c-0.03-0.42-0.01-0.75,0.07-0.98c0.08-0.23,0.2-0.41,0.34-0.55c0.15-0.14,0.31-0.23,0.48-0.29 c0.25-0.08,0.63-0.14,1.12-0.17L133.96,96.68L133.96,96.68z M134.42,97.44l0.73-0.06l0.06,0.73l-0.73,0.06L134.42,97.44 L134.42,97.44z M134.52,98.75l0.73-0.06l0.06,0.73l-0.73,0.06L134.52,98.75L134.52,98.75z M129.81,101.54l4.43-0.11l0.02,0.9 l-3.67,0.09l0.06,2.24l-0.75,0.02L129.81,101.54L129.81,101.54z M131.8,109.29c-0.93-0.07-1.58-0.44-1.93-1.1 c-0.16-0.31-0.23-0.67-0.2-1.09c0.04-0.47,0.19-0.84,0.45-1.12c0.5-0.52,1.16-0.75,1.98-0.68c0.09,0.01,0.22,0.03,0.39,0.06 l-0.23,3.01c0.34-0.01,0.62-0.09,0.83-0.25c0.25-0.18,0.38-0.43,0.4-0.75c0.04-0.49-0.18-0.82-0.66-1.01l0.27-0.87 c0.42,0.13,0.74,0.38,0.94,0.73c0.19,0.33,0.27,0.73,0.23,1.18c-0.05,0.66-0.32,1.16-0.8,1.5 C133.05,109.22,132.49,109.35,131.8,109.29L131.8,109.29z M131.52,108.32l0.16-2.1c-0.4,0.02-0.7,0.12-0.9,0.29 c-0.2,0.17-0.31,0.39-0.33,0.65c-0.02,0.29,0.05,0.53,0.22,0.73C130.84,108.09,131.12,108.23,131.52,108.32L131.52,108.32z M130.94,109.75l-0.02,0.88c-0.3,0.02-0.53,0.09-0.68,0.24c-0.16,0.14-0.25,0.35-0.29,0.62c-0.04,0.29,0,0.51,0.1,0.67 c0.1,0.16,0.24,0.25,0.4,0.27c0.11,0.01,0.2-0.01,0.28-0.06c0.08-0.05,0.16-0.15,0.23-0.3c0.05-0.1,0.14-0.33,0.28-0.69 c0.18-0.46,0.37-0.78,0.57-0.95c0.28-0.24,0.59-0.34,0.95-0.29c0.23,0.03,0.43,0.12,0.61,0.27c0.18,0.15,0.31,0.36,0.38,0.61 c0.07,0.25,0.09,0.55,0.04,0.89c-0.07,0.55-0.25,0.96-0.53,1.2c-0.28,0.25-0.63,0.35-1.04,0.32l0.08-0.9 c0.23-0.01,0.41-0.07,0.52-0.18c0.12-0.11,0.19-0.29,0.22-0.54c0.03-0.26,0-0.47-0.08-0.63c-0.06-0.1-0.14-0.16-0.26-0.18 c-0.11-0.01-0.2,0.02-0.29,0.1c-0.11,0.1-0.24,0.36-0.4,0.78c-0.16,0.42-0.31,0.73-0.44,0.92c-0.14,0.19-0.31,0.34-0.51,0.43 c-0.21,0.09-0.45,0.12-0.73,0.09c-0.25-0.03-0.48-0.13-0.69-0.3c-0.2-0.17-0.34-0.39-0.42-0.66c-0.08-0.27-0.09-0.6-0.04-0.98 c0.07-0.56,0.25-0.97,0.55-1.24C130.03,109.88,130.43,109.75,130.94,109.75L130.94,109.75z M128.2,110.37 c-0.05,0.13-0.09,0.32-0.12,0.58c-0.05,0.36-0.01,0.66,0.12,0.87c0.09,0.16,0.23,0.25,0.41,0.27c0.16,0.02,0.3-0.03,0.43-0.15 c0.13-0.12,0.21-0.3,0.24-0.55c0.02-0.18,0.02-0.35-0.02-0.52l-0.29-0.12c0.02,0.14,0.03,0.28,0.01,0.41 c-0.02,0.13-0.05,0.22-0.11,0.28c-0.06,0.06-0.12,0.08-0.19,0.07c-0.08-0.01-0.13-0.05-0.17-0.12 c-0.05-0.09-0.07-0.23-0.05-0.41c0.02-0.17,0.06-0.36,0.11-0.57L128.2,110.37L128.2,110.37z M128.5,115.65l4.3,1.22l-0.84,2.95 l-0.73-0.21l0.59-2.08l-1.02-0.29l-0.51,1.8l-0.73-0.21l0.51-1.8l-1.82-0.52L128.5,115.65L128.5,115.65z M127.48,119.32 l-1.09,3.21l0.71,0.24l0.8-2.36l1.15,0.39l-0.72,2.11l0.71,0.24l0.72-2.11l0.94,0.32l-0.77,2.27l0.71,0.24l1.06-3.13 L127.48,119.32L127.48,119.32z M130.18,125.08l-0.68,1.5c-0.15,0.34-0.3,0.58-0.43,0.74c-0.18,0.21-0.4,0.35-0.65,0.44 c-0.26,0.09-0.53,0.12-0.83,0.09c-0.3-0.03-0.64-0.13-1.02-0.3c-0.34-0.15-0.6-0.32-0.81-0.52c-0.25-0.24-0.42-0.49-0.52-0.76 c-0.08-0.21-0.1-0.45-0.06-0.72c0.02-0.21,0.1-0.46,0.24-0.76l0.7-1.54L130.18,125.08L130.18,125.08z M129.12,125.59l-2.69-1.22 l-0.28,0.61c-0.1,0.23-0.16,0.4-0.18,0.51c-0.03,0.15-0.02,0.28,0.02,0.41c0.04,0.12,0.14,0.25,0.3,0.39 c0.16,0.14,0.39,0.28,0.71,0.42c0.31,0.14,0.57,0.22,0.76,0.24c0.19,0.02,0.36,0,0.5-0.05c0.14-0.06,0.26-0.15,0.36-0.29 c0.08-0.1,0.19-0.32,0.34-0.65L129.12,125.59L129.12,125.59z M124.28,127.33l-1.69,2.94l0.65,0.38l1.24-2.16l1.05,0.6 l-1.11,1.94l0.65,0.38l1.11-1.94l0.86,0.49l-1.2,2.08l0.65,0.38l1.65-2.87L124.28,127.33L124.28,127.33z M122.18,130.94 l3.76,2.41l-1.02,1.6c-0.26,0.4-0.48,0.67-0.66,0.81c-0.18,0.14-0.4,0.21-0.64,0.21c-0.24,0-0.48-0.07-0.7-0.22 c-0.28-0.18-0.46-0.41-0.54-0.7c-0.08-0.28-0.04-0.6,0.13-0.96c-0.2,0.1-0.39,0.17-0.57,0.2c-0.18,0.03-0.48,0.05-0.89,0.04 l-1.03-0.01l0.58-0.91l1.17-0.02c0.42-0.01,0.69-0.02,0.81-0.05c0.12-0.02,0.22-0.07,0.3-0.13c0.08-0.06,0.18-0.18,0.29-0.36 l0.1-0.15l-1.57-1.01L122.18,130.94L122.18,130.94z M123.86,133.09l-0.36,0.56c-0.23,0.36-0.36,0.6-0.39,0.71 c-0.03,0.11-0.02,0.22,0.02,0.31c0.04,0.1,0.12,0.19,0.23,0.26c0.13,0.08,0.25,0.11,0.37,0.1c0.12-0.02,0.23-0.08,0.33-0.19 c0.05-0.06,0.17-0.24,0.37-0.55l0.38-0.59L123.86,133.09L123.86,133.09z M117.18,137.88l4.62,1.35l0.59-0.75l-2.44-4.12 l-0.59,0.75l0.57,0.92l-1.11,1.41l-1.04-0.32L117.18,137.88L117.18,137.88z M119.59,137.68l0.76-0.96l0.93,1.5L119.59,137.68 L119.59,137.68z M118.11,139.07l-0.54,0.7c-0.25-0.16-0.48-0.24-0.69-0.22c-0.21,0.02-0.41,0.13-0.6,0.33 c-0.2,0.21-0.31,0.41-0.32,0.6c-0.01,0.19,0.04,0.34,0.16,0.46c0.08,0.07,0.16,0.11,0.26,0.12c0.1,0.01,0.22-0.03,0.36-0.1 c0.1-0.05,0.31-0.18,0.64-0.38c0.42-0.27,0.76-0.41,1.02-0.43c0.37-0.03,0.68,0.08,0.93,0.33c0.16,0.16,0.28,0.35,0.33,0.58 c0.05,0.23,0.04,0.47-0.06,0.72c-0.09,0.25-0.26,0.49-0.49,0.74c-0.39,0.4-0.77,0.62-1.14,0.66c-0.37,0.03-0.72-0.09-1.03-0.36 l0.6-0.68c0.19,0.13,0.37,0.19,0.53,0.16c0.16-0.02,0.33-0.12,0.5-0.31c0.18-0.19,0.28-0.37,0.3-0.55 c0.01-0.12-0.02-0.22-0.1-0.3c-0.08-0.07-0.17-0.1-0.29-0.09c-0.15,0.02-0.41,0.15-0.79,0.39c-0.38,0.25-0.68,0.41-0.9,0.48 c-0.23,0.08-0.45,0.09-0.67,0.04c-0.22-0.05-0.43-0.17-0.64-0.36c-0.19-0.18-0.31-0.39-0.37-0.65 c-0.06-0.26-0.05-0.52,0.06-0.78c0.1-0.26,0.28-0.54,0.55-0.82c0.39-0.41,0.78-0.63,1.18-0.67 C117.31,138.64,117.71,138.77,118.11,139.07L118.11,139.07z M114.02,141.2l-0.65,0.62l3.08,3.23l0.65-0.62L114.02,141.2 L114.02,141.2z M117.36,144.75l0.56,0.59l-0.61,0.58l-0.56-0.59L117.36,144.75L117.36,144.75z M111.84,143.16l-0.68,0.59 l1.23,1.42l0.46,3.03l0.78-0.68l-0.38-2.01l1.96,0.65l0.8-0.69l-2.93-0.88L111.84,143.16L111.84,143.16z M106.77,147.12 l0.79-0.56l0.9,0.61l1.46-1.04l-0.29-1.04l0.78-0.55l1.17,4.64l-0.78,0.55L106.77,147.12L106.77,147.12z M109.14,147.61 l1.46,0.99l-0.47-1.7L109.14,147.61L109.14,147.61z M107.35,148.48c-0.32-0.39-0.67-0.61-1.07-0.67 c-0.4-0.06-0.83,0.07-1.31,0.37c-0.33,0.21-0.57,0.43-0.73,0.66c-0.16,0.23-0.24,0.48-0.24,0.74c0,0.26,0.07,0.51,0.21,0.72 c0.15,0.24,0.33,0.4,0.53,0.5c0.2,0.1,0.42,0.14,0.66,0.12c0.24-0.02,0.57-0.1,0.99-0.25c0.42-0.15,0.71-0.21,0.86-0.19 c0.12,0.01,0.2,0.07,0.26,0.16c0.06,0.1,0.07,0.2,0.03,0.31c-0.06,0.17-0.21,0.33-0.43,0.47c-0.21,0.14-0.4,0.2-0.56,0.18 c-0.16-0.02-0.32-0.11-0.48-0.29l-0.74,0.51c0.24,0.34,0.54,0.54,0.91,0.6c0.37,0.06,0.79-0.07,1.26-0.37 c0.29-0.19,0.51-0.39,0.65-0.6c0.15-0.22,0.22-0.44,0.22-0.68c0-0.24-0.06-0.45-0.18-0.64c-0.19-0.3-0.47-0.48-0.83-0.54 c-0.26-0.04-0.62,0.01-1.09,0.17c-0.37,0.12-0.6,0.2-0.71,0.22c-0.16,0.04-0.28,0.04-0.38,0.01c-0.09-0.03-0.17-0.09-0.22-0.18 c-0.09-0.14-0.1-0.3-0.05-0.48c0.06-0.18,0.21-0.35,0.45-0.51c0.23-0.15,0.45-0.21,0.66-0.18c0.21,0.03,0.42,0.15,0.62,0.37 L107.35,148.48L107.35,148.48z M102.87,149.54l2.23,3.87l-0.78,0.45l-2.23-3.87L102.87,149.54z"></path> </g> </g> </g> </g> <rect x="153.69" y="52.69" class="st6" width="3.05" height="100.25"></rect> <g> <path class="st6" d="M189.49,76.08h-9.85l-1.69,4.81h-4.03l8.43-23.57h4.47l8.43,23.57h-4.06L189.49,76.08z M184.58,61.99 l-3.86,10.94h7.69L184.58,61.99z"></path> <path class="st6" d="M210.79,65.38l-8.46,12.36h8.46v3.15h-12.93v-3.15l8.5-12.36h-8.5v-3.15h12.93V65.38z"></path> <path class="st6" d="M213.57,72.01c0-0.64,0.03-1.25,0.14-1.9h14.25c-0.27-3.08-2.47-4.94-5.32-4.94c-2.37,0-3.69,1.15-4.4,2.61 h-4.17c1.05-3.25,4-5.86,8.57-5.86c5.35,0,9.31,3.79,9.31,9.65c0,5.86-3.79,9.62-9.31,9.62C217.33,81.19,213.57,77.5,213.57,72.01z M227.93,73.23H217.6c0.07,2.88,2.34,4.71,5.21,4.71C225.42,77.94,227.52,76.18,227.93,73.23z"></path> <path class="st6" d="M239.61,80.88h-3.86V62.23h3.86v2.71c1.08-1.86,2.95-3.01,5.59-3.01v4h-0.98c-2.84,0-4.6,1.19-4.6,5.15V80.88z "></path> <path class="st6" d="M259.12,61.92c4.94,0,8.77,3.79,8.77,9.55c0,5.76-3.86,9.72-8.77,9.72c-3.08,0-5.28-1.39-6.5-3.01v2.71h-3.86 V55.83h3.86V65C253.84,63.31,256.17,61.92,259.12,61.92z M258.27,65.27c-2.88,0-5.65,2.27-5.65,6.26c0,4.03,2.78,6.3,5.65,6.3 c2.91,0,5.69-2.34,5.69-6.37C263.96,67.44,261.19,65.27,258.27,65.27z"></path> <path class="st6" d="M279.24,61.92c3.15,0,5.32,1.49,6.47,3.01v-2.71h3.89v18.66h-3.89v-2.78c-1.19,1.59-3.42,3.08-6.54,3.08 c-4.84,0-8.74-3.96-8.74-9.72C270.43,65.71,274.33,61.92,279.24,61.92z M280.05,65.27c-2.88,0-5.66,2.17-5.66,6.2 c0,4.03,2.78,6.37,5.66,6.37c2.91,0,5.65-2.27,5.65-6.3C285.7,67.54,282.96,65.27,280.05,65.27z"></path> <path class="st6" d="M307.48,62.23h4l-11.44,27.43h-4l3.79-9.07l-7.35-18.35h4.3l5.25,14.22L307.48,62.23z"></path> <path class="st6" d="M322.25,61.92c4.57,0,7.55,2.27,8.6,6.2h-4.17c-0.64-1.79-2.13-2.95-4.44-2.95c-3.12,0-5.18,2.3-5.18,6.37 c0,4.1,2.07,6.4,5.18,6.4c2.3,0,3.72-1.02,4.44-2.95h4.17c-1.05,3.66-4.03,6.2-8.6,6.2c-5.35,0-9.14-3.79-9.14-9.65 C313.1,65.71,316.9,61.92,322.25,61.92z"></path> <path class="st6" d="M342.23,61.92c3.15,0,5.32,1.49,6.47,3.01v-2.71h3.89v18.66h-3.89v-2.78c-1.19,1.59-3.42,3.08-6.54,3.08 c-4.84,0-8.74-3.96-8.74-9.72C333.42,65.71,337.32,61.92,342.23,61.92z M343.04,65.27c-2.88,0-5.66,2.17-5.66,6.2 c0,4.03,2.78,6.37,5.66,6.37c2.91,0,5.65-2.27,5.65-6.3C348.7,67.54,345.95,65.27,343.04,65.27z"></path> <path class="st6" d="M370.91,70.46c0-3.42-1.86-5.18-4.67-5.18c-2.84,0-4.71,1.76-4.71,5.18v10.43h-3.86V62.23h3.86v2.13 c1.25-1.52,3.32-2.44,5.55-2.44c4.37,0,7.65,2.74,7.65,7.96v11h-3.83V70.46z"></path> <path class="st6" d="M196.97,96.95h-4.64c-1.25-2.37-3.49-3.56-6.3-3.56c-4.67,0-8.06,3.32-8.06,8.5c0,5.18,3.39,8.53,8.06,8.53 c4.27,0,6.94-2.57,7.52-6.54h-8.84v-3.08h12.97v3.01c-0.71,5.45-5.32,10.09-11.65,10.09c-6.64,0-12.02-4.94-12.02-12.02 c0-7.04,5.38-12.02,12.02-12.02C190.95,89.88,195.18,92.35,196.97,96.95z"></path> <path class="st6" d="M218.38,113.71h-3.86v-2.23c-1.22,1.59-3.32,2.5-5.52,2.5c-4.37,0-7.69-2.74-7.69-7.96V95.06h3.83v10.39 c0,3.42,1.86,5.18,4.67,5.18c2.84,0,4.71-1.76,4.71-5.18V95.06h3.86V113.71z M205,90.69c0-1.12,0.88-2.03,2.03-2.03 c1.12,0,2.03,0.91,2.03,2.03c0,1.15-0.91,2.03-2.03,2.03C205.88,92.72,205,91.84,205,90.69z M210.83,90.69 c0-1.12,0.88-2.03,2.03-2.03c1.12,0,2.03,0.91,2.03,2.03c0,1.15-0.91,2.03-2.03,2.03C211.71,92.72,210.83,91.84,210.83,90.69z"></path> <path class="st6" d="M223.46,88.66h3.86v25.06h-3.86V88.66z"></path> <path class="st6" d="M231.12,104.84c0-0.64,0.03-1.25,0.14-1.9h14.25c-0.27-3.08-2.47-4.94-5.32-4.94c-2.37,0-3.69,1.15-4.4,2.61 h-4.17c1.05-3.25,4-5.86,8.57-5.86c5.35,0,9.31,3.79,9.31,9.65s-3.79,9.62-9.31,9.62C234.87,114.02,231.12,110.33,231.12,104.84z M245.47,106.06h-10.33c0.07,2.88,2.34,4.71,5.21,4.71C242.97,110.77,245.07,109.01,245.47,106.06z"></path> <path class="st6" d="M261.19,113.95v1.39c2.51,0,4.4,1.22,4.4,3.56c0,2.3-1.9,3.69-4.3,3.69h-4.47v-2.44h3.69 c1.18,0,1.9-0.24,1.9-1.25s-0.71-1.25-1.9-1.25h-1.86v-3.72c-3.69-0.47-6.23-2.91-6.37-5.93h4c0.13,1.52,1.59,2.78,3.72,2.78 c2.24,0,3.42-0.95,3.42-2.24c0-3.66-10.83-1.56-10.83-8.4c0-2.98,2.78-5.38,7.18-5.38c4.23,0,7.01,2.27,7.21,5.99h-3.86 c-0.13-1.62-1.39-2.74-3.49-2.74c-2.07,0-3.15,0.85-3.15,2.1c0,3.76,10.53,1.66,10.73,8.4 C267.21,111.38,264.95,113.61,261.19,113.95z"></path> <path class="st6" d="M175.3,123.01h13.85v3.15h-9.99v6.94h7.79v3.15h-7.79v10.29h-3.86V123.01z"></path> <path class="st6" d="M200.77,146.85c-5.35,0-9.31-3.79-9.31-9.65c0-5.86,3.79-9.62,9.31-9.62c5.32,0,9.07,3.69,9.07,9.18 c0,0.64-0.03,1.25-0.14,1.9h-14.25c0.27,3.08,2.47,4.94,5.32,4.94c2.37,0,3.69-1.15,4.4-2.61h4.17 C208.29,144.24,205.34,146.85,200.77,146.85z M195.49,135.54h10.33c-0.07-2.88-2.34-4.71-5.21-4.71 C197.99,130.83,195.89,132.59,195.49,135.54z"></path> <path class="st6" d="M221.19,127.58c2.44,0,5.01,1.15,6.43,2.91v-9.01h3.89v25.06h-3.89v-2.81c-1.19,1.69-3.42,3.12-6.47,3.12 c-4.91,0-8.8-3.96-8.8-9.72S216.25,127.58,221.19,127.58z M221.97,130.93c-2.88,0-5.66,2.17-5.66,6.2s2.78,6.37,5.66,6.37 c2.91,0,5.65-2.27,5.65-6.3C227.62,133.2,224.88,130.93,221.97,130.93z"></path> <path class="st6" d="M244.63,146.85c-5.35,0-9.31-3.79-9.31-9.65c0-5.86,3.79-9.62,9.31-9.62c5.32,0,9.07,3.69,9.07,9.18 c0,0.64-0.03,1.25-0.14,1.9h-14.25c0.27,3.08,2.47,4.94,5.32,4.94c2.37,0,3.69-1.15,4.4-2.61h4.17 C252.14,144.24,249.2,146.85,244.63,146.85z M239.34,135.54h10.33c-0.07-2.88-2.34-4.71-5.21-4.71 C241.85,130.83,239.75,132.59,239.34,135.54z"></path> <path class="st6" d="M261.36,146.54h-3.86v-18.66h3.86v2.71c1.08-1.86,2.95-3.01,5.59-3.01v4h-0.98c-2.84,0-4.6,1.19-4.6,5.15 V146.54z"></path> <path class="st6" d="M278.02,127.58c3.15,0,5.32,1.49,6.47,3.01v-2.71h3.89v18.66h-3.89v-2.78c-1.19,1.59-3.42,3.08-6.54,3.08 c-4.84,0-8.74-3.96-8.74-9.72S273.11,127.58,278.02,127.58z M278.83,130.93c-2.88,0-5.66,2.17-5.66,6.2s2.78,6.37,5.66,6.37 c2.91,0,5.65-2.27,5.65-6.3C284.49,133.2,281.74,130.93,278.83,130.93z"></path> <path class="st6" d="M300.23,146.85c-4.47,0-7.62-2.64-7.79-6.03h4c0.13,1.52,1.59,2.78,3.72,2.78c2.24,0,3.42-0.95,3.42-2.24 c0-3.66-10.83-1.56-10.83-8.4c0-2.98,2.78-5.38,7.18-5.38c4.23,0,7.01,2.27,7.21,5.99h-3.86c-0.13-1.63-1.39-2.74-3.49-2.74 c-2.07,0-3.15,0.85-3.15,2.1c0,3.76,10.53,1.66,10.73,8.4C307.38,144.48,304.64,146.85,300.23,146.85z"></path> <path class="st6" d="M311.04,122.94c0-1.39,1.08-2.47,2.47-2.47c1.35,0,2.44,1.08,2.44,2.47c0,1.39-1.08,2.47-2.44,2.47 C312.12,125.42,311.04,124.33,311.04,122.94z M311.55,127.89h3.86v18.66h-3.86V127.89z"></path> <path class="st6" d="M333.29,127.89h4l-11.44,27.43h-4l3.79-9.07l-7.35-18.35h4.3l5.25,14.22L333.29,127.89z"></path> <path class="st6" d="M347.71,127.58c3.15,0,5.32,1.49,6.47,3.01v-2.71h3.89v18.66h-3.89v-2.78c-1.19,1.59-3.42,3.08-6.54,3.08 c-4.84,0-8.74-3.96-8.74-9.72S342.8,127.58,347.71,127.58z M348.53,130.93c-2.88,0-5.66,2.17-5.66,6.2s2.78,6.37,5.66,6.37 c2.91,0,5.65-2.27,5.65-6.3C354.18,133.2,351.44,130.93,348.53,130.93z"></path> <path class="st6" d="M369.93,146.85c-4.47,0-7.62-2.64-7.79-6.03h4c0.13,1.52,1.59,2.78,3.72,2.78c2.24,0,3.42-0.95,3.42-2.24 c0-3.66-10.83-1.56-10.83-8.4c0-2.98,2.78-5.38,7.18-5.38c4.23,0,7.01,2.27,7.21,5.99h-3.86c-0.13-1.63-1.39-2.74-3.49-2.74 c-2.07,0-3.15,0.85-3.15,2.1c0,3.76,10.53,1.66,10.73,8.4C377.08,144.48,374.33,146.85,369.93,146.85z"></path> <path class="st6" d="M381.24,127.89h3.86v18.66h-3.86V127.89z"></path> </g> </svg>