<svg xmlns="http://www.w3.org/2000/svg" xmlns:xlink="http://www.w3.org/1999/xlink" xml:space="preserve" width="210mm" height="297mm" style="shape-rendering:geometricPrecision; text-rendering:geometricPrecision; image-rendering:optimizeQuality; fill-rule:evenodd; clip-rule:evenodd" viewBox="0 0 21000 29700"> <defs> <style type="text/css"> <![CDATA[ .str0 {stroke:#373435;stroke-width:150;stroke-miterlimit:22.9256} .str4 {stroke:#FEFEFE;stroke-width:91.42;stroke-linejoin:round;stroke-miterlimit:22.9256} .str1 {stroke:#FEFEFE;stroke-width:91.42;stroke-linejoin:round;stroke-miterlimit:22.9256} .str2 {stroke:#FEFEFE;stroke-width:91.42;stroke-linejoin:round;stroke-miterlimit:22.9256} .str3 {stroke:#FEFEFE;stroke-width:91.42;stroke-linejoin:round;stroke-miterlimit:22.9256} .str5 {stroke:#FEFEFE;stroke-width:91.42;stroke-linejoin:round;stroke-miterlimit:22.9256} .fil0 {fill:none} .fil4 {fill:#373435} .fil1 {fill:#FFF212} .fil5 {fill:#ED3237} .fil6 {fill:#00AFEF} .fil2 {fill:#00A859} .fil3 {fill:#3E4095} ]]> </style> </defs> <g id="&#x421;&#x43B;&#x43E;&#x439;_x0020_1"> <metadata id="CorelCorpID_0Corel-Layer"></metadata> <g id="_1389582124304"> <path class="fil0 str0" d="M2699.43 1715.42l15601.13 0c757.19,0 1376.68,509.12 1376.68,1131.41l0 20338.96c0,622.28 -619.49,1131.41 -1376.68,1131.41l-15601.13 0c-757.19,0 -1376.68,-509.13 -1376.68,-1131.41l0 -20338.96c0,-622.29 619.49,-1131.41 1376.68,-1131.41z"></path> <g> <g> <path class="fil0 str1" d="M8931.92 18708.6c654.19,0 1184.71,530.53 1184.71,1184.72 0,654.19 -530.52,1184.71 -1184.71,1184.71 -654.19,0 -1184.71,-530.52 -1184.71,-1184.71 0,-654.19 530.52,-1184.72 1184.71,-1184.72zm0 -316.73c829.09,0 1501.45,672.36 1501.45,1501.45 0,829.08 -672.36,1501.44 -1501.45,1501.44 -829.09,0 -1501.44,-672.36 -1501.44,-1501.44 0,-829.09 672.35,-1501.45 1501.44,-1501.45z"></path> <path id="1" class="fil1" d="M8931.92 18708.6c654.19,0 1184.71,530.53 1184.71,1184.72 0,654.19 -530.52,1184.71 -1184.71,1184.71 -654.19,0 -1184.71,-530.52 -1184.71,-1184.71 0,-654.19 530.52,-1184.72 1184.71,-1184.72zm0 -316.73c829.09,0 1501.45,672.36 1501.45,1501.45 0,829.08 -672.36,1501.44 -1501.45,1501.44 -829.09,0 -1501.44,-672.36 -1501.44,-1501.44 0,-829.09 672.35,-1501.45 1501.44,-1501.45z"></path> </g> <g> <path class="fil0 str2" d="M12098.95 18708.6c654.19,0 1184.71,530.53 1184.71,1184.72 0,654.19 -530.52,1184.71 -1184.71,1184.71 -654.19,0 -1184.71,-530.52 -1184.71,-1184.71 0,-654.19 530.52,-1184.72 1184.71,-1184.72zm0 -316.73c829.09,0 1501.44,672.36 1501.44,1501.45 0,829.08 -672.35,1501.44 -1501.44,1501.44 -829.09,0 -1501.45,-672.36 -1501.45,-1501.44 0,-829.09 672.36,-1501.45 1501.45,-1501.45z"></path> <path id="1" class="fil2" d="M12098.95 18708.6c654.19,0 1184.71,530.53 1184.71,1184.72 0,654.19 -530.52,1184.71 -1184.71,1184.71 -654.19,0 -1184.71,-530.52 -1184.71,-1184.71 0,-654.19 530.52,-1184.72 1184.71,-1184.72zm0 -316.73c829.09,0 1501.44,672.36 1501.44,1501.45 0,829.08 -672.35,1501.44 -1501.44,1501.44 -829.09,0 -1501.45,-672.36 -1501.45,-1501.44 0,-829.09 672.36,-1501.45 1501.45,-1501.45z"></path> </g> <g> <path class="fil0 str3" d="M7348.41 17279.33c590.14,0 1079.57,431.74 1169.77,996.52 100.97,-25.76 205.64,-42.22 313.01,-48.62 -113.6,-716.6 -734.28,-1264.63 -1482.78,-1264.63 -829.09,0 -1501.45,672.35 -1501.45,1501.44 0,800.85 627.36,1455.39 1417.33,1499.06 -0.96,-23.16 -1.57,-46.4 -1.57,-69.78 0,-83.77 6.26,-166.07 18.17,-246.53 -622.78,-35.01 -1117.19,-551.22 -1117.19,-1182.75 0,-654.19 530.52,-1184.71 1184.71,-1184.71zm1070.07 1693.55c-99.51,208.85 -258.33,384.02 -454.71,503.65 -52.12,120.86 -82.28,253.4 -85.42,392.6 450.51,-170.05 797.79,-550.54 921.95,-1021.52 -137.2,17.12 -266.22,60.62 -381.82,125.27z"></path> <path id="1" class="fil3" d="M7348.41 17279.33c590.14,0 1079.57,431.74 1169.77,996.52 100.97,-25.76 205.64,-42.22 313.01,-48.62 -113.6,-716.6 -734.28,-1264.63 -1482.78,-1264.63 -829.09,0 -1501.45,672.35 -1501.45,1501.44 0,800.85 627.36,1455.39 1417.33,1499.06 -0.96,-23.16 -1.57,-46.4 -1.57,-69.78 0,-83.77 6.26,-166.07 18.17,-246.53 -622.78,-35.01 -1117.19,-551.22 -1117.19,-1182.75 0,-654.19 530.52,-1184.71 1184.71,-1184.71zm1070.07 1693.55c-99.51,208.85 -258.33,384.02 -454.71,503.65 -52.12,120.86 -82.28,253.4 -85.42,392.6 450.51,-170.05 797.79,-550.54 921.95,-1021.52 -137.2,17.12 -266.22,60.62 -381.82,125.27z"></path> </g> <g> <path class="fil0 str4" d="M10484.59 17279.33c592.9,0 1084.21,435.77 1171.07,1004.43 100.55,-27.64 204.87,-46.15 312.04,-54.53 -112.75,-717.58 -733.91,-1266.63 -1483.11,-1266.63 -747.97,0 -1368.28,547.25 -1482.53,1263.09 107.59,4.47 212.56,19.04 313.96,42.93 93.21,-561.23 580.95,-989.29 1168.57,-989.29zm1057.43 1719.25c-92.28,182.09 -230.2,337.15 -398.73,450.11 -58.17,124.78 -92.59,262.81 -97.53,408.33 433.9,-175.01 767.3,-546.9 889.56,-1004.92 -142.57,22.26 -275.69,73.1 -393.3,146.48zm-1632.1 501.56c-222.07,-123.46 -400.38,-316.18 -505.56,-549.02 -113.94,-57.26 -239.68,-94.43 -372.59,-106.94 126.17,483.35 487.24,871.81 953.87,1036.25 -1.62,-134.29 -28.32,-262.56 -75.72,-380.29z"></path> <path id="1" class="fil4" d="M10484.59 17279.33c592.9,0 1084.21,435.77 1171.07,1004.43 100.55,-27.64 204.87,-46.15 312.04,-54.53 -112.75,-717.58 -733.91,-1266.63 -1483.11,-1266.63 -747.97,0 -1368.28,547.25 -1482.53,1263.09 107.59,4.47 212.56,19.04 313.96,42.93 93.21,-561.23 580.95,-989.29 1168.57,-989.29zm1057.43 1719.25c-92.28,182.09 -230.2,337.15 -398.73,450.11 -58.17,124.78 -92.59,262.81 -97.53,408.33 433.9,-175.01 767.3,-546.9 889.56,-1004.92 -142.57,22.26 -275.69,73.1 -393.3,146.48zm-1632.1 501.56c-222.07,-123.46 -400.38,-316.18 -505.56,-549.02 -113.94,-57.26 -239.68,-94.43 -372.59,-106.94 126.17,483.35 487.24,871.81 953.87,1036.25 -1.62,-134.29 -28.32,-262.56 -75.72,-380.29z"></path> </g> <g> <path class="fil0 str5" d="M13651.61 17279.33c654.19,0 1184.72,530.52 1184.72,1184.71 0,621.16 -478.33,1130.76 -1086.65,1180.64 12.12,81.12 18.47,164.14 18.47,248.64 0,22.72 -0.59,45.31 -1.49,67.81 775.36,-58.78 1386.4,-706.71 1386.4,-1497.09 0,-829.09 -672.36,-1501.44 -1501.45,-1501.44 -747.96,0 -1368.28,547.25 -1482.52,1263.09 107.58,4.47 212.56,19.04 313.96,42.93 93.2,-561.23 580.95,-989.29 1168.56,-989.29zm-574.66 2220.81c-222.08,-123.46 -400.38,-316.18 -505.56,-549.02 -113.94,-57.26 -239.69,-94.43 -372.6,-106.94 126.17,483.35 487.24,871.81 953.87,1036.25 -1.61,-134.29 -28.32,-262.56 -75.71,-380.29z"></path> <path id="1" class="fil5" d="M13651.61 17279.33c654.19,0 1184.72,530.52 1184.72,1184.71 0,621.16 -478.33,1130.76 -1086.65,1180.64 12.12,81.12 18.47,164.14 18.47,248.64 0,22.72 -0.59,45.31 -1.49,67.81 775.36,-58.78 1386.4,-706.71 1386.4,-1497.09 0,-829.09 -672.36,-1501.44 -1501.45,-1501.44 -747.96,0 -1368.28,547.25 -1482.52,1263.09 107.58,4.47 212.56,19.04 313.96,42.93 93.2,-561.23 580.95,-989.29 1168.56,-989.29zm-574.66 2220.81c-222.08,-123.46 -400.38,-316.18 -505.56,-549.02 -113.94,-57.26 -239.69,-94.43 -372.6,-106.94 126.17,483.35 487.24,871.81 953.87,1036.25 -1.61,-134.29 -28.32,-262.56 -75.71,-380.29z"></path> </g> </g> <path class="fil4" d="M4175.13 15164.46l802.06 0 0 -4122.78 -802.06 0 0 -745.76 2859.33 0 1769.7 1151.97 795.7 -7225.74 -34.51 0c-68.49,0 -124.57,-61.26 -124.57,-136.16l0 -875.82c0,-74.9 56.08,-136.15 124.57,-136.15l160.95 0 75.58 -686 5.76 0 0 -3.79 1367.8 0 0 3.79 34.79 0 75.54 686 148.91 0c68.44,0 124.52,61.25 124.52,136.15l0 875.82c0,74.9 -56.08,136.16 -124.52,136.16l-22.47 0 1058.58 9612.52 1596.17 1039.05 0 -3832.04 -802.05 0 0 -745.76 3559.94 0 0 745.76 -731.67 0 0 4122.78 731.67 0 0 745.77 -2755 0 -6.25 -5.8 -1468.03 -936.82 92.7 842.05 313.02 0 0 365.76 -272.71 0 49.19 446.77 -219.34 0 -49.19 -446.77 -4006.36 0 -49.2 446.77 -219.34 0 49.2 -446.77 -276.13 0 0 -365.76 316.39 0 367.14 -3333.75 -1687.57 -1076.93 0 3765.48 731.71 0 0 745.77 -3559.95 0 0 -745.77zm6885.89 -12090.44l5.4 0 -56.13 -509.74 -1008.47 0c-18.95,172.03 -37.18,341.46 -54.66,510.06 64.68,4.66 116.37,63.94 116.37,135.83l0 875.82c0,49.38 -24.41,92.84 -60.63,116.73l20.43 15.2 1273.31 946.61 -103.77 -942.38 -131.85 0c-68.49,0 -124.57,-61.26 -124.57,-136.16l0 -875.82c0,-74.9 56.08,-136.15 124.57,-136.15zm638.6 5749.77l-2204.93 -1654.65 -182.52 1657.42 2386.12 0 1.5 -1.23 -0.17 -1.54zm-1194.6 5535.69c-481.31,482.93 -966.59,965.35 -1456.22,1450.18l2909.65 0c-490.09,-485.32 -973.29,-961.95 -1453.43,-1450.18zm-174.69 -105.07c-538.99,-0.45 -1077.61,-0.91 -1615.81,-0.91l-171.37 1556.16 222.61 0c521.71,-518.52 1043.74,-1036.3 1564.57,-1555.25zm208.35 -1678.08c526.57,342.4 1053.24,684.77 1579.91,1027.16l-0.88 1.34 116.81 76.04 -254.8 -2313.73c-480.75,403.69 -960.37,805.16 -1441.04,1209.19zm-895.03 506.72c-250.34,-159.33 -499.9,-318.2 -747.78,-476.39l-133.91 1216.21c293.97,-247.28 586.68,-491.88 881.69,-739.82zm730.26 -613.86c445.82,-374.73 884.39,-745.76 1329.26,-1119.89l-2668.81 0 -25.55 231.81c454.96,296.15 910.01,592.13 1365.1,888.08zm-563.95 719.7c-327.78,275.52 -655.25,550.35 -982.5,825.14 752.02,0 1510.71,-3.27 2269.34,-4.75 -427.61,-273.49 -858.07,-547.47 -1286.84,-820.39zm-123.21 -7763.65l-141.5 1284.77 1529.42 -1284.77 -1387.92 0zm1806.98 1529.08l-164.38 -1492.86 -1782.03 1492.86 1946.41 0zm-2339.62 4155.49l2570.91 -2055.33 226.38 2055.33 -2797.29 0zm595.23 -3975.39l1923.36 1444.72 -159.11 -1444.72 -1764.25 0zm936.93 7120.27l1555.63 1554.97 227.06 0 -109.32 -992.62 -816.78 -521.2 0.81 -0.77 -62.55 -39.99c-264.99,-0.03 -529.93,-0.2 -794.85,-0.39zm756.87 -5223.37l-2362.29 1895.81 208.76 -1895.81 2153.53 0zm-339.91 -3786.18l-1290.95 -959.73 -105.7 959.73 1396.65 0zm-2243.99 -2066.48l290.15 0c34.22,0 62.19,37.58 62.19,83.51l0 771.78c0,45.92 -27.97,83.5 -62.19,83.5l-290.15 0c-34.21,0 -62.18,-37.58 -62.18,-83.5l0 -771.78c0,-45.93 27.97,-83.51 62.18,-83.51zm-41.73 -104.64l373.66 0c68.44,0 124.52,61.25 124.52,136.15l0 875.82c0,74.9 -56.08,136.16 -124.52,136.16l-373.66 0c-68.49,0 -124.57,-61.26 -124.57,-136.16l0 -875.82c0,-74.9 56.08,-136.15 124.57,-136.15zm789.56 104.64l290.16 0c34.22,0 62.19,37.58 62.19,83.51l0 771.78c0,45.92 -27.97,83.5 -62.19,83.5l-290.16 0c-34.2,0 -62.17,-37.58 -62.17,-83.5l0 -771.78c0,-45.93 27.97,-83.51 62.17,-83.51zm747.84 0l290.16 0c34.2,0 62.18,37.58 62.18,83.51l0 771.78c0,45.92 -27.98,83.5 -62.18,83.5l-290.16 0c-34.2,0 -62.17,-37.58 -62.17,-83.5l0 -771.78c0,-45.93 27.97,-83.51 62.17,-83.51zm747.84 0l290.16 0c34.21,0 62.18,37.58 62.18,83.51l0 771.78c0,45.92 -27.97,83.5 -62.18,83.5l-290.16 0c-34.21,0 -62.18,-37.58 -62.18,-83.5l0 -771.78c0,-45.93 27.97,-83.51 62.18,-83.51zm747.84 0l290.15 0c34.22,0 62.19,37.58 62.19,83.51l0 771.78c0,45.92 -27.97,83.5 -62.19,83.5l-290.15 0c-34.21,0 -62.18,-37.58 -62.18,-83.5l0 -771.78c0,-45.93 27.97,-83.51 62.18,-83.51zm-1537.4 -104.64l373.65 0c68.45,0 124.53,61.25 124.53,136.15l0 875.82c0,74.9 -56.08,136.16 -124.53,136.16l-373.65 0c-68.5,0 -124.58,-61.26 -124.58,-136.16l0 -875.82c0,-74.9 56.08,-136.15 124.58,-136.15zm1495.67 0l373.65 0c68.45,0 124.53,61.25 124.53,136.15l0 875.82c0,74.9 -56.08,136.16 -124.53,136.16l-373.65 0c-68.49,0 -124.57,-61.26 -124.57,-136.16l0 -875.82c0,-74.9 56.08,-136.15 124.57,-136.15z"></path> <g> <path class="fil6" d="M3436.75 21702.21c634.03,-86.51 948.97,-201.67 1306.28,-296.45 1917.54,656.1 3835.06,656.1 5752.64,0 674.56,185.44 1762.78,491.86 2869.88,492.06 1329.11,0.27 2409.34,-189.65 2868.36,-498.1 0,0 346.44,138.05 539.7,180.74 321.17,70.95 578.24,73.25 789.66,105.46l0 588.42c-211.42,-32.16 -468.49,-34.41 -789.66,-105.34 -193.26,-42.67 -539.7,-180.75 -539.7,-180.75 -459.02,308.5 -1539.25,498.37 -2868.36,498.12 -1107.1,-0.23 -2195.32,-306.64 -2869.88,-492.11 -1917.58,656.13 -3835.1,656.13 -5752.64,0 -357.31,94.85 -672.25,209.92 -1306.28,296.48l0 -588.53z"></path> <path class="fil5" d="M3436.75 22283.14c634.03,-86.56 948.97,-201.69 1306.28,-296.54 1917.54,656.12 3835.06,656.12 5752.64,0 674.56,185.47 1762.78,491.88 2869.88,492.11 1329.11,0.25 2409.34,-189.63 2868.36,-498.12 0,0 346.44,138.07 539.7,180.75 321.17,70.94 578.24,73.25 789.66,105.44l0 589.85c-211.42,-32.18 -468.5,-34.37 -789.66,-105.31 -193.26,-42.67 -539.7,-180.78 -539.7,-180.78 -459.02,308.48 -1539.25,498.4 -2868.36,498.11 -1107.1,-0.23 -2195.32,-306.61 -2869.88,-492.05 -925.82,316.77 -1851.67,480.57 -2777.47,491.45l-209.1 -0.18c-922.05,-12.1 -1844.03,-175.79 -2766.07,-491.27 -357.31,94.8 -672.25,209.86 -1306.28,296.4l0 -589.86z"></path> <path class="fil2" d="M3436.75 22864.03c627.25,-86.37 940.74,-200.78 1296.11,-295.11 1917.54,656.12 3835.1,656.12 5752.64,0 674.6,185.47 1762.8,491.88 2869.91,492.08 1329.11,0.26 2409.34,-189.64 2868.37,-498.11 0,0 346.4,138.08 539.73,180.77 326.26,72.06 586.43,73.28 799.76,106.99l0 808.21 -14126.52 -12.21 0 -782.62z"></path> </g> </g> </g> </svg>