<svg xmlns="http://www.w3.org/2000/svg" xmlns:xlink="http://www.w3.org/1999/xlink" id="Layer_1" x="0px" y="0px" viewBox="0 0 300 300" style="enable-background:new 0 0 300 300;" xml:space="preserve"> <style type="text/css"> .st0{fill:#2A77BD;} .st1{fill:#EE2D2F;} .st2{fill:#FCB019;} .st3{fill:#03A550;} .st4{fill:#010101;} .st5{fill:#020202;} .st6{fill:#080808;} .st7{fill:#15AD5F;} .st8{fill:#141414;} .st9{fill:#67ADDF;} .st10{fill:#262525;} .st11{fill:#030303;} .st12{fill:#070707;} .st13{fill:#060606;} .st14{fill:#131313;} .st15{fill:#111111;} .st16{fill:#40805F;} .st17{fill:#42986D;} .st18{fill:#319D66;} </style> <g> <path class="st0" d="M30.43,169.48c-12.06,1.05-23.38-7.98-24.56-19.59c-0.27-0.45,0.09-1.01-0.25-1.44c0-1.6,0-3.2,0-4.8 c0.53-5.41,2.91-9.93,6.82-13.64c3.52-3.34,7.6-5.64,12.58-5.97c0.15-0.01,0.27-0.05,0.38-0.15c0.19,0,0.38,0,0.56,0 c0.56,0.23,1.13,0.23,1.69,0c1.22,0,2.45,0,3.67,0c5.32,0.42,9.78,2.68,13.53,6.38c3.42,3.38,5.63,7.45,6.47,12.21 c0.15,0.83,0.3,1.66,0.43,2.49c0.05,1.17,0.08,2.34-0.02,3.51c-0.5,3.75-1.47,7.34-3.56,10.56c-3.01,4.65-7.11,7.91-12.38,9.67 c-0.59,0.2-1.24,0.57-1.83-0.06c-0.42-1.25-0.23-2.46,0.2-3.66c0.29-0.54,0.84-0.72,1.35-0.94c6.48-2.8,10.33-7.66,11.51-14.63 c0.02-0.51,0.03-1.01,0.13-1.51c0.36-2.38-0.07-4.7-0.85-6.91c-2.54-7.11-7.52-11.56-15.04-12.64 c-12.37-1.78-21.24,7.91-21.37,18.22c-0.11,8.76,6.5,17.27,16.17,18.61c0.98,0.14,1.97,0.05,2.96,0.09 c0.59,0.03,1.25-0.1,1.66,0.53C30.91,167.07,31.23,168.31,30.43,169.48z"></path> <path class="st1" d="M130.2,123.9c1.02,0.6,2.22,0.54,3.32,0.83c10.53,2.73,17.73,12.71,16.97,23.6 c-0.76,10.88-9.26,19.79-20.06,21.05c-1.6,0.19-3.18,0.23-4.78,0.12c-1.29,0.46-2.49-0.11-3.71-0.32 c-9.24-2.36-16.44-10.37-17.28-19.23c-0.04-0.45-0.25-0.93,0.16-1.33c1.55-0.15,3.01,0.11,4.3,1.02c0.66,3.2,1.78,6.19,3.9,8.75 c2.38,2.88,5.27,5.02,8.87,6.14c1.25,0.32,2.47,0.76,3.77,0.78c9.22,1.35,18.18-5.36,20.3-14.13c2.53-10.47-4.61-21.35-15.29-22.82 c-11.06-1.52-19.92,5.68-21.52,15.85c-0.08,0.5-0.01,1.04-0.38,1.48c-1.15,0.27-2.22-0.24-3.33-0.35 c-0.29-0.09-0.55-0.24-0.74-0.49c-0.14-3.4,1.1-6.45,2.68-9.33c2.72-4.97,6.92-8.29,12.12-10.43c1.72-0.71,3.54-0.79,5.31-1.15 c0.56,0,1.13,0,1.69,0c0.85,0.23,1.69,0.23,2.54,0C129.44,123.9,129.82,123.9,130.2,123.9z"></path> <path class="st2" d="M30.43,169.48c0-1.27,0-2.55,0.01-3.82c-0.29-0.37-0.25-0.78-0.18-1.21c1.61-8.83,6.4-15.13,14.84-18.47 c2.53-1,2.6-0.87,2.4,1.91c-0.04,0.54-0.08,1.08-0.13,1.63c-0.33,0.58-0.94,0.74-1.49,0.99c-5.67,2.56-9.28,6.86-10.83,12.88 c-0.13,0.5-0.24,1-0.58,1.41c-0.23,1.29-0.34,2.59-0.24,3.91c0.41,0.55,0.49,1.2,0.57,1.86c1.07,8.51,9.13,15.33,17.71,15.66 c8.65,0.34,16-5.57,18.28-12.23c0.43-1.25,0.69-2.54,0.97-3.82c0.12-0.54,0.08-1.14,0.58-1.54c1.45-0.03,2.88,0.09,4.22,0.75 c-0.59,5.07-2.34,9.68-5.77,13.51c-3.79,4.22-8.37,7.09-14.22,7.45c-0.15,0.01-0.27,0.05-0.38,0.14c-2.07,0-4.14,0-6.21,0 c-0.69-0.55-1.56-0.49-2.35-0.7C38.11,187.29,31.78,179.82,30.43,169.48z"></path> <path class="st3" d="M121.92,168.84c1.24,0.22,2.49,0.44,3.73,0.66c-0.79,10.39-8.85,19.08-19.17,20.69 c-0.3,0.05-0.68-0.11-0.86,0.29c-0.56,0-1.13,0-1.69,0c-0.85-0.23-1.69-0.23-2.54,0c-0.56,0-1.13,0-1.69,0 c-4.17-0.43-7.86-2.02-11.15-4.6c-4.76-3.73-7.61-8.6-8.61-14.55c-0.11-0.66-0.28-1.27-0.67-1.82c0.37-1.21,0.17-2.48,0.36-3.71 c0.46-3.71,1.49-7.22,3.5-10.42c2.93-4.66,7.03-7.83,12.19-9.67c0.56-0.2,1.13-0.5,1.76-0.22c0.12,0.09,0.19,0.21,0.21,0.36 c-0.04,0.77-0.13,1.54,0.07,2.3c0.04,0.52-0.09,0.99-0.34,1.44c-0.65,0.74-1.61,0.93-2.44,1.34c-5.09,2.52-8.31,6.56-9.86,11.98 c-0.18,0.64-0.2,1.29-0.25,1.94c-0.09,0.56-0.25,1.11-0.35,1.66c-0.23,0.83-0.23,1.66,0,2.5c0.54,3.88,1.73,7.49,4.35,10.52 c3.7,4.28,8.32,6.55,14.05,6.64c6.42,0.1,11.47-2.5,15.34-7.48c1.9-2.45,3.03-5.29,3.47-8.37 C121.4,169.79,121.31,169.18,121.92,168.84z"></path> <path class="st4" d="M97.08,145.93c-0.01-0.11-0.02-0.21-0.03-0.32c-0.39-0.56-0.45-1.22-0.56-1.87 c-1.46-8.99-9.13-15.29-18.2-15.59c-8.49-0.28-17.37,6.42-18.67,15.7c-0.08,0.6-0.17,1.22-0.68,1.65c-1.27,0.31-2.46,0.04-3.6-0.54 c-0.43-0.47-0.37-1.04-0.3-1.6c1.06-8.69,8.26-16.82,16.75-18.95c1.18-0.3,2.41-0.23,3.59-0.51c0.56,0,1.13,0,1.69,0 c0.75,0.24,1.51,0.24,2.26,0c0.38,0,0.75,0,1.13,0c3.45,0.14,6.65,1.13,9.55,2.98c6.61,4.24,10.54,10.17,11.18,18.11 c0,1.16,0.01,2.33,0,3.49c-0.42,5.34-2.43,9.98-6.07,13.93c-2.74,2.97-6,5.11-9.86,6.3c-0.5,0.15-1.06,0.52-1.53-0.1 c0.02-0.7-0.11-1.4,0.08-2.09c0.09-0.57,0.19-1.15,0.28-1.72c0.37-0.53,0.96-0.71,1.51-0.97c5.52-2.63,9.13-6.85,10.66-12.8 c0.13-0.5,0.29-0.99,0.56-1.43c0.09-0.48,0.17-0.96,0.26-1.45C96.95,147.42,96.97,146.67,97.08,145.93z"></path> <path class="st5" d="M179.07,190.48c-0.05-0.07-0.08-0.2-0.14-0.22c-5.09-1.25-6.38-6.87-5.15-11.06 c1.33-4.55,6.62-6.69,10.82-4.48c1.24,0.65,2.22,1.59,2.71,2.93c0.2,0.54,0.85,1.37,0.11,1.65c-0.69,0.27-1.77,0.54-2.19-0.89 c-0.5-1.73-1.92-2.64-3.71-2.77c-2.06-0.15-3.8,0.52-4.95,2.33c-1.46,2.28-1.36,6.35,0.21,8.58c1.16,1.64,2.79,2.35,4.75,2.18 c1.9-0.16,3.28-1.17,3.89-2.98c0.4-1.2,1.34-0.79,1.95-0.65c0.92,0.21,0.19,0.98,0.06,1.34c-0.8,2.14-2.35,3.44-4.65,3.78 c-0.44,0.3-1.01-0.08-1.45,0.26C180.57,190.48,179.82,190.48,179.07,190.48z"></path> <path class="st6" d="M294.89,140.27c-1.97-0.21-1.97-0.21-1.97-2.22c0-3.88,0-7.76,0-11.65c0-2.02,0-2.02,1.97-2.22 C294.89,129.55,294.89,134.91,294.89,140.27z"></path> <path class="st7" d="M101.38,190.48c0.85-0.46,1.69-0.45,2.54,0C103.08,190.48,102.23,190.48,101.38,190.48z"></path> <path class="st1" d="M129.07,123.9c-0.85,0.46-1.69,0.45-2.54,0C127.37,123.9,128.22,123.9,129.07,123.9z"></path> <path class="st8" d="M79.35,123.9c-0.75,0.44-1.51,0.43-2.26,0C77.84,123.9,78.59,123.9,79.35,123.9z"></path> <path class="st0" d="M27.65,123.9c-0.56,0.37-1.13,0.49-1.69,0C26.52,123.9,27.09,123.9,27.65,123.9z"></path> <path class="st9" d="M-22.64,275.88c0.43,0.42,0.3,0.94,0.25,1.44c-0.08-0.01-0.17-0.03-0.25-0.03 C-22.64,276.82-22.64,276.35-22.64,275.88z"></path> <path class="st10" d="M181.33,190.48c0.42-0.44,0.94-0.31,1.45-0.26c-0.02,0.06-0.05,0.11-0.06,0.17 c-0.01,0.03,0.02,0.06,0.03,0.09C182.27,190.48,181.8,190.48,181.33,190.48z"></path> <path class="st5" d="M209.11,155.45c2.68-2.29,4.66-2.09,6.55,0.37c1.21-1.49,2.67-2.35,4.67-1.83c1.31,0.34,2.19,1.17,2.47,2.45 c0.58,2.69,0.21,5.43,0.26,8.15c0.02,0.87-0.76,0.43-1.19,0.52c-0.55,0.12-0.72-0.16-0.71-0.71c0.02-2.16,0.04-4.32-0.02-6.48 c-0.05-1.57-0.75-2.37-1.96-2.49c-1.37-0.14-2.43,0.57-2.82,2c-0.16,0.58-0.21,1.2-0.22,1.81c-0.03,1.64-0.06,3.29,0.01,4.93 c0.04,0.86-0.31,0.98-1.05,0.98c-0.76,0-0.95-0.25-0.94-0.98c0.04-1.97,0.04-3.95-0.01-5.92c-0.05-1.95-0.78-2.85-2.19-2.84 c-1.45,0.01-2.6,1.17-2.68,2.89c-0.09,1.88-0.05,3.76-0.04,5.64c0,0.7,0.05,1.23-0.98,1.23c-0.95,0-1.05-0.36-1.04-1.15 c0.04-2.87,0-5.73,0.03-8.6c0-0.47-0.35-1.24,0.65-1.22C208.59,154.2,209.48,153.94,209.11,155.45z"></path> <path class="st5" d="M223.8,180.53c2.73-2.35,4.86-2.15,6.56,0.32c0.95-1.07,1.99-1.97,3.54-1.98c2.16-0.01,3.66,1.17,3.83,3.47 c0.18,2.38,0.06,4.79,0.09,7.18c0.01,0.91-0.65,0.57-1.1,0.63c-0.53,0.07-0.89-0.03-0.88-0.72c0.03-2.02,0.03-4.04,0-6.06 c-0.03-1.92-0.72-2.88-2.09-2.99c-1.44-0.11-2.69,0.95-2.84,2.71c-0.16,1.96-0.1,3.94-0.08,5.91c0.01,0.76-0.04,1.21-1.03,1.18 c-0.91-0.02-0.95-0.44-0.95-1.13c0.02-1.97,0.03-3.95-0.03-5.92c-0.06-1.84-0.82-2.75-2.15-2.77c-1.35-0.01-2.61,1.17-2.7,2.74 c-0.11,1.92-0.07,3.85-0.06,5.78c0,0.76,0.04,1.32-1.06,1.3c-1.14-0.01-0.87-0.71-0.87-1.31c-0.01-2.87-0.01-5.73,0-8.6 c0-0.5-0.26-1.21,0.74-1.1C223.41,179.26,224.34,178.93,223.8,180.53z"></path> <path class="st5" d="M204.77,180.49c2.73-2.31,4.62-2.15,6.61,0.34c0.61-0.75,1.28-1.41,2.22-1.74c2.45-0.86,4.83,0.53,5.02,3.12 c0.17,2.39,0.07,4.79,0.13,7.19c0.02,0.81-0.47,0.74-1.01,0.77c-0.65,0.04-0.93-0.16-0.91-0.86c0.04-1.69,0.02-3.38,0.01-5.08 c0-0.42-0.01-0.85-0.05-1.27c-0.2-1.76-0.9-2.56-2.21-2.59c-1.4-0.03-2.62,1.1-2.71,2.71c-0.1,1.97-0.07,3.95-0.04,5.92 c0.01,0.76-0.05,1.18-1.02,1.19c-1.06,0.02-0.97-0.55-0.96-1.23c0.01-1.83,0.03-3.67-0.01-5.5c-0.04-2-0.8-3.05-2.17-3.09 c-1.44-0.04-2.68,1.17-2.8,2.98c-0.12,1.87-0.06,3.76-0.04,5.64c0.01,0.73,0.01,1.21-1,1.2c-1.07-0.01-0.94-0.61-0.94-1.28 c0.01-2.87,0-5.73,0.01-8.6c0-0.52-0.22-1.18,0.75-1.13C204.34,179.23,205.12,179.06,204.77,180.49z"></path> <path class="st5" d="M200.43,162.38c0.85-2.5,1.63-4.85,2.46-7.18c0.13-0.36,0.08-0.93,0.64-0.98c0.5-0.05,1.12-0.24,1.49,0.11 c0.33,0.31-0.09,0.78-0.23,1.16c-1.5,4.04-2.99,8.08-4.53,12.1c-0.79,2.05-2.17,2.91-3.94,2.7c-0.71-0.08-0.79-0.43-0.79-1.03 c0-0.6,0.16-0.77,0.79-0.8c1.91-0.09,3.42-2.71,2.67-4.56c-1.13-2.77-2.32-5.52-3.42-8.31c-0.15-0.39-0.95-1.07-0.09-1.35 c0.67-0.21,1.62-0.43,2.03,0.81c0.71,2.13,1.62,4.19,2.45,6.28C200.07,161.64,200.22,161.93,200.43,162.38z"></path> <path class="st11" d="M181.92,130.56c1.23-1.15,2.33-1.77,3.75-1.67c2.05,0.14,3.33,1.21,3.61,3.25c0.33,2.43,0.07,4.88,0.15,7.31 c0.03,0.84-0.55,0.67-1.05,0.72c-0.65,0.06-0.92-0.15-0.91-0.85c0.02-2.16,0.06-4.32-0.06-6.47c-0.09-1.67-0.83-2.38-2.16-2.45 c-1.5-0.08-2.79,0.86-3.09,2.31c-0.1,0.5-0.12,1.02-0.12,1.54c-0.01,1.64-0.05,3.29,0.01,4.93c0.04,0.88-0.39,0.97-1.1,1.01 c-0.79,0.04-0.94-0.31-0.93-1c0.03-2.91,0-5.82,0.03-8.73c0-0.47-0.36-1.21,0.64-1.23C181.43,129.21,182.25,129.04,181.92,130.56z"></path> <path class="st5" d="M221.62,130.62c1.15-1.16,2.14-1.72,3.39-1.74c2.32-0.03,3.9,1.28,4.03,3.61c0.12,2.3,0.02,4.6,0.07,6.9 c0.02,0.79-0.4,0.78-0.97,0.79c-0.65,0.01-1.05-0.05-1.03-0.89c0.05-1.97,0.03-3.95,0.01-5.92c-0.03-2.08-0.77-2.98-2.36-2.98 c-1.69,0-2.98,1.27-3.02,3.05c-0.04,1.93-0.06,3.85,0.01,5.78c0.04,0.94-0.46,0.9-1.12,0.96c-0.82,0.07-0.9-0.33-0.9-1 c0.03-2.96,0.01-5.92,0.02-8.88c0-0.51-0.24-1.17,0.75-1.1C221.23,129.26,221.98,129.14,221.62,130.62z"></path> <path class="st5" d="M270.79,130.65c1.75-1.82,3.47-2.18,5.33-1.38c1.77,0.75,2.13,2.36,2.13,4.09c0.01,1.97-0.03,3.95,0.02,5.92 c0.02,0.8-0.32,0.91-1,0.91c-0.7,0-1.01-0.17-0.99-0.95c0.04-2.02,0.04-4.04-0.01-6.06c-0.04-1.9-0.76-2.75-2.26-2.78 c-1.64-0.04-3.03,1.15-3.1,2.82c-0.08,1.97-0.07,3.95-0.01,5.92c0.02,0.82-0.27,1.01-1.03,1.05c-0.85,0.04-1-0.3-0.99-1.06 c0.04-2.91,0-5.83,0.03-8.74c0-0.46-0.37-1.2,0.66-1.18C270.36,129.23,271.16,129.08,270.79,130.65z"></path> <path class="st5" d="M243.98,159.95c-0.02-4.32,3.33-6.97,7.13-5.85c1.39,0.41,2.39,1.27,2.89,2.65c0.13,0.37,0.49,0.95-0.06,1.07 c-0.53,0.12-1.28,0.42-1.74-0.35c-1.14-1.89-1.81-2.28-3.4-1.99c-1.36,0.25-2.44,1.53-2.74,3.23c-0.37,2.16,0.51,4.27,2.08,4.96 c1.71,0.76,3.39,0.21,4.06-1.53c0.4-1.03,1.19-0.8,1.71-0.63c0.76,0.25,0.23,0.93,0.04,1.38c-0.81,1.89-2.41,2.5-4.32,2.56 c-2.21,0.07-3.94-0.73-5.01-2.72C244.13,161.79,243.96,160.77,243.98,159.95z"></path> <path class="st11" d="M257.5,190.21c-1.93-0.05-2.96-0.98-3.03-2.78c-0.07-1.83-0.08-3.67-0.02-5.5c0.03-0.86-0.21-1.22-1.09-1.09 c-0.63,0.09-1.07-0.01-1.06-0.85c0.01-0.81,0.46-0.83,1-0.75c0.96,0.14,1.26-0.26,1.15-1.17c-0.06-0.46,0.01-0.94-0.02-1.41 c-0.04-0.67-0.01-1.15,0.93-1.12c0.83,0.02,1.09,0.3,1,1.07c-0.04,0.37,0.04,0.76-0.02,1.13c-0.15,1.08,0.09,1.72,1.37,1.48 c0.54-0.1,0.99-0.06,0.97,0.76c-0.02,0.73-0.34,0.93-0.95,0.83c-1.26-0.22-1.48,0.39-1.41,1.49c0.09,1.55,0.03,3.1,0.05,4.65 c0.01,0.8,0.34,1.44,1.18,1.49c0.78,0.05,1.31,0.06,1.19,1.1C258.62,190.61,257.79,189.94,257.5,190.21z"></path> <path class="st11" d="M247.54,140.26c-1.78,0.01-2.88-0.85-3.02-2.64c-0.15-1.87-0.13-3.75-0.08-5.62 c0.02-0.89-0.19-1.32-1.15-1.17c-0.58,0.09-0.95-0.03-0.96-0.79c-0.01-0.77,0.35-0.88,0.93-0.78c1.08,0.18,1.27-0.37,1.16-1.27 c-0.05-0.46,0.04-0.94-0.02-1.4c-0.11-0.87,0.33-0.97,1.06-0.99c0.82-0.03,0.94,0.34,0.89,1c-0.03,0.37,0.04,0.76-0.01,1.12 c-0.16,1.14,0.12,1.82,1.46,1.55c0.51-0.1,0.88-0.01,0.86,0.7c-0.02,0.67-0.22,0.98-0.9,0.87c-1.18-0.2-1.53,0.29-1.45,1.45 c0.11,1.49,0.02,3,0.03,4.5c0.01,0.96,0.39,1.69,1.45,1.71c0.68,0.01,1.02,0.07,1,0.89C248.77,140.38,248.12,140.22,247.54,140.26z "></path> <path class="st11" d="M250.05,190.2c-1.81-0.02-2.85-0.85-2.97-2.58c-0.13-1.92-0.11-3.85-0.08-5.77c0.01-0.78-0.2-1.11-1.01-1.02 c-0.55,0.06-1.1,0.14-1.11-0.78c-0.01-0.88,0.47-0.91,1.06-0.82c0.91,0.14,1.15-0.27,1.06-1.1c-0.06-0.51,0.03-1.04-0.02-1.55 c-0.08-0.79,0.21-1.04,1.02-1.05c0.79,0,0.98,0.3,0.91,0.99c-0.04,0.37,0.03,0.76-0.01,1.13c-0.15,1.13,0.09,1.83,1.46,1.56 c0.49-0.1,0.91-0.05,0.88,0.68c-0.03,0.63-0.17,1.04-0.87,0.9c-1.37-0.27-1.54,0.44-1.48,1.57c0.09,1.45,0.01,2.91,0.03,4.36 c0.01,0.87,0.3,1.64,1.3,1.71c0.74,0.05,1.25,0.03,1.15,1.03C251.25,190.5,250.5,190.08,250.05,190.2z"></path> <path class="st5" d="M193.22,134.48c0-0.66-0.05-1.32,0.01-1.97c0.1-1.1,0.03-1.96-1.47-1.69c-0.66,0.12-0.54-0.45-0.58-0.85 c-0.06-0.55,0.15-0.82,0.7-0.7c1.33,0.27,1.46-0.48,1.34-1.5c-0.05-0.46,0.03-0.94-0.02-1.41c-0.08-0.84,0.48-0.73,1-0.74 c0.54-0.01,1.07-0.07,0.97,0.75c-0.04,0.37,0.03,0.75-0.01,1.12c-0.15,1.24,0.04,2.13,1.63,1.78c0.61-0.13,0.69,0.25,0.66,0.74 c-0.02,0.44,0.01,0.95-0.62,0.82c-1.87-0.37-1.71,0.84-1.67,2.03c0.04,1.31,0.01,2.63,0.01,3.94c0,1.06,0.47,1.73,1.58,1.72 c0.61,0,0.83,0.15,0.82,0.78c-0.01,0.62-0.17,0.92-0.86,0.98c-1.88,0.16-3.24-0.82-3.43-2.7c-0.11-1.02-0.02-2.06-0.02-3.09 C193.25,134.48,193.23,134.48,193.22,134.48z"></path> <path class="st6" d="M176.41,132.26c0,2.26-0.03,4.51,0.01,6.77c0.01,0.79-0.11,1.2-1.06,1.18c-0.85-0.01-1.12-0.22-1.11-1.11 c0.05-4.6,0.04-9.21,0-13.81c-0.01-0.81,0.24-1.03,1.03-1.03c0.84,0,1.16,0.2,1.14,1.1C176.38,127.65,176.41,129.95,176.41,132.26z "></path> <path class="st12" d="M191.12,157.2c0-2.3,0.03-4.6-0.02-6.9c-0.02-0.78,0.18-1.04,1-1.04c0.83,0,1.01,0.28,1,1.05 c-0.03,4.6-0.03,9.2,0,13.8c0.01,0.79-0.21,1.04-1.02,1.05c-0.85,0.01-0.99-0.31-0.98-1.06C191.14,161.8,191.12,159.5,191.12,157.2 z"></path> <path class="st11" d="M213.82,130.88c1-1.27,1.91-1.96,3.19-2c0.48-0.02,0.91,0,0.77,0.62c-0.1,0.44,0.48,1.24-0.58,1.24 c-2.5-0.01-3.37,1.72-3.35,3.95c0.02,1.55-0.04,3.1,0.02,4.65c0.04,0.9-0.5,0.79-1.08,0.83c-0.66,0.04-0.92-0.14-0.92-0.84 c0.03-2.96,0.02-5.92,0.01-8.88c0-0.67-0.1-1.21,0.95-1.25C213.97,129.14,213.9,129.74,213.82,130.88z"></path> <path class="st11" d="M242.92,184.59c0,1.6-0.05,3.2,0.02,4.79c0.04,0.94-0.55,0.75-1.09,0.8c-0.65,0.06-0.91-0.12-0.91-0.84 c0.04-3.1,0.05-6.21-0.01-9.31c-0.01-0.86,0.41-0.85,1.03-0.86c0.67-0.01,1.02,0.07,0.98,0.89 C242.87,181.58,242.92,183.08,242.92,184.59z"></path> <path class="st6" d="M241.4,159.76c0,1.5-0.05,3,0.02,4.5c0.04,0.85-0.4,0.85-1.03,0.88c-0.71,0.03-0.98-0.14-0.96-0.92 c0.05-3.05,0.04-6.1,0-9.14c-0.01-0.79,0.31-0.92,1-0.92c0.71,0,1.01,0.19,0.99,0.95C241.37,156.66,241.4,158.21,241.4,159.76z"></path> <path class="st13" d="M253.03,134.63c0,1.55-0.04,3.1,0.02,4.65c0.03,0.82-0.37,0.89-1.03,0.91c-0.72,0.02-0.99-0.17-0.98-0.93 c0.04-3.05,0.05-6.11,0-9.16c-0.01-0.83,0.35-0.88,1-0.88c0.67,0,1.04,0.08,1.01,0.9C252.99,131.62,253.03,133.12,253.03,134.63z"></path> <path class="st14" d="M243.07,176.04c0.18,0.89-0.13,1.2-1.09,1.22c-1.05,0.02-1.22-0.38-1.19-1.29c0.02-0.83,0.11-1.25,1.13-1.24 C242.96,174.73,243.26,175.1,243.07,176.04z"></path> <path class="st15" d="M253.09,125.96c0.23,1-0.16,1.25-1.1,1.25c-0.93,0-1.17-0.29-1.18-1.2c-0.01-0.99,0.27-1.25,1.26-1.26 C253.12,124.73,253.29,125.16,253.09,125.96z"></path> <path class="st11" d="M241.49,151.1c0.27,0.99-0.34,1.01-1.15,1.07c-1.02,0.07-1.07-0.39-1.12-1.21c-0.06-1.06,0.37-1.16,1.28-1.21 C241.67,149.68,241.56,150.33,241.49,151.1z"></path> <path class="st2" d="M55.34,148.81c-1.32-0.04-2.64-0.08-3.96-0.12c0-1.24,0.01-2.48,0.01-3.73c1.31-0.28,2.64-0.05,3.96-0.13 c1.2,0.21,2.4,0.42,3.6,0.62c0.47-0.21,0.92-0.07,1.37,0.09c8.63,3.11,14,9.08,15.86,18.11c0.15,0.72,0.33,1.48-0.25,2.14 c-1.44,0.38-2.7-0.1-3.93-0.77c-0.53-0.81-0.54-1.78-0.83-2.67c-1.98-6.13-6-10.28-12.11-12.39 C57.84,149.48,56.41,149.73,55.34,148.81z"></path> <path class="st3" d="M104.86,148.8c-1.26-0.04-2.52-0.08-3.78-0.12c-0.04-0.09-0.1-0.17-0.1-0.26c-0.26-3.66,0.05-3.9,4.41-3.4 c1.1,0,2.16,0.28,3.22,0.52c8.85,2.69,14.49,8.42,16.63,17.47c0.2,0.86,0.26,1.75,0.38,2.63c-1.35-0.04-2.65-0.35-3.91-0.85 c-0.37-0.33-0.51-0.76-0.63-1.23c-1.51-6.14-5.12-10.54-10.97-13.06c-0.43-0.18-0.89-0.32-1.12-0.79 C107.66,149.21,106.28,148.94,104.86,148.8z"></path> <path class="st16" d="M105.38,145.02c-1.02,0.01-2.04,0.08-3.06,0.01c-1-0.07-1.32,0.33-1.24,1.29c0.07,0.78,0,1.58,0,2.36 c-0.07,0.05-0.15,0.08-0.23,0.09c0-1.34-0.01-2.67-0.01-4.01c1.38,0.01,2.75,0.02,4.13,0.03 C105.11,144.88,105.25,144.95,105.38,145.02z"></path> <path class="st4" d="M72.01,164.72c1.28,0.58,2.61,0.93,4.03,0.88c1.32-0.56,2.64-0.66,3.93,0.09c-0.01,0.87-0.03,1.74-0.03,2.61 c0,0.45,0.1,0.93-0.41,1.2c-1.09,0-2.18,0-3.28,0c-1.3-0.23-2.61-0.45-3.91-0.68c-9.46-2.82-15.09-9.08-16.92-18.76 c-0.08-0.41-0.06-0.84-0.08-1.26c1.33,0.22,2.66,0.41,3.94,0.87c0.46,0.51,0.54,1.18,0.71,1.81c1.61,5.84,5.25,9.92,10.76,12.39 C71.23,164.09,71.69,164.29,72.01,164.72z"></path> <path class="st17" d="M83.9,168.77c-0.01,0.09-0.04,0.18-0.09,0.26c-0.34-0.84-0.38-1.67,0.01-2.51 C83.85,167.27,83.87,168.02,83.9,168.77z"></path> <path class="st18" d="M97.08,145.93c0,0.74,0.01,1.48,0.01,2.23C96.71,147.42,96.76,146.67,97.08,145.93z"></path> <path class="st5" d="M276.25,190.48c-3.54-1.85-4.8-5.03-3.35-8.46c1.02-2.42,3.57-3.67,6.14-3.02c2.22,0.56,3.85,3.01,3.67,5.4 c-0.05,0.75-0.5,0.65-0.96,0.65c-2.12,0-4.23,0.04-6.35-0.02c-0.89-0.03-1.04,0.32-0.87,1.07c0.31,1.39,1.03,2.4,2.49,2.73 c1.62,0.36,2.58-0.04,3.47-1.59c0.47-0.81,1.22-0.54,1.72-0.4c0.68,0.18,0.15,0.76,0.01,1.14c-0.56,1.44-1.88,1.94-3.15,2.5 C278.13,190.48,277.19,190.48,276.25,190.48z M279.61,183.68c0.93,0.09,1.04-0.37,0.85-1.08c-0.32-1.27-1.15-2.04-2.45-2.19 c-1.39-0.16-2.48,0.39-3.15,1.65c-0.68,1.28-0.48,1.61,0.94,1.61c0.56,0,1.13,0,1.69,0C278.2,183.66,278.91,183.61,279.61,183.68z"></path> <path class="st5" d="M264.1,190.48c-3.57-1.82-4.87-5.14-3.34-8.58c1.05-2.35,3.56-3.55,6.08-2.91c2.22,0.56,3.86,3.03,3.67,5.41 c-0.06,0.75-0.52,0.64-0.98,0.64c-2.07,0-4.15,0.06-6.21-0.02c-1.16-0.05-1.22,0.39-0.95,1.31c0.41,1.39,1.2,2.33,2.68,2.53 c1.42,0.19,2.64-0.13,3.25-1.59c0.41-0.97,1.28-0.56,1.8-0.41c0.6,0.17,0.09,0.79-0.07,1.17c-0.63,1.48-1.97,2.02-3.38,2.45 C265.79,190.48,264.95,190.48,264.1,190.48z M267.51,183.68c0.86,0.07,0.94-0.36,0.78-1.02c-0.31-1.27-1.1-2.07-2.4-2.25 c-1.39-0.19-2.49,0.34-3.19,1.58c-0.74,1.32-0.52,1.66,1,1.67c0.52,0,1.04,0,1.55,0C266.01,183.66,266.76,183.61,267.51,183.68z"></path> <path class="st5" d="M193.47,190.48c-3.44-2.07-4.51-4.26-3.69-7.55c0.66-2.68,2.78-4.21,5.62-4.05c2.53,0.14,4.51,2.05,4.84,4.66 c0.44,3.44-0.87,5.58-4.23,6.94C195.17,190.48,194.32,190.48,193.47,190.48z M198.06,182.98c-0.53-1.69-1.7-2.66-3.23-2.61 c-1.53,0.05-2.66,1.09-3.08,2.78c-0.33,1.32-0.25,2.6,0.29,3.84c0.53,1.23,1.49,1.93,2.84,1.94c1.33,0,2.33-0.62,2.9-1.84 c0.34-0.73,0.53-1.5,0.5-2.12C198.28,184.17,198.25,183.58,198.06,182.98z"></path> <path class="st5" d="M293.2,132.08c0-2.16-0.01-4.31,0-6.47c0-0.49-0.14-1.1,0.68-1.12c0.8-0.02,0.73,0.55,0.73,1.07 c0,4.45,0,8.91,0,13.36c0,0.53,0.05,1.08-0.75,1.05c-0.82-0.04-0.65-0.65-0.66-1.14C293.19,136.58,293.2,134.33,293.2,132.08z"></path> <path class="st4" d="M173.37,157.19c0-5.91,4.77-9.66,10.01-7.87c3.63,1.24,5.74,5.44,4.88,9.7c-0.88,4.37-4.06,6.79-8.38,6.38 C176.05,165.03,173.37,161.66,173.37,157.19z M186.11,155.56c-0.41-2.8-2.33-4.73-4.81-4.87c-2.78-0.15-4.8,1.35-5.51,4.18 c-0.44,1.76-0.41,3.53,0.18,5.26c0.79,2.34,2.57,3.61,4.96,3.59c2.35-0.02,4.14-1.38,4.88-3.72c0.29-0.9,0.39-1.83,0.41-2.77 C186.19,156.68,186.19,156.11,186.11,155.56z"></path> <path class="st5" d="M228.2,163.96c0,1.76-0.05,3.43,0.02,5.1c0.03,0.83-0.34,0.9-1.01,0.88c-0.62-0.02-1.01-0.02-1-0.88 c0.05-4.56,0.02-9.11,0.03-13.67c0-0.54-0.28-1.28,0.8-1.22c0.79,0.04,1.54-0.03,0.97,1.48c1.35-1.2,2.52-1.91,4.01-1.82 c1.43,0.09,2.64,0.61,3.55,1.74c1.83,2.26,1.67,6.44-0.31,8.47C233.45,165.89,230.75,165.89,228.2,163.96z M230.91,155.45 c-1.72,0.27-2.8,1.86-2.82,4.14c-0.01,2.57,1.4,4.36,3.41,4.34c1.96-0.02,3.27-1.74,3.27-4.3 C234.78,156.79,233.2,155.09,230.91,155.45z"></path> <path class="st5" d="M287.83,139c-1.39,1.41-2.88,1.69-4.54,1.28c-1.45-0.35-2.4-1.45-2.51-2.85c-0.12-1.44,0.59-2.6,2.01-3.22 c1.13-0.49,2.37-0.55,3.57-0.75c0.63-0.11,1.39-0.13,1.47-1.01c0.09-0.91-0.37-1.51-1.2-1.85c-1.44-0.59-2.96-0.07-3.46,1.38 c-0.39,1.17-1.27,0.7-1.82,0.58c-0.63-0.14-0.12-0.8,0.01-1.16c0.62-1.75,2.41-2.66,4.73-2.47c2,0.16,3.2,1.11,3.5,3.02 c0.39,2.51,0.09,5.06,0.16,7.59c0.02,0.55-0.35,0.54-0.74,0.58C288.28,140.2,287.75,140.05,287.83,139z M284.74,135.24 c-1.43,0.31-2.17,1.23-1.91,2.29c0.26,1.1,1.25,1.59,2.69,1.35c1.75-0.29,2.48-1.58,2.3-4.19 C286.75,134.89,285.74,135.03,284.74,135.24z"></path> <path class="st5" d="M231.96,132.51c0.38-2.47,1.98-3.72,4.65-3.61c2.47,0.1,3.82,1.34,3.95,3.84c0.11,2.06,0.05,4.13,0.03,6.19 c0,0.5,0.26,1.18-0.71,1.19c-0.75,0-1.41,0.02-1.21-1.21c-1.37,1.46-2.85,1.78-4.52,1.38c-1.46-0.35-2.41-1.42-2.53-2.83 c-0.13-1.45,0.56-2.6,1.98-3.24c1.13-0.5,2.36-0.56,3.56-0.76c0.68-0.11,1.48-0.14,1.51-1.13c0.03-0.86-0.43-1.4-1.19-1.72 c-1.25-0.53-2.78-0.11-3.34,0.94C233.51,132.74,233.51,132.74,231.96,132.51z M235.58,135.25c-1.43,0.31-2.17,1.23-1.91,2.29 c0.27,1.1,1.25,1.6,2.68,1.35c1.74-0.3,2.49-1.62,2.3-4.19C237.59,134.89,236.57,135.03,235.58,135.25z"></path> <path class="st5" d="M209.16,136.84c-0.43,2.18-1.67,3.29-3.97,3.62c-2.35,0.34-4.58-0.67-5.47-2.6c-0.93-2.01-0.98-4.1-0.03-6.12 c1.09-2.33,3.65-3.4,6.17-2.67c2.08,0.6,3.56,2.94,3.45,5.27c-0.03,0.72-0.38,0.7-0.89,0.7c-2.12-0.01-4.23,0.04-6.35-0.03 c-0.95-0.03-1.17,0.32-0.96,1.14c0.34,1.37,1.06,2.41,2.53,2.71c1.62,0.34,2.64-0.08,3.41-1.5 C207.63,136.33,208.43,136.95,209.16,136.84z M206.35,133.7c0.84,0.05,0.92-0.31,0.75-1.02c-0.3-1.3-1.08-2.04-2.36-2.25 c-1.37-0.22-2.66,0.46-3.26,1.67c-0.66,1.33-0.52,1.58,0.94,1.59c0.56,0,1.12,0,1.69,0C204.85,133.69,205.61,133.65,206.35,133.7z"></path> <path class="st5" d="M255.59,134.61c0.02-3.42,2.21-5.75,5.39-5.73c3.18,0.02,5.36,2.38,5.36,5.78c0,3.37-2.24,5.81-5.35,5.84 C257.8,140.53,255.58,138.1,255.59,134.61z M257.84,136.42c0.52,1.65,1.59,2.53,3.12,2.51c1.52-0.02,2.67-0.95,3.12-2.54 c0.4-1.4,0.32-2.78-0.28-4.11c-0.55-1.21-1.52-1.88-2.88-1.87c-1.36,0-2.29,0.7-2.86,1.9c-0.34,0.73-0.5,1.5-0.46,2.37 C257.58,135.24,257.65,135.83,257.84,136.42z"></path> </g> </svg>