<svg xmlns="http://www.w3.org/2000/svg" xmlns:xlink="http://www.w3.org/1999/xlink" id="Layer_1" x="0px" y="0px" viewBox="0 0 300 300" style="enable-background:new 0 0 300 300;" xml:space="preserve"> <style type="text/css"> .st0{fill:#010101;} .st1{fill:#FFFFFF;} .st2{fill:#519F45;} .st3{fill:#EE3541;} .st4{fill:#03B5E1;} .st5{fill:#0A83BE;} .st6{fill:#EE2E4C;} .st7{fill:#FBAB1B;} .st8{fill:#040305;} .st9{fill:#048D49;} .st10{fill:#EC2227;} .st11{fill:#040405;} .st12{fill:#FEFFFF;} .st13{fill:#FFFDFD;} .st14{fill:#FFFDFC;} .st15{fill:#FFFCFC;} .st16{fill:#FFFFFE;} </style> <g> <path class="st0" d="M149.59,247.73c-0.48-2.21-1.06-4.29-2.11-6.23c-1.09-2.03-2.53-3.74-4.29-5.23 c-0.54-0.46-1.09-0.56-1.76-0.56c-18.53,0.01-37.06,0.01-55.59,0.01c-10.51,0-18.91-6.66-21.29-16.87 c-0.3-1.29-0.44-2.61-0.44-3.93c0-49.6,0-99.21-0.02-148.81c0-0.95,0.15-1.26,1.2-1.26c56.16,0.03,112.31,0.03,168.47,0 c1.04,0,1.2,0.29,1.2,1.24c-0.02,49.3-0.02,98.6-0.02,147.9c0,10.71-7.07,19.33-17.57,21.41c-1.34,0.26-2.7,0.32-4.07,0.32 c-18.53-0.01-37.06,0-55.59-0.03c-0.86,0-1.5,0.25-2.13,0.8c-3.33,2.91-5.28,6.55-5.91,10.91 C149.66,247.52,149.62,247.62,149.59,247.73z"></path> <path class="st1" d="M149.54,239.76c-1.41-2.3-3.09-4.27-5.18-5.88c-0.63-0.48-1.24-0.72-2.06-0.72 c-18.8,0.02-37.59,0.08-56.39-0.01c-8.19-0.04-14.18-3.87-17.69-11.35c-1.07-2.28-1.54-4.72-1.54-7.25 c0-48.58,0.01-97.16-0.03-145.75c0-1.15,0.28-1.39,1.4-1.39c54.3,0.03,108.6,0.03,162.91,0c1.13,0,1.48,0.22,1.48,1.44 c-0.04,48.28-0.03,96.56-0.03,144.84c0,9.3-5.71,16.74-14.52,18.93c-1.62,0.4-3.28,0.55-4.94,0.55 c-18.72,0.01-37.44,0.01-56.16-0.01c-0.81,0-1.43,0.21-2.06,0.71C152.66,235.51,150.92,237.42,149.54,239.76z"></path> <path class="st2" d="M226.33,196.83c0.03,0.14,0.1,0.29,0.09,0.43c-0.05,6.21,0.16,12.43-0.1,18.64 c-0.24,5.83-5.48,11.19-11.28,11.62c-1.02,0.08-2.04,0.12-3.06,0.12c-18.64,0.01-37.29,0.02-55.93-0.02c-1.6,0-2.92,0.29-4.15,1.36 c-0.75,0.65-1.52,1.75-2.42,1.68c-0.82-0.07-1.62-1.03-2.34-1.68c-1.16-1.05-2.46-1.36-4.03-1.35 c-19.06,0.05-38.12,0.03-57.18,0.03c-4.31,0-7.88-1.58-10.59-4.97c-1.71-2.14-2.66-4.61-2.69-7.32 c-0.08-6.06-0.02-12.13-0.02-18.19c0-0.11,0.04-0.22,0.06-0.33c0.32-0.34,0.74-0.34,1.16-0.36c0.42-0.02,0.83-0.01,1.25-0.01 c49.6,0,99.2,0,148.81,0.01C224.73,196.47,225.59,196.27,226.33,196.83z"></path> <path class="st3" d="M226.33,196.83c-51.21,0-102.43,0-153.64,0c-0.02-1.97-0.05-3.94-0.05-5.91c0.01-8.26,0.02-16.52,0.03-24.78 c0.31-0.35,0.74-0.35,1.15-0.37c0.42-0.02,0.83-0.01,1.25-0.01c49.62,0,99.24,0,148.86,0.01c0.81,0,1.68-0.23,2.41,0.37 c0.02,2.79,0.04,5.59,0.05,8.38c0.01,7.02,0,14.05,0,21.07C226.39,196,226.35,196.42,226.33,196.83z"></path> <path class="st4" d="M226.34,166.14c-19.21,0-38.42-0.01-57.62-0.01c-31.52,0-63.04,0-94.56,0c-0.49,0-0.98,0.01-1.48,0.01 c-0.02-0.34-0.06-0.68-0.06-1.02c0-9.51,0.01-19.02-0.02-28.53c0-0.91,0.19-1.23,1.17-1.23c6.25,0.05,12.5,0.02,18.75,0.02 c0.53,0,0.99-0.04,1.33,0.58c3.53,6.57,9.07,10.16,16.44,10.99c0.75,0.08,1.06,0.26,1.25,1.07c1.85,7.99,9.32,14.32,17.18,15.21 c9.45,1.07,18.37-4.61,21.46-13.26c0.05-0.13,0.15-0.25,0.29-0.48c0.76,1.83,1.5,3.56,2.59,5.09c4.73,6.61,11.29,9.45,19.22,8.45 c8.82-1.11,14.37-6.38,16.92-14.82c0.3-0.99,0.73-1.29,1.65-1.39c7.09-0.78,12.38-4.32,15.83-10.56c0.33-0.59,0.66-0.9,1.39-0.9 c5.8,0.03,11.59,0.03,17.39,0c0.77,0,1.04,0.2,1.04,1.01c-0.02,9.66-0.02,19.32-0.02,28.98 C226.49,165.64,226.53,165.91,226.34,166.14z"></path> <path class="st5" d="M113.26,144.65c-9.37,0.7-17.94-6.02-19.08-15.35c-1.15-9.4,4.13-17.44,13-19.82 c10.51-2.82,20.73,3.89,22.34,14.67c0.05,0.34,0.11,0.67,0.16,1.01c0.21,1.09-0.04,2.21,0.22,3.3c-0.17,3.13-1.14,6.01-2.99,8.53 c-2.37,3.23-5.29,5.79-9.21,7.01c-0.44,0.14-0.92,0.46-1.36-0.03c-0.3-1.07-0.26-2.12,0.12-3.15c0.21-0.44,0.61-0.67,1.02-0.85 c4.78-2.15,7.48-5.96,8.73-10.93c0.27-1.1,0.25-2.21,0.08-3.32c-0.43-3.02-1.5-5.78-3.43-8.16c-2.22-2.74-5.11-4.35-8.55-4.95 c-6.37-1.11-12.04,2.06-14.85,6.94c-5.17,8.99,0.36,19.88,10.43,21.48c0.86,0.14,1.72,0.28,2.59,0.27 c0.37-0.01,0.77,0.02,0.99,0.42C113.64,142.71,113.91,143.71,113.26,144.65z"></path> <path class="st6" d="M171.18,125.25c0.65-7.51,4.6-12.68,11.56-15.24c7.12-2.62,13.63-1.09,18.96,4.34 c5.04,5.13,6.32,11.41,4.09,18.15c-2.23,6.74-7.19,10.65-14.16,11.96c-1.34,0.25-2.72,0.21-4.08,0.12 c-1.04,0.4-2.01-0.17-3.02-0.21c-6.96-1.51-12.79-7.93-13.64-15.01c-0.05-0.38-0.13-0.76,0.19-1.07c1.15-0.33,2.17,0.04,3.17,0.55 c0.53,0.45,0.56,1.13,0.76,1.73c1.54,4.78,4.61,8.12,9.33,9.9c1.04,0.44,2.14,0.6,3.25,0.73c6.04,0.2,10.83-2.14,13.83-7.41 c3.07-5.41,2.6-10.88-1.15-15.76c-5.26-6.86-15.06-7.78-21.35-1.52c-2.3,2.29-3.78,4.98-4.32,8.18c-0.07,0.4-0.04,0.85-0.44,1.12 C173.07,126.02,172.05,126.04,171.18,125.25z"></path> <path class="st7" d="M116.72,140.6c-0.31,1.15-0.26,2.32-0.21,3.49c0.43,0.58,0.43,1.28,0.59,1.94c1.47,6.07,5.2,9.97,11.33,11.17 c7.91,1.55,14.59-3.36,16.62-10.37c0.27-0.94,0.25-1.95,0.77-2.82c1.08,0.14,2.24-0.1,3.16,0.73c-0.33,7.36-6.66,14.5-14.11,15.93 c-10.8,2.07-20.2-4.89-21.62-16.01c0-1.04,0-2.08,0-3.13c-0.28-0.32-0.25-0.7-0.19-1.08c0.55-3.4,1.92-6.41,4.16-9.04 c2.18-2.57,4.84-4.41,8.01-5.52c0.43-0.15,0.85-0.32,1.32-0.19c0.26,1.22,0.27,2.42-0.18,3.6c-0.26,0.28-0.58,0.46-0.93,0.62 c-4.04,1.85-6.71,4.91-8.1,9.11C117.18,139.56,117.07,140.13,116.72,140.6z"></path> <path class="st8" d="M132.41,125.36c0.84-6.2,3.68-11.16,9.26-14.23c10.04-5.51,23.32-0.57,26.13,11.74c0.17,0.73,0.2,1.5,0.3,2.25 c0.59,0.94,0.26,1.98,0.33,2.98c-0.34,7.12-5.29,13.65-12.06,15.91c-0.46,0.15-0.92,0.39-1.42,0.14c-0.76-1.17-0.05-2.34-0.01-3.52 c0.11-0.27,0.35-0.37,0.6-0.47c4.99-2.09,7.97-5.84,9.11-11.1c0.26-1.07,0.15-2.15,0.17-3.23c-0.74-5.4-3.35-9.56-8.3-11.99 c-8.37-4.12-18.35,1-20.29,10.13c-0.15,0.71,0,1.56-0.75,2.06C134.41,126.04,133.33,126.06,132.41,125.36z"></path> <path class="st9" d="M155.18,140.44c0.08,1.21-0.51,2.41-0.07,3.63c0.22,0.28,0.25,0.62,0.3,0.96c0.87,6.46,6.43,11.76,12.94,12.4 c7.72,0.76,14.23-5.01,15.57-11.87c0.1-0.52,0.11-1.06,0.5-1.48c1.04,0.16,2.08,0.32,3.12,0.48c-0.75,6.32-3.72,11.28-9.39,14.27 c-10.57,5.57-24.42-0.16-26.24-13.64c-0.02-0.15-0.06-0.3-0.09-0.44c-0.38-1.08-0.26-2.21-0.28-3.32 c0.9-7.64,5.11-12.71,12.13-15.58c0.45-0.18,0.91-0.39,1.42-0.2c0.12,1.22,0.23,2.43-0.21,3.62c-0.42,0.46-1.03,0.62-1.56,0.89 c-3.67,1.88-6.15,4.75-7.41,8.68C155.74,139.4,155.74,140.05,155.18,140.44z"></path> <path class="st10" d="M150.45,88.41c1.94,1.25,2.6,2.78,2.13,4.71c-0.45,1.88-1.99,3.29-4.05,3.39c-2.64,0.13-5.29,0.08-7.94,0.12 c-0.49,0.01-0.65-0.19-0.65-0.67c0.01-4.62,0.01-9.23,0-13.85c0-0.48,0.16-0.68,0.65-0.67c2.68,0.03,5.38-0.05,8.05,0.1 c2.37,0.14,3.72,1.9,3.53,4.26C152.09,86.94,151.57,87.82,150.45,88.41z"></path> <path class="st10" d="M209.94,86.33c0,3.05-0.04,6.1,0.02,9.15c0.02,0.95-0.22,1.22-1.17,1.18c-1.89-0.08-1.89-0.02-1.89-1.93 c0-4.09,0.02-8.18-0.02-12.27c-0.01-0.78,0.2-0.95,0.99-1.04c1.8-0.21,2.86,0.38,3.7,2.06c1.36,2.74,3.01,5.32,4.55,7.98 c0.41-0.19,0.22-0.54,0.22-0.79c0.02-2.73,0.03-5.45,0-8.18c-0.01-0.74,0.12-1.07,0.97-1.06c2.14,0.02,2.14-0.02,2.14,2.15 c0,4.01-0.02,8.03,0.02,12.04c0.01,0.78-0.22,0.96-1,1.04c-1.67,0.18-2.65-0.35-3.44-1.91c-1.49-2.9-3.25-5.66-4.89-8.48 C210.06,86.3,210,86.31,209.94,86.33z"></path> <path class="st10" d="M135.14,89.39c1.59,0.75,1.79,2.14,1.8,3.63c0.03,2.33,0.03,2.33,0.66,3.51c-1.1,0.19-2.18,0.09-3.26,0.07 c-0.57-0.01-0.55-0.57-0.58-0.95c-0.1-1.05-0.16-2.11-0.19-3.17c-0.03-1.18-0.7-1.68-1.77-1.81c-0.11-0.01-0.23-0.01-0.34-0.02 c-3.31-0.16-3.31-0.16-3.31,3.12c0,0.45,0.01,0.91,0,1.36c-0.03,1.73,0.24,1.47-1.51,1.49c-1.71,0.02-1.71,0-1.71-1.76 c0-4.09,0.03-8.18-0.02-12.27c-0.01-0.98,0.29-1.2,1.21-1.17c2.42,0.08,4.85-0.05,7.27,0.09c3.19,0.18,4.93,3.49,3.44,6.31 C136.46,88.55,135.85,88.96,135.14,89.39z"></path> <path class="st10" d="M110.84,89.02c0-2.16,0.03-4.32-0.02-6.48c-0.02-0.8,0.13-1.13,1.04-1.11c3.14,0.06,6.29,0.05,9.43,0 c0.78-0.01,1,0.26,0.91,0.97c-0.04,0.3-0.04,0.61,0,0.91c0.08,0.64-0.18,0.84-0.82,0.83c-2.12-0.04-4.24,0.02-6.36-0.03 c-0.77-0.02-1.04,0.18-1.03,1c0.03,2.26-0.01,2.26,2.26,2.26c1.48,0,2.95,0.03,4.43-0.01c0.61-0.02,0.85,0.12,0.86,0.8 c0.01,1.83,0.05,1.83-1.74,1.83c-1.63,0-3.26,0.03-4.89-0.01c-0.67-0.02-0.91,0.14-0.92,0.87c-0.04,3.03-0.07,3.03,2.95,3.03 c1.59,0,3.18,0.04,4.77-0.02c0.77-0.03,0.95,0.23,0.93,0.96c-0.03,1.83,0.01,1.83-1.85,1.83c-2.92,0-5.83-0.05-8.75,0.03 c-1.05,0.03-1.25-0.32-1.22-1.28C110.89,93.26,110.84,91.14,110.84,89.02z"></path> <path class="st10" d="M92.13,96.63c-1.31,0.43-1.88-0.39-2.07-1.7c-0.16-1.12-0.74-1.56-1.92-1.42c-1.01,0.13-2.05,0.09-3.06,0.01 c-0.86-0.07-1.33,0.17-1.53,1.05c-0.16,0.68-0.2,1.7-0.78,1.91c-0.84,0.31-1.87,0.2-2.8,0.11c-0.78-0.08-0.24-0.61-0.13-0.92 c1.53-4.27,3.11-8.52,4.59-12.8c0.37-1.07,0.83-1.54,2.05-1.47c2.22,0.13,2.21,0.04,2.99,2.19c1.4,3.91,2.82,7.81,4.23,11.72 c0.47,1.3,0.47,1.3-0.92,1.3C92.62,96.63,92.47,96.63,92.13,96.63z"></path> <path class="st10" d="M204.47,96.63c-1.06,0-2.04-0.03-3.02,0.01c-0.61,0.02-0.62-0.45-0.75-0.81c-0.82-2.28-0.82-2.28-3.19-2.28 c-0.19,0-0.38,0-0.57,0c-0.87,0.02-1.93-0.24-2.54,0.16c-0.55,0.36-0.66,1.45-0.89,2.25c-0.17,0.6-0.54,0.68-1.09,0.69 c-2.63,0.03-2.63,0.05-1.73-2.41c1.43-3.93,2.87-7.86,4.27-11.81c0.25-0.69,0.54-1.01,1.35-1c2.74,0.04,2.73,0,3.65,2.54 c1.41,3.9,2.82,7.8,4.22,11.7C204.28,95.95,204.35,96.24,204.47,96.63z"></path> <path class="st10" d="M155.08,96.56c1-2.75,1.98-5.43,2.96-8.11c0.73-2.02,1.47-4.04,2.16-6.07c0.22-0.66,0.53-0.95,1.28-0.94 c2.77,0.01,2.78-0.02,3.72,2.58c1.41,3.9,2.8,7.81,4.25,11.69c0.28,0.77,0.14,0.94-0.66,0.94c-2.53,0-2.57,0.04-3.35-2.39 c-0.2-0.62-0.5-0.73-1.05-0.72c-1.36,0.03-2.73,0.04-4.09-0.01c-0.61-0.02-0.85,0.22-1.04,0.76c-0.87,2.42-0.88,2.41-3.49,2.34 C155.57,96.62,155.39,96.59,155.08,96.56z"></path> <path class="st10" d="M104.39,84.12c-2.42,0-4.57-0.04-6.72,0.02c-0.81,0.02-1.09-0.22-0.98-1.01c0.05-0.33,0.03-0.68,0-1.02 c-0.04-0.47,0.1-0.67,0.62-0.67c3.49,0.02,6.97,0.02,10.46,0c0.55,0,0.69,0.2,0.72,0.73c0.05,1.13-0.14,2.07-0.93,3.01 c-2.37,2.8-4.62,5.7-7.09,8.78c1.71,0,3.2,0,4.68,0c0.68,0,1.37,0.07,2.04-0.02c1.06-0.13,1.28,0.28,1.32,1.3 c0.04,1.19-0.34,1.44-1.46,1.41c-3.18-0.08-6.37-0.05-9.55-0.01c-0.78,0.01-0.99-0.21-1.04-1.01c-0.07-1.22,0.32-2.14,1.09-3.07 C99.82,89.87,102,87.11,104.39,84.12z"></path> <path class="st11" d="M151.73,141.36c0.12,1.13,0.27,2.26,0.1,3.39c-0.95-0.01-1.89-0.01-2.84-0.02c-1.05-0.19-2.09-0.39-3.14-0.58 c-1.5,0.25-2.74-0.54-3.92-1.19c-5.3-2.91-8.45-7.42-9.64-13.33c-0.09-0.47-0.28-0.97,0.17-1.38c1.23-0.38,2.35-0.09,3.41,0.56 c0.34,0.43,0.4,0.97,0.54,1.47c1.31,4.71,4.27,7.97,8.72,9.93c0.21,0.09,0.43,0.14,0.65,0.18c1.11,0.31,2.22,0.66,3.39,0.62 C150.03,141.08,150.94,140.76,151.73,141.36z"></path> <path class="st9" d="M168.12,128.52c-0.01-1.13-0.01-2.27-0.02-3.4c1.03,0.04,2.05,0.09,3.08,0.13c0.97,0.23,1.95,0.42,2.95,0.45 c0.38-0.11,0.74-0.02,1.11,0.1c7.01,2.32,10.95,7.29,12.41,14.4c0.08,0.4,0.14,0.83-0.14,1.2c-1.18,0.01-2.32-0.17-3.37-0.74 c-0.34-0.3-0.37-0.72-0.48-1.12c-1.17-4.18-3.7-7.26-7.51-9.32c-0.63-0.34-1.32-0.57-1.81-1.13c-1.06-0.38-2.13-0.72-3.28-0.68 C170.1,128.91,169.12,128.82,168.12,128.52z"></path> <path class="st7" d="M148.99,141.33c-1.18,0.02-2.29-0.28-3.38-0.7c-0.33-0.26-0.36-0.65-0.46-1.01c-1.32-4.5-4.17-7.7-8.3-9.83 c-0.36-0.19-0.8-0.27-0.99-0.7c-1.07-0.61-2.23-0.79-3.45-0.68c-0.89,0.38-1.8,0.55-2.73,0.14c-0.23-1.12-0.23-2.25,0-3.38 c0.91,0.06,1.82,0.13,2.73,0.19c1.06,0.16,2.13,0.31,3.19,0.47c0.36-0.25,0.73-0.1,1.09,0.01c4.48,1.37,7.87,4.12,10.2,8.17 c1.08,1.88,1.88,3.88,2.26,6.03C149.23,140.48,149.37,140.94,148.99,141.33z"></path> <path class="st10" d="M187.45,87.59c0,1.48,0.02,2.95,0,4.43c-0.05,3.79-2.22,5.57-5.99,4.93c-2.23-0.38-3.31-1.58-3.6-4.01 c-0.25-2.11-0.25-2.05,1.83-2.13c0.97-0.04,1.16,0.28,1.19,1.18c0.03,0.92-0.06,2.06,1.28,2.34c1.03,0.22,1.71-0.16,1.93-1.19 c0.11-0.51,0.12-1.05,0.12-1.58c0.01-3.06,0.03-6.13-0.01-9.19c-0.01-0.76,0.23-0.93,0.95-0.93c2.3,0.01,2.3-0.02,2.3,2.29 C187.46,85.01,187.46,86.3,187.45,87.59z"></path> <path class="st10" d="M175.38,89.02c0,2.27-0.02,4.54,0.01,6.8c0.01,0.65-0.19,0.81-0.82,0.82c-2.46,0.03-2.46,0.06-2.46-2.37 c0-3.93,0.03-7.86-0.02-11.79c-0.01-0.87,0.25-1.07,1.08-1.05c2.21,0.04,2.21,0,2.21,2.26C175.38,85.47,175.38,87.25,175.38,89.02z "></path> <path class="st1" d="M155.24,190.52c-2.86,3.9-9.05,6.07-14.75,4.15c-5.98-2.02-9.71-7.44-9.56-13.49 c0.2-7.78,5.76-12.3,10.97-13.43c6.27-1.36,11.89,1.94,13.55,4.84c-2.64-2.02-5.41-2.98-8.55-2.68c-3.13,0.29-5.73,1.64-7.76,4.01 c-3.59,4.2-3.7,10.32-0.27,14.65c2,2.52,4.64,3.97,7.83,4.34C149.84,193.26,152.65,192.31,155.24,190.52z"></path> <path class="st1" d="M152.45,181.41c1.33-0.48,2.41-0.89,3.5-1.25c0.57-0.18,0.7-0.4,0.41-0.97c-0.53-1.03-0.99-2.09-1.6-3.39 c1.24,0.58,2.26,1.02,3.24,1.54c0.67,0.36,0.96,0.24,1.18-0.5c0.3-1.04,0.71-2.04,1.18-3.37c0.46,1.28,0.89,2.27,1.16,3.3 c0.24,0.91,0.64,0.91,1.34,0.51c0.62-0.35,1.29-0.63,1.94-0.93c0.23-0.1,0.49-0.35,0.73-0.14c0.3,0.28-0.01,0.55-0.13,0.8 c-0.29,0.65-0.56,1.33-0.92,1.94c-0.41,0.69-0.31,1.04,0.5,1.28c1.04,0.3,2.04,0.71,3.32,1.17c-1.29,0.46-2.29,0.86-3.31,1.17 c-0.73,0.22-0.99,0.46-0.54,1.23c0.54,0.93,0.93,1.94,1.52,3.19c-1.31-0.61-2.37-1.06-3.38-1.59c-0.57-0.3-0.77-0.16-0.96,0.41 c-0.34,1.08-0.75,2.13-1.19,3.36c-0.63-0.99-0.86-2.01-1.17-2.97c-0.28-0.87-0.57-1.17-1.46-0.65c-0.87,0.51-1.82,0.88-3.03,1.45 c0.55-1.18,0.92-2.15,1.44-3.02c0.53-0.89,0.25-1.23-0.64-1.48C154.6,182.23,153.67,181.84,152.45,181.41z"></path> <path class="st1" d="M126.57,125.7c-5.2,1.61-9.11,4.76-11.58,9.65c-0.98,1.94-1.51,4.02-1.73,6.18 c-6.22,0.12-11.17-2.23-14.24-7.76c-5.08-9.14,0.92-20.49,11.26-21.59c7.39-0.78,14.17,3.85,15.99,11.73 C126.4,124.5,126.47,125.1,126.57,125.7z"></path> <path class="st1" d="M129.68,128.54c0.9-0.18,1.82-0.17,2.73-0.14c1.25,8.01,5.57,13.39,13.44,15.75 c-0.53,7.27-6.55,13.18-13.88,13.65c-7.28,0.46-13.83-4.71-15.25-12.04c-0.11-0.55-0.33-1.1-0.21-1.68 c7.21-2.33,11.73-7.05,13-14.65C129.57,129.14,129.63,128.84,129.68,128.54z"></path> <path class="st1" d="M116.72,140.6c0.48-4.7,4.95-9.93,9.66-11.3C125.12,134.74,121.94,138.54,116.72,140.6z"></path> <path class="st1" d="M187.51,141.39c-0.75-7.5-5.74-13.47-12.98-15.52c-0.14-0.04-0.27-0.12-0.4-0.18 c0.87-6.3,4.18-10.76,10.18-12.89c7.85-2.78,16.55,2.03,18.79,10.2c2.18,7.95-2.99,16.38-11.09,18.1 C190.52,141.43,189.03,141.63,187.51,141.39z"></path> <path class="st1" d="M168.12,128.52c0.97-0.16,1.95-0.22,2.94-0.11c0.51,7.01,5.75,13.48,12.5,15.43c0.29,0.08,0.58,0.17,0.87,0.25 c-0.95,6.76-4.57,11.35-11.18,13.21c-8.36,2.36-17.46-4.06-18.18-12.67c-0.02-0.18,0.03-0.37,0.05-0.55 C162.38,142.02,167.67,135.7,168.12,128.52z"></path> <path class="st1" d="M174.35,129.09c5.29,2.14,8.7,5.87,9.79,11.57C178.74,138.61,175.55,134.69,174.35,129.09z"></path> <path class="st1" d="M148.99,141.33c-0.36-6.61-5.79-13.33-12.29-15.2c-0.36-0.1-0.73-0.19-1.09-0.29 c0.42-3.52,1.68-6.68,4.21-9.19c3.96-3.95,8.74-5.49,14.2-4.04c5.66,1.51,9.11,5.35,10.67,10.95c0.19,0.69,0.28,1.4,0.42,2.1 c-5.94,1.83-10.07,5.62-12.34,11.42c-0.54,1.38-0.72,2.85-1.03,4.29C150.81,141.45,149.9,141.57,148.99,141.33z"></path> <path class="st12" d="M155.18,140.44c0.87-3.89,2.82-7.09,6.1-9.41c1.1-0.78,2.24-1.5,3.6-1.77c-1.06,4.93-3.88,8.5-8.31,10.85 C156.14,140.35,155.69,140.53,155.18,140.44z"></path> <path class="st13" d="M145.48,93.95c-2.39,0.01-2.39,0.01-2.39-2.39c0-0.26,0.03-0.53-0.01-0.79c-0.08-0.61,0.11-0.87,0.79-0.83 c1.13,0.06,2.26-0.01,3.39,0.03c1.36,0.06,2.12,0.74,2.16,1.83c0.04,1.2-0.76,2.03-2.13,2.14 C146.69,93.99,146.08,93.95,145.48,93.95z"></path> <path class="st13" d="M145.42,87.42c-2.34,0-2.28,0-2.36-2.23c-0.03-0.99,0.29-1.23,1.2-1.14c1.16,0.11,2.34-0.09,3.5,0.16 c0.81,0.18,1.26,0.59,1.28,1.46c0.02,0.84-0.36,1.33-1.15,1.58C147.04,87.53,146.17,87.37,145.42,87.42z"></path> <path class="st14" d="M130.42,88.12c-2.26,0.01-2.26,0.01-2.26-2.3c0-1.76,0-1.76,1.82-1.76c0.75,0,1.51-0.04,2.26,0.04 c1.34,0.15,1.86,0.83,1.79,2.25c-0.05,1.12-0.65,1.68-1.92,1.76C131.56,88.15,130.99,88.12,130.42,88.12z"></path> <path class="st14" d="M88.71,90.83c-1.3,0-2.5,0-3.85,0c0.62-1.88,1.23-3.71,1.93-5.83C87.48,87.1,88.08,88.94,88.71,90.83z"></path> <path class="st13" d="M199.07,90.83c-1.33,0-2.54,0-3.85,0c0.63-1.89,1.24-3.73,1.93-5.83C197.83,87.07,198.42,88.88,199.07,90.83z "></path> <path class="st15" d="M162.39,84.99c0.69,2.12,1.28,3.93,1.91,5.87c-1.16,0-2.21-0.03-3.25,0.01c-0.66,0.03-0.54-0.31-0.41-0.68 C161.18,88.55,161.74,86.92,162.39,84.99z"></path> <path class="st16" d="M135.86,129.09c5.2,2.2,8.63,5.89,9.75,11.53c-5.12-1.81-8.19-5.48-9.58-10.65 C135.95,129.68,135.91,129.38,135.86,129.09z"></path> </g> </svg>