<svg xmlns="http://www.w3.org/2000/svg" xmlns:xlink="http://www.w3.org/1999/xlink" id="Layer_1" x="0px" y="0px" viewBox="0 0 300 300" style="enable-background:new 0 0 300 300;" xml:space="preserve"> <style type="text/css"> .st0{fill:#2AB569;} .st1{fill:#FFFFFF;} .st2{fill:#495C66;} </style> <g> <path class="st0" d="M235.36,180.68H61.2c-31.83,0-57.64-25.81-57.64-57.64v0c0-31.83,25.81-57.64,57.64-57.64h174.16 c31.83,0,57.64,25.81,57.64,57.64v0C293,154.87,267.19,180.68,235.36,180.68"></path> <path class="st1" d="M95.32,139H71.86l-6,19.67H53.35l22.61-69.42h15.78l22.61,69.42h-12.94L95.32,139z M92.37,129.33l-8.83-28.4 l-8.73,28.4H92.37z"></path> <polygon class="st1" points="125.4,153.41 157.69,99.24 123.5,99.24 124.98,89.25 173.57,89.25 173.57,94.51 141.28,148.68 175.68,148.68 174.2,158.67 125.4,158.67 "></polygon> <polygon class="st1" points="189.35,89.25 234.57,89.25 236.05,99.24 201.13,99.24 201.13,117.65 234.57,117.65 236.05,127.54 201.13,127.54 201.13,148.68 236.05,148.68 234.57,158.67 189.35,158.67 "></polygon> <path class="st2" d="M67.04,209.89h8.71v0.97c0,2.76-0.77,4.95-2.34,6.57c-1.57,1.64-3.71,2.46-6.37,2.46 c-2.71,0-4.92-0.87-6.64-2.58c-1.74-1.72-2.61-4.03-2.61-6.97c0-2.96,0.87-5.27,2.59-6.99c1.72-1.72,3.93-2.56,6.64-2.56 c2.16,0,4.03,0.57,5.6,1.72c1.57,1.17,2.54,2.76,2.96,4.78l-3.06,0.5c-0.25-1.37-0.87-2.44-1.84-3.21 c-0.97-0.77-2.21-1.15-3.68-1.15c-1.89,0-3.38,0.6-4.5,1.77c-1.12,1.2-1.69,2.91-1.69,5.15c0,2.21,0.57,3.93,1.69,5.12 c1.12,1.19,2.64,1.79,4.5,1.79c1.52,0,2.76-0.4,3.73-1.19c0.97-0.77,1.59-1.96,1.82-3.56h-5.5V209.89z"></path> <path class="st2" d="M94.56,203.35c1.72,1.72,2.59,4.05,2.59,7.01c0,2.96-0.85,5.27-2.54,6.96c-1.72,1.72-3.91,2.56-6.59,2.56 c-2.66,0-4.78-0.82-6.29-2.46c-1.54-1.62-2.31-3.8-2.31-6.57v-1.69h14.7c-0.1-1.79-0.72-3.21-1.84-4.23 c-1.12-1.02-2.54-1.54-4.25-1.54c-1.42,0-2.59,0.3-3.51,0.9c-0.95,0.6-1.57,1.44-1.87,2.51l-3.01-0.27 c0.42-1.72,1.37-3.08,2.86-4.15c1.49-1.07,3.31-1.59,5.45-1.59C90.63,200.79,92.85,201.63,94.56,203.35 M92.27,215.81 c1.12-0.97,1.72-2.34,1.84-4.1H82.4c0.05,1.67,0.57,3.01,1.54,4.03c0.97,1.02,2.34,1.52,4.1,1.52 C89.76,217.25,91.15,216.78,92.27,215.81"></path> <polygon class="st2" points="116.14,201.04 116.14,219.64 113.63,219.64 104.45,206.51 104.45,219.64 101.49,219.64 101.49,201.04 103.98,201.04 113.18,214.19 113.18,201.04 "></polygon> <path class="st2" d="M135.53,202.68c1.59,1.27,2.54,2.96,2.84,5.07l-3.08,0.27c-0.25-1.47-0.87-2.59-1.89-3.41 c-1.02-0.8-2.26-1.2-3.76-1.2c-1.87,0-3.36,0.62-4.48,1.87c-1.12,1.24-1.69,2.94-1.69,5.05c0,2.16,0.57,3.86,1.74,5.07 c1.17,1.22,2.64,1.84,4.45,1.84c1.47,0,2.71-0.4,3.73-1.17c1-0.77,1.62-1.84,1.89-3.26l3.11,0.27c-0.35,2.09-1.32,3.73-2.89,4.95 c-1.59,1.22-3.51,1.84-5.75,1.84c-2.71,0-4.95-0.84-6.69-2.56c-1.74-1.72-2.61-4.03-2.61-6.99c0-2.96,0.87-5.27,2.59-6.99 c1.72-1.72,3.95-2.56,6.69-2.56C132,200.79,133.91,201.41,135.53,202.68"></path> <polygon class="st2" points="145.44,201.04 145.44,217 154.25,217 154.25,219.64 142.48,219.64 142.48,201.04 "></polygon> <path class="st2" d="M171.77,203.35c1.72,1.72,2.59,4.05,2.59,7.01c0,2.96-0.84,5.27-2.54,6.96c-1.72,1.72-3.91,2.56-6.59,2.56 c-2.66,0-4.78-0.82-6.29-2.46c-1.54-1.62-2.31-3.8-2.31-6.57v-1.69h14.7c-0.1-1.79-0.72-3.21-1.84-4.23 c-1.12-1.02-2.54-1.54-4.25-1.54c-1.42,0-2.59,0.3-3.51,0.9c-0.95,0.6-1.57,1.44-1.87,2.51l-3.01-0.27 c0.42-1.72,1.37-3.08,2.86-4.15c1.49-1.07,3.31-1.59,5.45-1.59C167.84,200.79,170.05,201.63,171.77,203.35 M169.48,215.81 c1.12-0.97,1.72-2.34,1.84-4.1h-11.71c0.05,1.67,0.57,3.01,1.54,4.03c0.97,1.02,2.34,1.52,4.1,1.52 C166.97,217.25,168.36,216.78,169.48,215.81"></path> <path class="st2" d="M193.03,219.64h-3.33l-3.93-7.11h-4.1v7.11h-2.96v-18.6h7.51c1.74,0,3.16,0.5,4.23,1.49 c1.07,1.02,1.62,2.44,1.62,4.25c0,1.32-0.27,2.41-0.85,3.28c-0.57,0.9-1.37,1.54-2.36,1.97L193.03,219.64z M181.64,209.89h4.2 c0.92,0,1.69-0.27,2.29-0.82c0.6-0.52,0.9-1.29,0.9-2.29c0-1.02-0.3-1.79-0.9-2.34c-0.6-0.52-1.37-0.8-2.29-0.8h-4.2V209.89z"></path> <polygon class="st2" points="220.02,201.04 212.18,219.64 209.7,219.64 201.89,201.04 205.07,201.04 210.94,215.11 216.81,201.04 "></polygon> <path class="st2" d="M237.19,203.35c1.71,1.72,2.58,4.05,2.58,7.01c0,2.96-0.84,5.27-2.54,6.96c-1.72,1.72-3.91,2.56-6.59,2.56 c-2.66,0-4.78-0.82-6.29-2.46c-1.54-1.62-2.31-3.8-2.31-6.57v-1.69h14.7c-0.1-1.79-0.72-3.21-1.84-4.23 c-1.12-1.02-2.54-1.54-4.25-1.54c-1.42,0-2.59,0.3-3.51,0.9c-0.95,0.6-1.57,1.44-1.87,2.51l-3.01-0.27 c0.42-1.72,1.37-3.08,2.86-4.15c1.49-1.07,3.31-1.59,5.45-1.59C233.25,200.79,235.47,201.63,237.19,203.35 M234.9,215.81 c1.12-0.97,1.72-2.34,1.84-4.1h-11.72c0.05,1.67,0.57,3.01,1.54,4.03c0.97,1.02,2.34,1.52,4.1,1.52 C232.38,217.25,233.78,216.78,234.9,215.81"></path> <path class="st2" d="M61.45,223.36c0.35,0.35,0.52,0.77,0.52,1.24c0,0.5-0.17,0.92-0.52,1.24c-0.35,0.35-0.77,0.52-1.24,0.52 c-0.47,0-0.9-0.17-1.24-0.52c-0.35-0.32-0.52-0.75-0.52-1.24c0-0.47,0.17-0.9,0.52-1.24c0.35-0.35,0.77-0.52,1.24-0.52 C60.67,222.83,61.1,223.01,61.45,223.36 M61.6,246.61h-2.96v-18.6h2.96V246.61z"></path> <path class="st2" d="M74.14,228.01c2.66,0,4.85,0.82,6.54,2.49c1.69,1.67,2.54,3.95,2.54,6.81c0,2.86-0.85,5.12-2.56,6.79 c-1.72,1.67-3.91,2.51-6.57,2.51H66.7v-18.6H74.14z M69.64,230.54v13.53h4.48c1.87,0,3.36-0.6,4.48-1.77 c1.12-1.17,1.67-2.83,1.67-5c0-2.16-0.55-3.85-1.67-5.02c-1.12-1.17-2.59-1.74-4.45-1.74H69.64z"></path> <polygon class="st2" points="107.16,228.01 107.16,246.61 104.22,246.61 104.22,234.47 98.33,246.46 96.39,246.46 90.47,234.47 90.47,246.61 87.51,246.61 87.51,228.01 90.12,228.01 97.36,242.21 104.57,228.01 "></polygon> <path class="st2" d="M120.9,228.01l7.88,18.6h-3.23l-1.69-4.15h-8.41l-1.72,4.15h-3.21l7.86-18.6H120.9z M119.68,232.33l-3.08,7.49 h6.14L119.68,232.33z"></path> <polygon class="st2" points="146.81,228.01 146.81,246.61 144.3,246.61 135.12,233.48 135.12,246.61 132.16,246.61 132.16,228.01 134.65,228.01 143.85,241.16 143.85,228.01 "></polygon> <polygon class="st2" points="173.18,228.01 173.18,246.61 170.67,246.61 161.49,233.48 161.49,246.61 158.53,246.61 158.53,228.01 161.02,228.01 170.22,241.16 170.22,228.01 "></polygon> <path class="st2" d="M186.89,228.01l7.88,18.6h-3.23l-1.69-4.15h-8.41l-1.72,4.15h-3.21l7.86-18.6H186.89z M185.67,232.33 l-3.08,7.49h6.14L185.67,232.33z"></path> <polygon class="st2" points="211.01,228.01 211.01,230.25 201.33,243.97 211.23,243.97 211.23,246.61 197.55,246.61 197.55,244.37 207.2,230.62 197.8,230.62 197.8,228.01 "></polygon> <path class="st2" d="M217.68,223.36c0.35,0.35,0.52,0.77,0.52,1.24c0,0.5-0.17,0.92-0.52,1.24c-0.35,0.35-0.77,0.52-1.24,0.52 c-0.47,0-0.9-0.17-1.24-0.52c-0.35-0.32-0.52-0.75-0.52-1.24c0-0.47,0.17-0.9,0.52-1.24c0.35-0.35,0.77-0.52,1.24-0.52 C216.91,222.83,217.33,223.01,217.68,223.36 M217.83,246.61h-2.96v-18.6h2.96V246.61z"></path> <path class="st2" d="M237.26,246.61h-3.33L230,239.5h-4.1v7.11h-2.96v-18.6h7.51c1.74,0,3.16,0.5,4.23,1.49 c1.07,1.02,1.62,2.44,1.62,4.25c0,1.32-0.27,2.41-0.84,3.28c-0.57,0.9-1.37,1.54-2.36,1.97L237.26,246.61z M225.87,236.86h4.2 c0.92,0,1.69-0.27,2.29-0.82c0.6-0.52,0.9-1.29,0.9-2.29c0-1.02-0.3-1.79-0.9-2.34c-0.6-0.52-1.37-0.8-2.29-0.8h-4.2V236.86z"></path> <polygon class="st2" points="243.99,228.01 243.99,243.97 252.8,243.97 252.8,246.61 241.03,246.61 241.03,228.01 "></polygon> <path class="st2" d="M259.11,223.36c0.35,0.35,0.52,0.77,0.52,1.24c0,0.5-0.17,0.92-0.52,1.24c-0.35,0.35-0.77,0.52-1.24,0.52 c-0.47,0-0.9-0.17-1.24-0.52c-0.35-0.32-0.52-0.75-0.52-1.24c0-0.47,0.17-0.9,0.52-1.24c0.35-0.35,0.77-0.52,1.24-0.52 C258.34,222.83,258.76,223.01,259.11,223.36 M259.26,246.61h-2.96v-18.6h2.96V246.61z"></path> <polygon class="st2" points="279.53,228.01 272.49,239.12 272.49,246.61 269.56,246.61 269.56,239.12 262.49,228.01 265.93,228.01 271.02,236.19 276.1,228.01 "></polygon> <path class="st2" d="M285.63,223.36c0.35,0.35,0.52,0.77,0.52,1.24c0,0.5-0.17,0.92-0.52,1.24c-0.35,0.35-0.77,0.52-1.24,0.52 c-0.47,0-0.9-0.17-1.24-0.52c-0.35-0.32-0.52-0.75-0.52-1.24c0-0.47,0.17-0.9,0.52-1.24c0.35-0.35,0.77-0.52,1.24-0.52 C284.86,222.83,285.28,223.01,285.63,223.36 M285.78,246.61h-2.96v-18.6h2.96V246.61z"></path> </g> </svg>