<svg xmlns="http://www.w3.org/2000/svg" xmlns:xlink="http://www.w3.org/1999/xlink" id="Layer_1" x="0px" y="0px" viewBox="0 0 300 300" style="enable-background:new 0 0 300 300;" xml:space="preserve"> <style type="text/css"> .st0{fill:#10103D;} .st1{fill:#F58220;} .st2{fill:#FFFFFF;} </style> <g id="UWW_LOGO_POSITIVE"> <path id="Wordmark" class="st0" d="M193.23,246.36l-5.3-11.98l0.05,3.53v7.74c-0.03,0.4-0.37,0.69-0.77,0.69l0,0h-3.5v-19.27l0,0 c0-0.42,0.34-0.77,0.77-0.77c0,0,0,0,0.03,0h3.84l4.9,11.56l-0.05-3.52v-7.24c0,0,0,0,0-0.03c0-0.42,0.34-0.77,0.77-0.77 c0,0,0,0,0.03,0h3.5v19.33c-0.03,0.4-0.34,0.74-0.77,0.74l0,0H193.23L193.23,246.36z M212.69,244.82L212.69,244.82v-7.8h-4.14v5.65 h-0.53c-2.86,0-4.32-2.49-4.32-6.5c0-3.87,1.3-6.2,3.9-6.2c1.3,0,2.04,0.13,3.31,0.58c0.37,0.08,0.77-0.11,0.9-0.48l0,0l0.72-2.65 c-1.49-0.74-2.84-1.3-4.93-1.3c-4.91,0-8.25,4.24-8.25,10.39c0,6.5,2.81,10.18,8.33,10.18c1.62,0,2.86-0.29,4.3-0.9 C212.32,245.53,212.69,245.4,212.69,244.82z M108.11,245.59L108.11,245.59l3.79-18.53c0-0.42-0.34-0.77-0.77-0.77h-3.18l-2.12,12.2 l-0.48,3.18l0.03-0.16l-0.53-2.76l-2.57-11.69c0,0,0,0,0-0.03c-0.11-0.42-0.34-0.77-0.77-0.77H97.8l1.35,5.09l-2.73,10.16 l-0.37-2.81l-1.48-11.59c0,0,0-0.03,0-0.05l0,0l-0.03-0.19c-0.08-0.35-0.4-0.58-0.74-0.58h-3.61l3.21,20.07h4.56 c0.4-0.03,0.66-0.37,0.77-0.77l0,0l1.62-6.5l0.48-2.23l-0.08,0.4l0.8,3.23l1.35,5.89h4.43 C107.77,246.33,108.01,245.99,108.11,245.59z M144.15,231.75c0-0.85,0.42-1.88,1.72-1.88c1.17,0,1.8,0.13,2.89,0.48 c0.37,0.08,0.77-0.11,0.9-0.48l0.95-2.57c-2.17-1.14-3.37-1.27-5.09-1.27c-2.33,0-5.67,1.8-5.67,5.62c0,6.13,6.95,5.89,6.95,8.67 c0,0.82-0.48,2.28-2.12,2.28c-1.25,0-2.1-0.19-3.34-0.69c0,0,0,0-0.03,0c-0.4-0.13-0.85,0.05-0.98,0.45c0,0.03,0,0.03-0.03,0.03 l-0.93,2.52c1.43,1.04,2.92,1.67,5.33,1.67c2.89,0,6.44-1.91,6.44-6.31C151.2,234.66,144.15,234.03,144.15,231.75z M180.5,246.36 c0.42,0,0.77-0.34,0.77-0.77v-19.3h-3.5c0,0,0,0-0.03,0c-0.4,0-0.74,0.32-0.77,0.69v19.35L180.5,246.36L180.5,246.36z M175.73,242.54h-6.34v-16.25h-3.5c0,0,0,0-0.03,0c-0.42,0-0.77,0.34-0.77,0.77v19.3h9.23L175.73,242.54z M152.31,226.28 l-1.41,3.76h4.19v16.28h3.53l0,0c0.42,0,0.77-0.34,0.77-0.77c0-0.03,0-0.03,0-0.03v-15.48h3.66h0.02c0.42,0,0.77-0.34,0.77-0.77 c0,0,0,0,0-0.03v-3h-11.53V226.28z M126.52,246.7c-2.89-0.27-4.98-2.33-6.26-4.67l-1.43-2.6h-1.38v6.15c0,0,0,0,0,0.03 c0,0.42-0.35,0.77-0.77,0.77l0,0h-3.53v-19.3c0-0.42,0.34-0.77,0.77-0.77h0.03h5.17c3.42,0,5.97,2.15,5.97,6.71 c0,2.12-1.03,4.03-2.41,5.09l1.59,2.12c0.74,0.98,1.67,2.01,3.53,3.13L126.52,246.7z M120.63,233.1c0-1.72-0.42-3-1.96-3h-1.22 v5.94h0.74C120.02,236.04,120.63,234.69,120.63,233.1z M139.22,242.59v-0.03h-6.39v-4.53h3.84l1.3-3.53h-5.14v-4.45h4.8l1.4-3.76 h-9.68c0,0,0,0-0.03,0c-0.4,0-0.72,0.29-0.77,0.69v19.35h9.28L139.22,242.59z M123.47,221.57c0.24,0,0.45-0.19,0.48-0.42v-11.88 h-1.27c-0.27,0-0.48,0.21-0.48,0.48v11.82H123.47L123.47,221.57z M119.89,221.57c0.27,0,0.48-0.21,0.48-0.45v-11.85h-1.25l0,0 c-0.27,0-0.48,0.21-0.48,0.48l0,0v6.55l0.11,2.09h-0.08l-3.98-9.12h-1.48l0,0c-0.27,0-0.45,0.21-0.48,0.45v11.85H114l0,0 c0.26,0,0.48-0.21,0.48-0.48v-6.58l-0.13-2.02h0.08l4.03,9.07H119.89L119.89,221.57z M109.89,209.26c-0.26,0-0.48,0.21-0.48,0.48 v7.08c0,2.57-0.95,3.42-2.15,3.42c-1.17,0-2.12-0.74-2.12-3v-7.95h-1.3c-0.27,0-0.45,0.21-0.45,0.48l0,0v7.42 c0,3.71,1.99,4.61,3.87,4.61c1.8,0,3.82-1.01,3.82-5.04v-7.5H109.89z M129.25,221.57c0.24-0.03,0.42-0.21,0.42-0.48v-10.26h2.44 c0.26,0,0.45-0.21,0.45-0.48l0,0v-1.09h-6.97l-0.58,1.56l0,0h2.92v10.74H129.25z M139.53,220L139.53,220h-4.06v-3.9h3l0.53-1.46 h-3.53v-3.87h3.21l0.56-1.54h-5.51v12.3h5.25L139.53,220z M148.68,215.36c0,4.27-1.93,6.18-5.06,6.18h-2.36 c-0.27,0-0.48-0.21-0.48-0.48v-11.35c0-0.26,0.21-0.48,0.48-0.48h2.28C146.53,209.26,148.68,211.3,148.68,215.36z M146.93,215.55 c0-3.15-1.3-4.74-3.42-4.74h-1.01v9.2h1.25C145.79,220,146.93,218.44,146.93,215.55z M174.93,215.41c0-3.61-1.43-6.34-4.53-6.34 c-2.92,0-4.77,2.36-4.77,6.28c0,3.9,1.56,6.39,4.53,6.39C173.21,221.78,174.93,219.31,174.93,215.41z M173.15,215.41 c0,2.78-0.85,4.83-2.89,4.83c-1.88,0-2.89-2.12-2.89-4.88c0-2.73,0.93-4.77,2.86-4.77C172.09,210.59,173.15,212.52,173.15,215.41z M199.48,215.36c0,4.27-1.93,6.18-5.06,6.18h-2.36c-0.26,0-0.48-0.21-0.48-0.48v-11.35c0-0.26,0.21-0.48,0.48-0.48h2.28 C197.36,209.26,199.48,211.3,199.48,215.36z M197.76,215.55c0-3.15-1.3-4.74-3.42-4.74h-1.01v9.2h1.25 C196.59,220,197.76,218.44,197.76,215.55z M186.86,219.97v-10.71h-1.27c-0.26,0-0.48,0.21-0.48,0.48v11.82h4.96l0.58-1.59H186.86 L186.86,219.97z M184.16,220.37l-0.5,1.38c-0.98-0.13-2.1-0.77-2.81-2.2l-1.35-2.7c-0.21,0.05-0.53,0.05-0.85,0.05h-0.66v4.16l0,0 c0,0.27-0.21,0.48-0.48,0.48l0,0h-1.27v-11.82c0-0.26,0.21-0.48,0.48-0.48h2.7c1.88,0,3.21,1.22,3.21,3.82 c0,1.35-0.53,2.6-1.59,3.24l1.25,2.25C182.7,219.26,183.2,219.87,184.16,220.37z M180.84,213.16c0-1.57-0.53-2.36-1.67-2.36h-1.19 v4.61h0.88C180.13,215.44,180.84,214.7,180.84,213.16z M164.91,209.26h-1.11l-1.94,8.72l-0.24,1.35h-0.08l-0.32-1.27l-1.99-8.4l0,0 c-0.05-0.21-0.24-0.37-0.48-0.37l0,0h-1.38l0.79,3.1l-1.62,5.65l-0.37,1.33h-0.08l-0.24-1.33l-1.46-8.38l0,0 c-0.05-0.21-0.24-0.37-0.48-0.37l0,0h-1.35l2.36,12.3h1.8l0,0c0.21,0,0.4-0.16,0.45-0.34l1.41-5.12l0.29-1.03h0.05l0.24,1.06 l1.3,5.44h1.75l0,0c0.21,0,0.4-0.13,0.45-0.32l2.65-11.48l0,0C165.46,209.47,165.17,209.26,164.91,209.26z"></path> <g id="SYMBOL_1_"> <path id="Light_Blue_circle_2_" class="st1" d="M150.54,65.82c36.21,0,65.57,29.36,65.57,65.57s-29.36,65.57-65.57,65.57 s-65.57-29.35-65.57-65.57S114.32,65.82,150.54,65.82z"></path> <path id="Dark_Blue_Circle_3_" class="st0" d="M150.54,80.67c28.01,0,50.72,22.71,50.72,50.72c0,28.01-22.71,50.72-50.72,50.72 c-28.01,0-50.72-22.71-50.72-50.72C99.82,103.38,122.52,80.67,150.54,80.67z"></path> <path id="Blue_Sun_Fans_3_" class="st1" d="M148.6,120.94c-1.99-5.12-10-10.82-15.4-11.96c-11.51-2.39-10.34-12.04-10.34-12.04 c2.68,6.05,9.04,8.94,9.68,6.97c0.16-0.5-2.36-3-2.6-4.59c-0.24-1.59,1.67-3.05,3-2.55c3.63,1.35,1.06,6.73,5.49,8.99 C144.31,108.48,149.5,115.24,148.6,120.94z M129.96,170.47c6.81-8.43,10.37-8.83,10.92-8.4c1.54,1.17,0.21,3.08-0.13,3.77 c-0.88,1.8-0.53,4.11,1.86,4.43c1.75,0.24,3.02-2.04,2.52-4.27c-0.87-3.87,2.94-4,2.68-2.07c-0.72,5.22,2.65,9.52,5.65,11.56 c-1.8-4.11-2.41-11.16,0.87-12.36c3.13-1.14,0.87,4.93,2.04,6.42c0.5,0.66,2.09,1.11,3.18,0.45c2.36-1.48-1.57-7.96,0.21-8.38 c3.21-0.64,1.09,5.91,8.67,10.18c-1.43-4.35-3.68-11-1.7-12.36c1.56-0.74,1.88,2.36,3.5,3.71c2.55,2.1,6.12-1.41,3.93-2.86 c-2.44-1.59-4.27-3.69-3.82-4.69c1.33-2.92,6.13,0.11,10.39,8.03c1.67-7.19-3.1-11.9-8.25-14.29c-3.53-1.64-7.03-5.91-7.77-6.68 c-2.94-3.08-4.14-1.78-9.46-5.04c-1.06-1.14-1.91-6.57-0.37-8.59c3.05,3.5,14.29,4.45,13.68,2.92c-1.33-3.39,4.38-3.77,6.18-1.33 c1.83,2.49,0.61,5.38-3.84,4.93c-2.86-0.29-2.89,1.3-2.81,2.01c0.29,3.29,4.43,6.5,7.08,7.9c5.57,2.92,12.78,2.07,16.78,1.14 c-2.78-0.95-5.41-1.67-8.01-3.29c-4.93-3.1-4.19-4.59-3.5-5.59c0.69-1.01,3.1-1.09,5.94-0.03c5.06,1.91,6.79-7.45,1.3-5.6 c-2.44,0.82-5.75,1.27-6.1-1.4c0.08-4.83,9.62-2.55,11.3-10.85c-4.06,3.82-11.51,4.32-13.15,2.25c-1.17-1.48,0.85-2.68,3.39-2.6 c5.2,0.13,4.08-7.18-0.61-5.46c-2.97,1.09-4.24,4.14-5.28,3.66c-1.83-0.85-1.01-9.12,7-14.71c-8.38-1.33-10.9,8.72-13.31,6.65 c-2.17-1.88-0.66-5.86,1.46-7.79c2.78-2.52-1.88-7.26-4.77-2.55c-1.7,2.78,0.08,6.73-2.41,6.6c-3.29-0.21,2.97-12.65-5.59-17.63 c2.47,5.49,1.7,14.87-2.94,13.42c-3.05-0.95-1.3-3.23-0.61-6.02c1.14-4.56-5.33-4.38-5.04-0.93c0.29,3.47,0.77,6.12-1.09,6.26 c-2.81,0.19-4.75-6.87-0.58-13.52c-7.82,3-7.34,13.55-4.08,16.12c4.75,3.74,9.04,11.03,8.06,18.03c-2.25,3.34-7.48,4.98-7.48,4.98 c-0.16-2.46-4.75-12.28-17.08-13.26c-10.34-0.82-12.46-9.6-12.46-9.6c-0.5,2.44-1.43,7.82,6.2,10.98 c1.54,0.64-0.61,2.73-3.02,0.66c-4.48-3.82-7.77,1.72-3.82,3.26c1.35,0.53,6.31,1.75,7.96,4.03c3.87,5.33,8.54,9.49,20.28,5.83 c5.09-1.59,9.31-4.51,9.31-4.51s3.79-4.88,7-1.88c0.98,0.93,1.25,3.39-0.56,5.12c-1.83,1.75-4.14,1.17-4.82-0.03 c-0.19-0.29-1.27,0.11-1.91,2.31c-0.64,2.2-1.54,7.53,4.59,12.46c0.85,0.69-7.79-0.5-9.33-8.75c-1.51,1.11-4.75,2.07-6.97,2.33 c2.02,4.77,2.55,15.03-3.74,20.89C132.19,161.3,131.13,166.44,129.96,170.47z M121.03,141.79c0.05,2.31-8.88,3.47-9.39,10.47 c-0.05,0.64,5.12-4.43,11.11-4.32c1.8,0.03,2.36,2.1,1.83,3.05c-0.82,1.46-5.3,0.42-6.26,2.86c-0.8,1.96,1.83,3.5,3.69,3.16 c2.52-0.45,2.31-2.23,9.07-5.04c5.14-2.15,7.27-9.39,5.52-16.12c0,0-9.28-0.42-14.34-5.83c-5.09-5.41-15.33-4.51-15.33-4.51 c6.23,3.13,11.8,6.63,12.3,8.27c0.85,2.81-2.23,1.03-5.41,1.67c-3.95,0.79-2.92,5.36-0.24,5.59 C116.02,141.28,120.92,137.52,121.03,141.79z"></path> <path id="FIGURES_1_" class="st2" d="M153.27,121.61c-2.25,3.34-7.48,4.98-7.48,4.98c-0.16-2.47-4.75-12.28-17.08-13.26l0,0 c1.33-1.62,2.84-3.05,4.48-4.35c5.44,1.14,13.42,6.84,15.4,11.96c0.9-5.7-4.3-12.46-10.21-15.17l0,0c2.12-1.01,4.4-1.78,6.79-2.23 C149.95,107.29,154.25,114.61,153.27,121.61z M131.08,151.99c1.88,1.78,3.98,3.29,6.28,4.51c6.28-5.86,5.75-16.12,3.74-20.89 c2.25-0.26,5.46-1.22,6.97-2.33c1.54,8.25,10.21,9.44,9.33,8.75c-6.12-4.93-5.22-10.26-4.59-12.46c0.64-2.2,1.75-2.62,1.91-2.31 c0.69,1.22,3.02,1.78,4.83,0.03c1.83-1.75,1.56-4.22,0.56-5.12c-3.21-3-7,1.88-7,1.88s-4.24,2.94-9.31,4.51 c-11.75,3.66-16.41-0.53-20.28-5.83l0,0c-0.74,2.33-1.22,4.8-1.33,7.34l0,0c5.06,5.41,14.34,5.83,14.34,5.83 C138.34,142.61,136.22,149.84,131.08,151.99L131.08,151.99z M168.06,137.57c-0.05-0.72-0.05-2.31,2.81-2.01 c4.48,0.45,5.7-2.44,3.84-4.93c-1.8-2.44-7.5-2.1-6.18,1.33c0.61,1.54-10.66,0.58-13.68-2.92c-1.54,2.01-0.69,7.45,0.37,8.59 c5.33,3.26,6.5,1.99,9.47,5.04c0.74,0.79,4.27,5.04,7.77,6.68c0.98-1.22,1.88-2.52,2.68-3.87 C172.49,144.06,168.35,140.88,168.06,137.57z"></path> <path id="TM" class="st2" d="M185.93,153.58v2.86h-0.48v-2.86h-0.77v-0.42h2.02v0.42H185.93z M189.14,156.47v-1.88l0.03-0.58l0,0 l-0.61,2.44h-0.5l-0.58-2.44h-0.03l0.03,0.61v1.83h-0.48v-3.29h0.64l0.66,2.76l0,0l0.72-2.76h0.61v3.29h-0.48V156.47z"></path> </g> </g> </svg>